<?xml version="1.0" standalone="no"?>
<!DOCTYPE svg PUBLIC "-//W3C//DTD SVG 1.1//EN" "http://www.w3.org/Graphics/SVG/1.1/DTD/svg11.dtd" >
<svg>
<metadata>
Created by FontForge 20090914 at Fri Feb 24 15:20:22 2012
 By root
&#194;&#169; Association for Insight  Meditation
</metadata>
<defs>
<font id="Kabala" horiz-adv-x="1674" >
  <font-face 
    font-family="Kabala"
    font-weight="400"
    font-stretch="normal"
    units-per-em="2048"
    panose-1="2 11 5 3 5 3 2 2 2 4"
    ascent="1638"
    descent="-410"
    x-height="1020"
    cap-height="1470"
    bbox="-1228 -467 3260 1991"
    underline-thickness="80"
    underline-position="-110"
    unicode-range="U+0020-U+FB06"
  />
<missing-glyph horiz-adv-x="1024" 
d="M100 0v1434h824v-1434h-824zM150 50h724v1334h-724v-1334zM511 1251q113 0 195 -79t82 -189q0 -157 -111.5 -231.5t-111.5 -129.5v-116q0 -7 -81 -20l-2 2v169q0 76 106 146t106 180q0 75 -54 127.5t-129 52.5q-140 0 -196 -159l-79 45q86 202 275 202zM512 199l-80 91
l80 93l81 -93z" />
    <glyph glyph-name="fj" unicode="fj" horiz-adv-x="1159" 
d="M914 1262l-102 116l102 116l101 -116zM315 890v-890l-138 -36v926h-159l47 130h112v55q0 177 108.5 285t285.5 108h43l36 -133q-40 3 -83 3q-104 0 -178 -75.5t-74 -187.5v-55h671v-1020q0 -207 -116.5 -306.5t-226.5 -99.5h-44l-50 137q34 -7 83 -7q114 0 165 82.5
t51 193.5v890h-533z" />
    <glyph glyph-name="fr" unicode="fr" horiz-adv-x="1347" 
d="M315 890v-890l-138 -36v926h-159l47 130h112v55q0 177 108.5 285t285.5 108h43l36 -133q-40 3 -83 3q-104 0 -178 -75.5t-74 -187.5v-55h581v-202q37 98 115 167.5t253 69.5h65l-65 -147q-34 4 -65 4q-155 0 -229 -115t-74 -297v-500l-138 -36v926h-443z" />
    <glyph glyph-name="ft" unicode="ft" horiz-adv-x="1300" 
d="M315 890v-890l-138 -36v926h-159l47 130h112v55q0 177 108.5 285t285.5 108h43l36 -133q-40 3 -83 3q-104 0 -178 -75.5t-74 -187.5v-55h516v270l138 36v-306h309v-130h-309v-505q0 -179 54.5 -237t139.5 -58q66 0 119 22v-122q-60 -26 -148 -26q-128 0 -215.5 90
t-87.5 302v534h-516z" />
    <glyph glyph-name="fy" unicode="fy" horiz-adv-x="1488" 
d="M492 890h-177v-890l-138 -36v926h-159l47 130h112v55q0 177 108.5 285t285.5 108h43l36 -133q-40 3 -83 3q-104 0 -178 -75.5t-74 -187.5v-55h276l384 -686l361 736l134 -50l-714 -1426l-124 62l264 519z" />
    <glyph glyph-name="fft" unicode="fft" horiz-adv-x="1768" 
d="M315 890v-890l-138 -36v926h-159l47 130h112q0 177 108.5 285t285.5 108h43l36 -133q-40 3 -83 3q-104 0 -178 -75.5t-74 -187.5h430v55q0 177 108.5 285t285.5 108h43l36 -133q-40 3 -83 3q-104 0 -178 -75.5t-74 -187.5v-55h416v270l138 36v-306h309v-130h-309v-505
q0 -179 54.5 -237t139.5 -58q66 0 119 22v-122q-60 -26 -148 -26q-128 0 -215.5 90t-87.5 302v534h-416v-890l-138 -36v926h-430z" />
    <glyph glyph-name="ffy" unicode="ffy" horiz-adv-x="2056" 
d="M315 890v-890l-138 -36v926h-159l47 130h112q0 177 108.5 285t285.5 108h43l36 -133q-40 3 -83 3q-104 0 -178 -75.5t-74 -187.5h430v55q0 177 108.5 285t285.5 108h43l36 -133q-40 3 -83 3q-104 0 -178 -75.5t-74 -187.5v-55h276l384 -686l361 736l134 -50l-714 -1426
l-124 62l264 519l-404 715h-177v-890l-138 -36v926h-430z" />
    <glyph glyph-name="fty" unicode="fty" horiz-adv-x="2040" 
d="M315 890v-890l-138 -36v926h-159l47 130h112v55q0 177 108.5 285t285.5 108h43l36 -133q-40 3 -83 3q-104 0 -178 -75.5t-74 -187.5v-55h416v270l138 36v-306h274l384 -686l361 736l134 -50l-714 -1426l-124 62l264 519l-404 715h-175v-505q0 -179 54.5 -237t139.5 -58
q66 0 119 22v-122q-60 -26 -148 -26q-128 0 -215.5 90t-87.5 302v534h-416z" />
    <glyph glyph-name="tr" unicode="tr" horiz-adv-x="1311" 
d="M301 890v-505q0 -179 54.5 -237t139.5 -58q66 0 119 22v-122q-60 -26 -148 -26q-128 0 -215.5 90t-87.5 302v534h-145l40 130h105v270l138 36v-306h559v-202q37 98 115 167.5t253 69.5h65l-65 -147q-34 4 -65 4q-155 0 -229 -115t-74 -297v-500l-138 -36v926h-421z" />
    <glyph glyph-name="tt" unicode="tt" horiz-adv-x="1164" 
d="M301 890v-505q0 -179 54.5 -237t139.5 -58q66 0 119 22v-122q-60 -26 -148 -26q-128 0 -215.5 90t-87.5 302v534h-145l40 130l105 1v269l138 36v-305h394v269l138 36v-305h309v-131h-309v-505q0 -179 54.5 -237t139.5 -58q66 0 119 22v-122q-60 -26 -148 -26
q-128 0 -215.5 90t-87.5 302v534h-394z" />
    <glyph glyph-name="tty" unicode="tty" horiz-adv-x="2015" 
d="M301 890v-505q0 -179 54.5 -237t139.5 -58q66 0 119 22v-122q-60 -26 -148 -26q-128 0 -215.5 90t-87.5 302v534h-145l40 130l105 1v269l138 36v-305h394v269l138 36v-306h285l384 -686l361 736l134 -50l-714 -1426l-124 62l264 519l-404 715h-186v-505q0 -179 54.5 -237
t139.5 -58q66 0 119 22v-122q-60 -26 -148 -26q-128 0 -215.5 90t-87.5 302v534h-394z" />
    <glyph glyph-name="ty" unicode="ty" horiz-adv-x="1483" 
d="M487 890h-186v-505q0 -179 54.5 -237t139.5 -58q66 0 119 22v-122q-60 -26 -148 -26q-128 0 -215.5 90t-87.5 302v534h-145l40 130h105v270l138 36v-306h285l384 -686l361 736l134 -50l-714 -1426l-124 62l264 519z" />
    <glyph glyph-name="ff" unicode="ff" horiz-adv-x="1238" 
d="M318 890v-890l-141 -36v926h-159l47 130h112q0 191 94.5 292t299.5 101h43l36 -133q-40 3 -83 3q-133 0 -191 -75t-58 -188h417v37q0 209 94.5 310t299.5 101h43l36 -133q-40 3 -83 3q-133 0 -191 -86t-58 -177v-55h307v-130h-307v-890l-141 -36v926h-417z" />
    <glyph glyph-name="fi" unicode="fi" horiz-adv-x="1159" 
d="M845 891h-527v-891l-141 -36v927h-159l47 130h112v36q0 209 94.5 310t299.5 101h43l36 -133q-40 3 -83 3q-133 0 -191 -86t-58 -177v-54l664 -1v-1020l-137 -36v927zM914 1262l-101 116l101 116l101 -116z" />
    <glyph glyph-name="fl" unicode="fl" horiz-adv-x="1095" 
d="M566 1338q-124 0 -186 -86t-62 -177v-54h307v-130h-307v-891l-141 -36v927h-159l47 130h112v36q0 209 97 310t290 101q194 0 290.5 -111t96.5 -336v-1021l-138 -36v1057q0 158 -62 237t-185 80z" />
    <glyph glyph-name="ffi" unicode="ffi" horiz-adv-x="1729" 
d="M318 890v-890l-141 -36v926h-159l47 130h112q0 191 94.5 292t299.5 101h43l36 -133q-40 3 -83 3q-133 0 -191 -76t-58 -187h417v37q0 209 94.5 310t299.5 101h43l36 -133q-40 3 -83 3q-133 0 -191 -86t-58 -177v-55h664v-1020l-137 -36v926h-527v-890l-141 -36v926h-417z
M1472 1262l-101 116l101 116l101 -116z" />
    <glyph glyph-name="ffl" unicode="ffl" horiz-adv-x="1665" 
d="M318 890v-890l-141 -36v926h-159l47 130h112q0 191 94.5 293t299.5 102h43l36 -133q-40 3 -83 3q-133 0 -191 -87t-58 -178h417v37q0 209 97 311t290 102q194 0 290.5 -112.5t96.5 -337.5v-1020l-138 -36v1056q0 158 -62 237.5t-185 80.5q-124 0 -186 -86t-62 -177v-55
h307v-130h-307v-890l-141 -36v926h-417z" />
    <glyph glyph-name="longst" unicode="&#x17f;t" horiz-adv-x="1300" 
d="M567 1338q-133 0 -191 -71t-58 -192v-1075l-141 -36v927h-159l47 130h112v36q0 189 104.5 300t289.5 111q165 0 277.5 -127t112.5 -321h317v-130h-317v-505q0 -179 58.5 -237t143.5 -58q66 0 119 22v-122q-60 -26 -148 -26q-128 0 -215.5 90t-87.5 302v534h-145l40 130
h105q0 139 -76 228.5t-188 89.5z" />
    <glyph glyph-name=".notdef" horiz-adv-x="1024" 
d="M100 0v1434h824v-1434h-824zM150 50h724v1334h-724v-1334zM511 1251q113 0 195 -79t82 -189q0 -157 -111.5 -231.5t-111.5 -129.5v-116q0 -7 -81 -20l-2 2v169q0 76 106 146t106 180q0 75 -54 127.5t-129 52.5q-140 0 -196 -159l-79 45q86 202 275 202zM512 199l-80 91
l80 93l81 -93z" />
    <glyph glyph-name=".null" horiz-adv-x="0" 
 />
    <glyph glyph-name="nonmarkingreturn" horiz-adv-x="508" 
 />
    <glyph glyph-name="space" unicode=" " horiz-adv-x="508" 
 />
    <glyph glyph-name="exclam" unicode="!" horiz-adv-x="519" 
d="M332 1470l-18 -1093l-108 -36l-18 1093zM259 -36l-115 132l115 131l116 -131z" />
    <glyph glyph-name="quotedbl" unicode="&#x22;" horiz-adv-x="597" 
d="M240 1461v-482l-144 -18v482zM501 1461v-482l-145 -18v482z" />
    <glyph glyph-name="numbersign" unicode="#" horiz-adv-x="1228" 
d="M549 777l-77 -262h219l77 262h-219zM610 1295h93l-128 -431h219l128 431h91l-127 -431h234l-26 -87h-234l-75 -262h252l-27 -89h-253l-127 -426h-91l126 426h-217l-128 -426h-92l127 426h-247l27 89h245l78 262h-267l27 87h266z" />
    <glyph glyph-name="dollar" unicode="$" horiz-adv-x="1229" 
d="M561 1462v97l108 27v-117q208 -9 352 -187l-101 -101q-113 145 -293 145q-110 0 -185 -66.5t-75 -179.5q0 -191 270 -268q420 -142 420 -440q0 -197 -124 -302q-108 -92 -264 -104v-102l-108 -27v130q-230 25 -389 246l116 108q105 -209 336 -209q139 0 208.5 60.5
t69.5 181.5q0 215 -275 296q-422 160 -422 405q0 203 141 309q102 78 215 98z" />
    <glyph glyph-name="percent" unicode="%" 
d="M1221 577q-102 0 -173.5 -73t-71.5 -177t71.5 -177t173.5 -73t174 73t72 177t-72 177t-174 73zM453 1343q-102 0 -173.5 -73.5t-71.5 -176.5q0 -104 71.5 -177.5t173.5 -73.5t174 73.5t72 177.5q0 103 -72 176.5t-174 73.5zM1584 327q0 -151 -106 -257t-257 -106
t-257 106t-106 257t106 257t257 106t257 -106t106 -257zM913 1246q151 0 358 224l83 -36l-940 -1470l-94 40l763 1195q-110 -54 -174 -54q-51 0 -101 16q8 -28 8 -68q0 -151 -106 -257t-257 -106q-150 0 -256.5 106t-106.5 257q0 150 106.5 256.5t256.5 106.5
q151 0 258 -106q103 -104 202 -104z" />
    <glyph glyph-name="ampersand" unicode="&#x26;" horiz-adv-x="1249" 
d="M574 1470q121 0 201 -73.5t80 -197.5q0 -193 -271 -426l-3 -4v-3l289 -343l123 126l85 -94l-125 -130q171 -205 278 -205l-29 -120q-135 0 -342 230l-103 -107q-152 -159 -328 -159q-140 0 -239.5 91.5t-99.5 258.5q0 147 97 264l213 213q-133 184 -133 379
q0 123 90 211.5t217 88.5zM400 1141q0 -138 101 -263q224 184 224 332q0 58 -47 96t-122 38q-69 0 -112.5 -55.5t-43.5 -147.5zM483 686l-117 -106q-139 -134 -139 -269q0 -120 65.5 -166.5t154.5 -46.5q108 0 223 119l112 118z" />
    <glyph glyph-name="quotesingle" unicode="'" horiz-adv-x="447" 
d="M224 1434q115 -71 115 -155q0 -58 -101 -183l-61 -76l-69 47q93 111 109 183q0 57 -65 86z" />
    <glyph glyph-name="parenleft" unicode="(" horiz-adv-x="776" 
d="M108 717q0 562 517 899l43 -108q-426 -274 -426 -791t426 -790l-43 -108q-517 337 -517 898z" />
    <glyph glyph-name="parenright" unicode=")" horiz-adv-x="776" 
d="M152 -181l-44 108q427 273 427 790t-427 791l44 108q516 -337 516 -899q0 -561 -516 -898z" />
    <glyph glyph-name="asterisk" unicode="*" horiz-adv-x="968" 
d="M553 1470l-11 -307l241 141l77 -105l-260 -137l245 -141l-47 -116l-256 152l3 -260l-130 -25l11 285l-238 -137l-80 94l253 144l-231 145l51 119l245 -159v260z" />
    <glyph glyph-name="plus" unicode="+" horiz-adv-x="1228" 
d="M551 573v447h126v-447h407v-126h-407v-447h-126v447h-407v126h407z" />
    <glyph glyph-name="comma" unicode="," horiz-adv-x="447" 
d="M357 236l-234 -570h-123l183 537z" />
    <glyph glyph-name="hyphen" unicode="-" horiz-adv-x="862" 
d="M70 578h722v-136h-722v136z" />
    <glyph glyph-name="period" unicode="." horiz-adv-x="447" 
d="M223 -36l-115 132l115 131l116 -131z" />
    <glyph glyph-name="slash" unicode="/" horiz-adv-x="867" 
d="M849 1470l-730 -1549l-101 40l726 1552z" />
    <glyph glyph-name="zero" unicode="0" horiz-adv-x="1228" 
d="M1165 717q0 -312 -161.5 -532.5t-389.5 -220.5t-389.5 220.5t-161.5 532.5t161.5 532.5t389.5 220.5t389.5 -220.5t161.5 -532.5zM614 1345q-165 0 -282 -184t-117 -444t117 -444.5t282 -184.5t282 184.5t117 444.5t-117 444t-282 184z" />
    <glyph glyph-name="one" unicode="1" horiz-adv-x="1228" 
d="M802 1470v-1470l-148 -36v1282l-365 -226l-43 109z" />
    <glyph glyph-name="two" unicode="2" horiz-adv-x="1228" 
d="M616 1470q187 0 328 -130t141 -325q0 -246 -260 -498l-390 -380h654l-43 -137h-907l704 744q98 104 98 238q0 149 -96.5 252t-235.5 103q-132 0 -225 -93.5t-93 -221.5q0 -218 233 -336l-95 -94q-88 28 -187 148.5t-99 285.5q0 184 136 314t337 130z" />
    <glyph glyph-name="three" unicode="3" horiz-adv-x="1228" 
d="M598 1470q171 0 293 -107.5t122 -257.5q0 -242 -209 -336q105 -55 175 -143t70 -236q0 -177 -124.5 -301.5t-301.5 -124.5q-308 0 -444 282l105 75q116 -216 314 -216q130 0 222 85t92 200q0 125 -101 214.5t-249 89.5h-91v126h91q132 0 225 81t93 190q0 101 -84 175
t-198 74q-145 0 -300 -170l-87 90q163 210 387 210z" />
    <glyph glyph-name="four" unicode="4" horiz-adv-x="1228" 
d="M864 1501v-983h260l-26 -133h-227v-385l-148 -36v421h-599zM344 518h379v572z" />
    <glyph glyph-name="five" unicode="5" horiz-adv-x="1228" 
d="M973 1434l-43 -145h-494v-408q83 36 194 36q185 0 313 -132.5t128 -325.5q0 -205 -139.5 -350t-340.5 -145q-225 0 -434 213l105 105q151 -184 329 -184q139 0 235.5 103.5t96.5 257.5q0 132 -100 226.5t-254 94.5q-128 0 -282 -105v759h686z" />
    <glyph glyph-name="six" unicode="6" horiz-adv-x="1228" 
d="M613 -36q-213 0 -364.5 150.5t-151.5 362.5q0 326 251.5 618.5t409.5 374.5l112 -79q-324 -216 -495 -477q131 72 238 72q213 0 365 -150t152 -359q0 -212 -152 -362.5t-365 -150.5zM613 98q157 0 268 111t111 268t-111 268t-268 111t-268 -111t-111 -268t111 -268
t268 -111z" />
    <glyph glyph-name="seven" unicode="7" horiz-adv-x="1228" 
d="M191 1434h882l-531 -1434l-163 -36l506 1325h-730z" />
    <glyph glyph-name="eight" unicode="8" horiz-adv-x="1228" 
d="M614 1470q167 0 284 -104t117 -255q0 -234 -206 -354q249 -119 249 -376q0 -189 -132 -303t-308 -114q-199 0 -323.5 114t-124.5 318q0 222 238 357q-202 123 -202 354q0 155 126 259t282 104zM614 1343q-112 0 -191.5 -79.5t-79.5 -188.5q0 -110 79.5 -187t191.5 -77
t191.5 77t79.5 187q0 109 -79.5 188.5t-191.5 79.5zM614 688q-125 0 -214 -84.5t-89 -204.5q0 -129 89 -213.5t214 -84.5q126 0 214.5 84.5t88.5 213.5q0 120 -88.5 204.5t-214.5 84.5z" />
    <glyph glyph-name="nine" unicode="9" horiz-adv-x="1228" 
d="M613 1466q213 0 365 -150.5t152 -361.5q0 -353 -266.5 -653.5t-394.5 -336.5l-112 78q323 214 495 475q-131 -73 -239 -73q-213 0 -364.5 150t-151.5 360q0 211 151.5 361.5t364.5 150.5zM613 1333q-157 0 -268 -111t-111 -268q0 -158 111 -269t268 -111t268 111t111 269
q0 157 -111 268t-268 111z" />
    <glyph glyph-name="colon" unicode=":" horiz-adv-x="519" 
d="M259 -36l-115 132l115 131l116 -131zM259 528l-115 131l115 132l116 -132z" />
    <glyph glyph-name="semicolon" unicode=";" horiz-adv-x="519" 
d="M260 528l-115 131l115 132l116 -132zM367 236l-235 -570h-123l184 537z" />
    <glyph glyph-name="less" unicode="&#x3c;" horiz-adv-x="1228" 
d="M1084 1020v-130l-776 -380l776 -380v-130l-940 460v101z" />
    <glyph glyph-name="equal" unicode="=" horiz-adv-x="1228" 
d="M144 763h940v-123h-940v123zM144 377h940v-120h-940v120z" />
    <glyph glyph-name="greater" unicode="&#x3e;" horiz-adv-x="1228" 
d="M144 0v130l776 380l-776 380v130l940 -459v-101z" />
    <glyph glyph-name="question" unicode="?" horiz-adv-x="914" 
d="M446 1477q162 0 279 -113.5t117 -269.5q0 -225 -159 -331t-159 -185v-166q0 -10 -116 -29l-3 3v242q0 109 151.5 208.5t151.5 257.5q0 106 -77 181.5t-185 75.5q-199 0 -280 -228l-112 65q122 289 392 289zM454 -36l-115 131l115 132l115 -132z" />
    <glyph glyph-name="at" unicode="@" horiz-adv-x="1553" 
d="M668 376q103 0 167 170.5t64 285.5q0 89 -50.5 141.5t-129.5 52.5q-108 0 -176 -140.5t-68 -296.5q0 -106 48.5 -159.5t144.5 -53.5zM1481 789q0 -261 -145 -403.5t-310 -142.5q-111 0 -186 99q-97 -85 -190 -85q-123 0 -213 78.5t-107 214.5q0 233 107.5 416t276.5 183
q129 0 247 -126l21 90h139l-149 -690q-5 -14 -5 -25q0 -40 63 -40q128 0 226.5 124t98.5 307q-6 229 -172.5 385.5t-405.5 156.5q-241 0 -407 -179t-171 -426q0 -278 176.5 -457t446.5 -179q272 0 451 143h163q-227 -269 -614 -269q-338 8 -543.5 222.5t-206.5 539.5
q6 299 209 515t496 216q291 0 495 -193t209 -475z" />
    <glyph glyph-name="A" unicode="A" horiz-adv-x="1468" 
d="M1450 1l-141 -37l-293 586h-564l-293 -586l-141 37l716 1476zM516 683h435l-217 449z" />
    <glyph glyph-name="B" unicode="B" horiz-adv-x="1011" 
d="M484 1434q173 0 298 -92t125 -287q0 -209 -185 -315q217 -124 217 -335q0 -214 -132 -309.5t-294 -95.5h-405v1434h376zM256 1289v-491h203q172 0 231 72t59 196q0 95 -62.5 159t-191.5 64h-239zM256 665v-521h257q133 0 200 74.5t67 186.5q0 118 -81.5 189t-200.5 71
h-242z" />
    <glyph glyph-name="C" unicode="C" horiz-adv-x="1188" 
d="M827 1461q201 0 318 -70l25 -170q-156 96 -383 96q-205 0 -380.5 -174t-175.5 -449q0 -252 171 -419t407 -167q203 0 350 98l-36 -181q-142 -61 -299 -61q-313 0 -532.5 196.5t-219.5 518.5q0 352 234.5 567t520.5 215z" />
    <glyph glyph-name="D" unicode="D" horiz-adv-x="1246" 
d="M108 1434h351q356 0 535.5 -207t179.5 -479q-4 -380 -224 -564t-517 -184h-325v1434zM256 1289v-1145h163q236 0 414 156t178 412q0 257 -152.5 417t-334.5 160h-268z" />
    <glyph glyph-name="E" unicode="E" horiz-adv-x="964" 
d="M108 1434h755l47 -145h-654v-494h553v-145h-553v-506h690l-39 -144h-799v1434z" />
    <glyph glyph-name="F" unicode="F" horiz-adv-x="838" 
d="M108 1434h665l47 -145h-560v-494h430v-145h-430v-650l-152 -36v1470z" />
    <glyph glyph-name="G" unicode="G" horiz-adv-x="1441" 
d="M820 1470q251 0 495 -195l-91 -112q-183 148 -419 148q-279 0 -428 -190.5t-149 -426.5q0 -241 181.5 -413.5t392.5 -172.5q206 0 383 130v409h-463l47 144h564v-625q-44 -45 -195 -123.5t-336 -78.5q-295 0 -512.5 217t-217.5 541q0 311 228.5 529.5t519.5 218.5z" />
    <glyph glyph-name="H" unicode="H" horiz-adv-x="1351" 
d="M256 1470v-699h839v663l148 36v-1470l-148 -36v670h-839v-634l-148 -36v1470z" />
    <glyph glyph-name="I" unicode="I" horiz-adv-x="582" 
d="M365 1470v-1470l-148 -36v1470z" />
    <glyph glyph-name="J" unicode="J" horiz-adv-x="798" 
d="M690 1461v-1072q0 -209 -110 -316t-287 -107q-167 0 -275 94l61 130q102 -83 217 -83q101 0 173.5 71.5t72.5 199.5v1056z" />
    <glyph glyph-name="K" unicode="K" horiz-adv-x="1055" 
d="M256 1470v-700l612 700l104 -86l-539 -632l604 -727l-145 -61l-636 763v-727l-148 -36v1470z" />
    <glyph glyph-name="L" unicode="L" horiz-adv-x="878" 
d="M256 1461v-1317h604l-47 -144h-705v1434z" />
    <glyph glyph-name="M" unicode="M" horiz-adv-x="1660" 
d="M387 1010l-210 -1046l-141 36l299 1470l495 -1161l495 1161l299 -1470l-140 -36l-212 1046l-442 -1046z" />
    <glyph glyph-name="N" unicode="N" horiz-adv-x="1358" 
d="M108 1470l994 -1119v1083l148 36v-1506l-994 1109v-1073l-148 -36v1506z" />
    <glyph glyph-name="O" unicode="O" horiz-adv-x="1632" 
d="M811 1327q-245 0 -418 -178.5t-173 -431.5t173 -431.5t418 -178.5t417.5 178.5t172.5 431.5t-172.5 431.5t-417.5 178.5zM1560 717q0 -312 -218 -531.5t-526 -219.5t-526 219.5t-218 531.5t218 531.5t526 219.5t526 -219.5t218 -531.5z" />
    <glyph glyph-name="P" unicode="P" horiz-adv-x="979" 
d="M444 1434q172 0 317.5 -133t145.5 -353q0 -234 -145.5 -360.5t-317.5 -126.5h-188v-461l-148 -36v1470h336zM256 1289v-684h188q118 0 216 91t98 254q0 128 -102 233.5t-212 105.5h-188z" />
    <glyph glyph-name="Q" unicode="Q" horiz-adv-x="1658" 
d="M1154 219l-186 167l108 98l182 -166q143 169 143 399q0 253 -172.5 431.5t-417.5 178.5t-418 -178.5t-173 -431.5t173 -431.5t418 -178.5q194 0 343 112zM1370 215l270 -246l-101 -98l-273 246q-194 -151 -450 -151q-308 0 -526 219.5t-218 531.5t218 531.5t526 219.5
t526 -219.5t218 -531.5q0 -291 -190 -502z" />
    <glyph glyph-name="R" unicode="R" horiz-adv-x="1014" 
d="M394 1434q224 0 350 -121t126 -322q0 -193 -127 -295t-237 -102l490 -563l-137 -67l-603 706v-670l-148 -36v1470h286zM256 1289v-583h120q193 0 266 89.5t73 206.5q0 126 -84 206.5t-179 80.5h-196z" />
    <glyph glyph-name="S" unicode="S" horiz-adv-x="1029" 
d="M545 1470q224 0 376 -188l-101 -101q-113 145 -293 145q-110 0 -185 -66.5t-75 -179.5q0 -191 270 -268q420 -142 420 -440q0 -197 -124.5 -302.5t-312.5 -105.5q-269 0 -448 249l116 108q105 -209 336 -209q139 0 208.5 60.5t69.5 181.5q0 215 -275 296
q-422 160 -422 405q0 203 140.5 309t299.5 106z" />
    <glyph glyph-name="T" unicode="T" horiz-adv-x="997" 
d="M69 1434h910v-145h-392v-1289l-150 -36v1325h-419z" />
    <glyph glyph-name="U" unicode="U" horiz-adv-x="1278" 
d="M256 1470v-986q0 -216 113.5 -297t269.5 -81q200 0 291.5 109t91.5 244v975l148 36v-957q0 -325 -168 -437t-374 -112q-260 0 -390 127.5t-130 349.5v993z" />
    <glyph glyph-name="V" unicode="V" horiz-adv-x="1387" 
d="M694 -36l-676 1470l148 36l528 -1135l527 1135l148 -36z" />
    <glyph glyph-name="W" unicode="W" horiz-adv-x="1911" 
d="M956 541l-262 -577l-676 1470l148 36l528 -1135l177 373l-329 726l148 36l266 -576l265 576l148 -36l-329 -725l178 -374l527 1135l148 -36l-675 -1470z" />
    <glyph glyph-name="X" unicode="X" horiz-adv-x="1346" 
d="M584 783l-468 651l144 36l414 -562l412 562l145 -36l-469 -651l566 -783l-133 -36l-521 698l-522 -698l-134 36z" />
    <glyph glyph-name="Y" unicode="Y" horiz-adv-x="1145" 
d="M166 1470l426 -766l394 766l141 -36l-748 -1470l-130 36l258 535l-489 899z" />
    <glyph glyph-name="Z" unicode="Z" horiz-adv-x="1123" 
d="M105 1434h971l-805 -1290h834l-36 -144h-1051l795 1289h-748z" />
    <glyph glyph-name="bracketleft" unicode="[" horiz-adv-x="710" 
d="M602 1586v-72h-238v-1651h238v-73h-386v1796h386z" />
    <glyph glyph-name="backslash" unicode="\" horiz-adv-x="867" 
d="M123 1513l726 -1552l-101 -40l-730 1549z" />
    <glyph glyph-name="bracketright" unicode="]" horiz-adv-x="711" 
d="M495 1586v-1796h-387v73h239v1651h-239v72h387z" />
    <glyph glyph-name="asciicircum" unicode="^" horiz-adv-x="917" 
d="M457 1434l352 -246l-134 -61l-216 155l-235 -155l-116 61z" />
    <glyph glyph-name="underscore" unicode="_" horiz-adv-x="1024" 
d="M1024 -150v-80h-1024v80h1024z" />
    <glyph glyph-name="grave" unicode="`" horiz-adv-x="946" 
d="M508 1478l225 -358h-96l-332 358h203z" />
    <glyph glyph-name="a" unicode="a" horiz-adv-x="946" 
d="M502 1057q157 0 255.5 -98.5t98.5 -255.5v-703l-138 -27v130q-40 -56 -115 -96.5t-159 -40.5q-175 0 -282.5 110.5t-107.5 261.5q0 176 109 279.5t267 103.5q162 0 288 -112v122q0 92 -63 147.5t-167 55.5q-199 0 -340 -87l51 159q166 51 303 51zM188 338
q0 -111 74.5 -176.5t203.5 -65.5q122 0 185.5 70t63.5 172q0 127 -66 191.5t-194 64.5q-123 0 -195 -74t-72 -182z" />
    <glyph glyph-name="b" unicode="b" horiz-adv-x="1221" 
d="M228 1470v-627q98 112 186.5 159t203.5 47q266 0 444 -216q105 -142 105 -326q0 -287 -268 -469q-129 -72 -271 -72q-225 0 -381.5 151t-156.5 372v945zM627 904q-167 0 -285 -118t-118 -284q0 -167 118 -285t285 -118q166 0 284 118t118 285q0 166 -118 284t-284 118z
" />
    <glyph glyph-name="c" unicode="c" horiz-adv-x="972" 
d="M585 1057q190 0 369 -127l-80 -94q-128 94 -282 94q-156 0 -278.5 -123.5t-122.5 -302.5q0 -163 122 -284t261 -121q175 0 300 101l76 -93q-158 -141 -350 -141q-252 0 -399 173.5t-147 382.5q0 229 168 382t363 153z" />
    <glyph glyph-name="d" unicode="d" horiz-adv-x="1217" 
d="M993 136q-175 -170 -400 -170q-142 0 -271 72q-268 182 -268 469q0 184 105 326q178 216 444 216q115 0 201 -45.5t182 -145.5v576l141 36v-1470l-134 -30v166zM981 502q0 176 -110 289t-276 113q-167 0 -285 -118t-118 -284q0 -167 118 -285t285 -118q166 0 276 104.5
t110 298.5z" />
    <glyph glyph-name="e" unicode="e" horiz-adv-x="1062" 
d="M607 1064q154 0 266.5 -72.5t152.5 -184.5l-788 -477q43 -113 147.5 -172t206.5 -59q186 0 416 188v-166q-82 -70 -187 -112.5t-218 -42.5q-254 0 -401.5 169.5t-147.5 393.5q0 222 161 378.5t392 156.5zM199 457l639 394q-34 45 -106 67.5t-153 22.5q-205 0 -311 -154
q-79 -114 -79 -240q0 -44 10 -90z" />
    <glyph glyph-name="f" unicode="f" horiz-adv-x="668" 
d="M571 1468h43l36 -133q-40 3 -83 3q-104 0 -178 -75.5t-74 -187.5v-55h310v-130h-310v-890l-138 -36v926h-159l47 130h112v55q0 177 108.5 285t285.5 108z" />
    <glyph glyph-name="g" unicode="g" horiz-adv-x="957" 
d="M184 692q0 -125 83 -203.5t195 -78.5q139 0 218 86t79 188q0 122 -88.5 187.5t-208.5 65.5q-104 0 -191 -66.5t-87 -178.5zM455 -272q133 0 214 86t81 187q0 125 -81 205.5t-214 80.5t-239 -91l37 169q-199 104 -199 327q0 141 113.5 253t294.5 112q125 0 251 -19
q115 0 226 62l-54 -148h-130q130 -109 130 -286q0 -214 -199 -314q199 -134 199 -351q0 -143 -121.5 -275t-301.5 -132q-227 0 -374 180l98 81q101 -127 269 -127z" />
    <glyph glyph-name="h" unicode="h" horiz-adv-x="1007" 
d="M228 1470v-600q132 187 310 187q184 0 281.5 -121.5t97.5 -281.5v-654l-138 -36v661q0 146 -66 225.5t-186 79.5q-113 0 -206 -77t-93 -159v-694l-138 -36v1470z" />
    <glyph glyph-name="i" unicode="i" horiz-adv-x="491" 
d="M315 1057v-1057l-138 -36v1056zM246 1262l-102 116l102 116l101 -116z" />
    <glyph glyph-name="j" unicode="j" horiz-adv-x="491" 
d="M318 1057v-1057q0 -207 -116.5 -306.5t-226.5 -99.5h-44l-50 137q34 -7 83 -7q114 0 165 82.5t51 193.5v1020zM246 1262l-102 116l102 116l101 -116z" />
    <glyph glyph-name="k" unicode="k" horiz-adv-x="885" 
d="M228 1470v-967l481 572l115 -55l-452 -529l495 -473l-110 -54l-529 514v-478l-138 -36v1470z" />
    <glyph glyph-name="l" unicode="l" horiz-adv-x="491" 
d="M314 1470v-1470l-138 -36v1470z" />
    <glyph glyph-name="m" unicode="m" horiz-adv-x="1560" 
d="M1131 1057q192 0 296 -161q43 -72 43 -181v-715l-138 -36v737q0 114 -55.5 169t-145.5 55q-113 0 -192 -55q-97 -74 -97 -274v-596l-138 -36v701q0 260 -206 260q-106 0 -195 -83q-75 -92 -75 -289v-553l-138 -36v1056l138 37v-183q88 183 270 183q207 0 311 -183
q115 183 322 183z" />
    <glyph glyph-name="n" unicode="n" horiz-adv-x="1004" 
d="M542 1057q180 0 276 -114t96 -267v-676l-137 -36v712q0 137 -65 195t-195 58q-110 0 -199.5 -104t-89.5 -261v-564l-138 -36v1056l138 36v-177q142 178 314 178z" />
    <glyph glyph-name="o" unicode="o" horiz-adv-x="1199" 
d="M1145 509q0 -225 -160 -384.5t-385 -159.5q-226 0 -386 159.5t-160 384.5q0 226 160 386t386 160q225 0 385 -160t160 -386zM600 923q-171 0 -291.5 -121t-120.5 -293q0 -171 120.5 -292t291.5 -121q170 0 290.5 121t120.5 292q0 172 -120.5 293t-290.5 121z" />
    <glyph glyph-name="p" unicode="p" horiz-adv-x="1246" 
d="M650 1057q256 0 399 -156t143 -361q0 -275 -172.5 -424.5t-383.5 -149.5q-226 0 -408 202v-538l-138 -36v1426l138 36v-216q193 217 422 217zM654 940q-169 0 -288.5 -123.5t-119.5 -299.5q0 -175 119.5 -298.5t288.5 -123.5q170 0 289 123.5t119 298.5q0 176 -119 299.5
t-289 123.5z" />
    <glyph glyph-name="q" unicode="q" horiz-adv-x="1246" 
d="M1019 840v180l137 36v-1426l-137 -36v574q-183 -202 -409 -202q-211 0 -383.5 149.5t-172.5 424.5q0 205 143 361t399 156q229 0 423 -217zM184 517q0 -175 119.5 -298.5t288.5 -123.5t289 123.5t120 298.5q0 176 -120 299.5t-289 123.5t-288.5 -123.5t-119.5 -299.5z
" />
    <glyph glyph-name="r" unicode="r" horiz-adv-x="679" 
d="M596 1055h65l-65 -147q-34 4 -65 4q-155 0 -229 -115t-74 -297v-500l-138 -36v1056l138 36v-238q37 98 115 167.5t253 69.5z" />
    <glyph glyph-name="s" unicode="s" horiz-adv-x="813" 
d="M423 1057q175 0 317 -109l-79 -99q-102 94 -238 94q-98 0 -156 -47t-58 -123q0 -150 232 -181q318 -77 318 -321q0 -145 -104 -226t-247 -81q-213 0 -354 166l90 90q112 -130 253 -130q103 0 163.5 50t60.5 131q0 155 -226 195q-319 66 -319 293q0 139 108.5 218.5
t238.5 79.5z" />
    <glyph glyph-name="t" unicode="t" horiz-adv-x="632" 
d="M301 1326v-306h309v-130h-309v-505q0 -179 54.5 -237t139.5 -58q66 0 119 22v-122q-60 -26 -148 -26q-128 0 -215.5 90t-87.5 302v534h-145l40 130h105v270z" />
    <glyph glyph-name="u" unicode="u" horiz-adv-x="997" 
d="M907 1056v-1056l-138 -36v173q-130 -173 -296 -173q-172 0 -277.5 119t-105.5 260v677l138 36v-698q0 -128 74 -199t182 -71q119 0 202 110t83 268v554z" />
    <glyph glyph-name="v" unicode="v" horiz-adv-x="1033" 
d="M152 1060l372 -798l357 798l134 -40l-491 -1065l-506 1065z" />
    <glyph glyph-name="w" unicode="w" horiz-adv-x="1734" 
d="M860 1078l379 -813l347 795l130 -40l-477 -1065l-379 827l-380 -819l-462 1057l130 40l340 -791z" />
    <glyph glyph-name="x" unicode="x" horiz-adv-x="1015" 
d="M163 1070l339 -438l351 438l112 -50l-376 -489l408 -531l-134 -36l-357 469l-362 -469l-126 36l405 535l-372 485z" />
    <glyph glyph-name="y" unicode="y" horiz-adv-x="1090" 
d="M165 1070l412 -736l361 736l134 -50l-714 -1426l-124 62l264 519l-480 849z" />
    <glyph glyph-name="z" unicode="z" horiz-adv-x="993" 
d="M137 1020h838l-686 -886h675l-36 -134h-910l686 890h-592z" />
    <glyph glyph-name="braceleft" unicode="{" horiz-adv-x="675" 
d="M108 689q87 0 124.5 59.5t38.5 143.5v363q0 149 53.5 240t199.5 91h36v-17q-60 0 -109.5 -54.5t-49.5 -132.5v-490q0 -72 -38 -138.5t-114 -66.5v-2q76 0 114 -66t38 -138v-488q0 -78 49.5 -132.5t109.5 -54.5v-17h-36q-146 0 -199.5 91t-53.5 240v361q-1 84 -38.5 143.5
t-124.5 59.5v5z" />
    <glyph glyph-name="bar" unicode="|" horiz-adv-x="582" 
d="M365 1434v-1840h-148v1840h148z" />
    <glyph glyph-name="braceright" unicode="}" horiz-adv-x="675" 
d="M567 684q-87 0 -124.5 -59.5t-38.5 -143.5v-361q0 -149 -53.5 -240t-199.5 -91h-36v17q60 0 109.5 54.5t49.5 132.5v488q0 72 38 138t114 66v2q-76 0 -114 66.5t-38 138.5v490q0 78 -49.5 132.5t-109.5 54.5v17h36q146 0 199.5 -91t53.5 -240v-363q1 -84 38.5 -143.5
t124.5 -59.5v-5z" />
    <glyph glyph-name="asciitilde" unicode="~" horiz-adv-x="1228" 
d="M350 833q103 0 267 -56t246 -56q81 0 121.5 28t40.5 84h59q0 -116 -55 -174t-166 -58q-82 0 -246 54.5t-267 54.5q-75 0 -113 -27t-38 -82h-55q0 116 51.5 174t154.5 58z" />
    <glyph glyph-name="uni00A0" unicode="&#xa0;" horiz-adv-x="508" 
 />
    <glyph glyph-name="exclamdown" unicode="&#xa1;" horiz-adv-x="519" 
d="M187 -404l18 1091l108 36l18 -1091zM260 1057l115 -132l-115 -131l-116 131z" />
    <glyph glyph-name="cent" unicode="&#xa2;" horiz-adv-x="1228" 
d="M758 1053q156 -17 305 -123l-72 -94h-7q-112 82 -244 92l-122 -822q33 -7 66 -7h15q159 0 278 101h7l76 -93q-158 -141 -351 -141q-56 0 -110 11l-56 -383h-130l63 423q-122 58 -218 183q-94 143 -94 307v15q0 259 220 433q116 81 244 97l56 382h130zM608 921
q-104 -22 -180 -96q-127 -132 -127 -321q0 -203 177 -340l17 -10z" />
    <glyph glyph-name="sterling" unicode="&#xa3;" horiz-adv-x="1228" 
d="M650 1470q147 0 248 -102.5t135 -276.5l-123 -33q-19 129 -90 211t-174 82q-137 0 -195 -97.5t-58 -234.5v-217h329l-36 -145h-293v-387q0 -94 -36 -129h271q215 0 295.5 68t80.5 199v76l134 -43v-58q0 -212 -117.5 -297.5t-294.5 -85.5h-643v144h70q107 0 107 130v387
h-188l36 144h152v215q0 203 115 326.5t275 123.5z" />
    <glyph glyph-name="currency" unicode="&#xa4;" horiz-adv-x="1228" 
d="M425 452l-131 -131l-75 76l130 131q-60 82 -60 189t60 189l-130 131l75 75l131 -130q82 60 189 60t189 -60l131 130l76 -75l-131 -131q60 -82 60 -189t-60 -189l131 -131l-76 -76l-131 131q-82 -60 -189 -60t-189 60zM614 907q-79 0 -134.5 -55.5t-55.5 -134.5
t55.5 -134.5t134.5 -55.5t134.5 55.5t55.5 134.5t-55.5 134.5t-134.5 55.5z" />
    <glyph glyph-name="yen" unicode="&#xa5;" horiz-adv-x="1228" 
d="M717 536l-296 -572l-130 36l258 535l-1 1h-375v136h301l-78 144h-223v136h149l-262 482l148 54l426 -783l394 783l141 -54l-242 -482h138v-136h-207l-72 -144h279v-136h-348z" />
    <glyph glyph-name="brokenbar" unicode="&#xa6;" horiz-adv-x="582" 
d="M365 385v-791h-148v791h148zM365 1434v-791h-148v791h148z" />
    <glyph glyph-name="section" unicode="&#xa7;" horiz-adv-x="1228" 
d="M616 1447q147 0 250.5 -108t103.5 -264h-105q0 110 -72 185t-177 75q-100 0 -160.5 -53.5t-60.5 -141.5q0 -100 142 -193l425 -281q109 -71 109 -220q0 -188 -224 -314q115 -93 115 -227q0 -125 -104 -218t-253 -93q-160 0 -260.5 104t-100.5 272h119q0 -108 70.5 -182.5
t171.5 -74.5q102 0 163 50.5t61 130.5q0 115 -199 249l-350 238q-123 84 -123 257q0 181 206 288q-98 91 -98 224q0 119 103 208t248 89zM269 645q0 -125 195 -231l314 -214q174 98 174 221q0 120 -156 198l-364 235q-163 -74 -163 -209z" />
    <glyph glyph-name="dieresis" unicode="&#xa8;" horiz-adv-x="946" 
d="M670 1172l-127 128l127 127l128 -127zM341 1172l-127 128l127 127l128 -127z" />
    <glyph glyph-name="copyright" unicode="&#xa9;" 
d="M1594 719q0 -314 -221.5 -535t-535.5 -221t-535.5 221t-221.5 535t221.5 535.5t535.5 221.5t535.5 -221.5t221.5 -535.5zM837 1376q-272 0 -464.5 -192.5t-192.5 -464.5t192.5 -464.5t464.5 -192.5t464.5 192.5t192.5 464.5t-192.5 464.5t-464.5 192.5zM1100 420
l-24 -149q-95 -40 -200 -40q-207 0 -353 130.5t-146 344.5q0 234 156 376.5t346 142.5q133 0 211 -46l17 -142h-2q-94 61 -233 61q-125 0 -232.5 -106.5t-107.5 -275.5q0 -153 104.5 -255.5t249.5 -102.5q124 0 212 62h2z" />
    <glyph glyph-name="ordfeminine" unicode="&#xaa;" horiz-adv-x="709" 
d="M386 1461q132 0 182.5 -55t50.5 -157v-416l-102 -16v72q-67 -83 -169 -83q-109 0 -183.5 70.5t-74.5 170.5q0 87 72 150t176 63q107 0 170 -68v74q0 51 -38 86t-112 35t-206 -54l33 97q110 31 201 31zM619 745v-90h-529v90h529zM367 1185q-62 0 -106 -44t-44 -106
t44 -106t106 -44t106 44t44 106t-44 106t-106 44z" />
    <glyph glyph-name="guillemotleft" unicode="&#xab;" horiz-adv-x="1101" 
d="M235 511l263 -210v-206l-408 318v196l408 317v-205zM748 510l263 -210v-206l-408 318v196l408 318v-206z" />
    <glyph glyph-name="logicalnot" unicode="&#xac;" horiz-adv-x="1228" 
d="M144 729h939v-445h-140v354h-799v91z" />
    <glyph glyph-name="uni00AD" unicode="&#xad;" horiz-adv-x="862" 
d="M70 578h722v-136h-722v136z" />
    <glyph glyph-name="registered" unicode="&#xae;" 
d="M782 1256q149 0 248 -80.5t99 -213.5q0 -129 -70 -196.5t-143 -67.5l296 -395l-121 -45l-373 490v-445l-126 -18v971h190zM718 1140v-358h52q128 0 176.5 54.5t48.5 132.5q0 83 -55.5 127t-119.5 44h-102zM1594 719q0 -314 -221.5 -535t-535.5 -221t-535.5 221
t-221.5 535t221.5 535.5t535.5 221.5t535.5 -221.5t221.5 -535.5zM837 1376q-272 0 -464.5 -192.5t-192.5 -464.5t192.5 -464.5t464.5 -192.5t464.5 192.5t192.5 464.5t-192.5 464.5t-464.5 192.5z" />
    <glyph glyph-name="macron" unicode="&#xaf;" horiz-adv-x="946" 
d="M244 1235v128h560v-128h-560z" />
    <glyph glyph-name="degree" unicode="&#xb0;" horiz-adv-x="938" 
d="M830 1103q0 -150 -105.5 -255.5t-255.5 -105.5t-255.5 105.5t-105.5 255.5t105.5 255.5t255.5 105.5t255.5 -105.5t105.5 -255.5zM469 1329q-94 0 -160 -66t-66 -160t66 -160t160 -66t160 66t66 160t-66 160t-160 66z" />
    <glyph glyph-name="plusminus" unicode="&#xb1;" horiz-adv-x="1228" 
d="M550 126v321h-406v126h406v447h127v-447h406v-126h-406v-321h406v-126h-939v126h406z" />
    <glyph glyph-name="uni00B2" unicode="&#xb2;" horiz-adv-x="848" 
d="M425 1466q135 0 223 -82t88 -199q0 -148 -158 -307l-232 -209h395l-35 -104h-627l471 460q61 60 61 140q0 88 -57 143.5t-133 55.5q-72 0 -127 -49.5t-55 -125.5q0 -128 154 -199l-81 -74q-84 25 -142 100.5t-58 174.5q0 111 85 193t228 82z" />
    <glyph glyph-name="uni00B3" unicode="&#xb3;" horiz-adv-x="849" 
d="M414 1463q125 0 210.5 -69.5t85.5 -156.5q0 -148 -129 -201q57 -28 104.5 -83t47.5 -145q0 -106 -86.5 -186t-215.5 -80q-220 0 -315 181l104 70q84 -145 194 -145q72 0 125.5 46t53.5 114q0 74 -59.5 123t-142.5 49h-84v97h84q73 0 127.5 44t54.5 108q0 55 -48.5 95
t-110.5 40q-79 0 -194 -117l-82 80q115 136 276 136z" />
    <glyph glyph-name="acute" unicode="&#xb4;" horiz-adv-x="946" 
d="M733 1478l-332 -358h-96l225 358h203z" />
    <glyph glyph-name="mu" unicode="&#xb5;" horiz-adv-x="1228" 
d="M1158 1056l-219 -1056l-133 -36l36 173q-177 -173 -343 -173q-103 0 -163 -68l-144 -302l-123 36l126 268q26 71 26 119q0 35 -13 59q-32 57 -32 102q0 71 19 165l141 677l146 36l-143 -698q-9 -41 -9 -76q0 -74 40 -122q57 -72 166 -72q149 0 247 135t120 243l116 554z
" />
    <glyph glyph-name="paragraph" unicode="&#xb6;" horiz-adv-x="1228" 
d="M1032 1435v-70h-127v-1365h-82v1365h-166v-1365h-84v738q-174 8 -275.5 102.5t-101.5 245.5q0 157 107.5 253t285.5 96h443z" />
    <glyph glyph-name="periodcentered" unicode="&#xb7;" horiz-adv-x="447" 
d="M223 590l-127 128l127 127l128 -127z" />
    <glyph glyph-name="cedilla" unicode="&#xb8;" horiz-adv-x="946" 
d="M653 -27q-24 -17 -24 -50h33q83 0 126.5 -47.5t43.5 -113.5q0 -56 -44.5 -112t-125.5 -56q-94 0 -140 59l54 58q36 -42 86 -42q45 0 67 27.5t22 63.5q0 44 -23.5 69.5t-65.5 25.5q-41 0 -75 -18l-32 22l13 114h85z" />
    <glyph glyph-name="uni00B9" unicode="&#xb9;" horiz-adv-x="849" 
d="M572 1490v-918l-145 -34v756l-228 -129l-40 91z" />
    <glyph glyph-name="ordmasculine" unicode="&#xba;" horiz-adv-x="828" 
d="M774 1134q0 -135 -105.5 -231t-254.5 -96t-255 96t-106 231q0 136 106 231.5t255 95.5t254.5 -95.5t105.5 -231.5zM414 1370q-108 0 -183.5 -69t-75.5 -167t75.5 -167t183.5 -69q107 0 182.5 69t75.5 167t-75.5 167t-182.5 69zM727 745v-90h-626v90h626z" />
    <glyph glyph-name="guillemotright" unicode="&#xbb;" horiz-adv-x="1101" 
d="M603 721v205l408 -317v-196l-408 -318v206l264 210zM90 720v206l408 -318v-196l-408 -318v206l264 210z" />
    <glyph glyph-name="onequarter" unicode="&#xbc;" horiz-adv-x="1851" 
d="M572 1490v-918l-145 -34v756l-228 -129l-40 91zM1349 1656l101 -43l-859 -1834l-104 40l852 1826zM1614 905v-589h172l-22 -102h-144v-187l-140 -25v212h-369l476 691h27zM1314 316h166v240z" />
    <glyph glyph-name="onehalf" unicode="&#xbd;" horiz-adv-x="1850" 
d="M572 1490v-918l-145 -34v756l-228 -129l-40 91zM1349 1656l101 -43l-859 -1834l-104 40l852 1826zM1427 903q135 0 223 -82t88 -199q0 -148 -158 -307l-232 -209h395l-35 -104h-627l471 460q61 60 61 140q0 88 -57 143.5t-133 55.5q-72 0 -127 -49.5t-55 -125.5
q0 -128 154 -199l-81 -74q-84 25 -142 100.5t-58 174.5q0 111 85 193t228 82z" />
    <glyph glyph-name="threequarters" unicode="&#xbe;" horiz-adv-x="1851" 
d="M414 1463q125 0 210.5 -69.5t85.5 -156.5q0 -148 -129 -201q57 -28 104.5 -83t47.5 -145q0 -106 -86.5 -186t-215.5 -80q-220 0 -315 181l104 70q84 -145 194 -145q72 0 125.5 46t53.5 114q0 74 -59.5 123t-142.5 49h-84v97h84q73 0 127.5 44t54.5 108q0 55 -48.5 95
t-110.5 40q-79 0 -194 -117l-82 80q115 136 276 136zM1349 1656l101 -43l-859 -1834l-104 40l852 1826zM1614 905v-589h172l-22 -102h-144v-187l-140 -25v212h-369l476 691h27zM1314 316h166v240z" />
    <glyph glyph-name="questiondown" unicode="&#xbf;" horiz-adv-x="914" 
d="M468 -404q-162 0 -279 114t-117 269q0 224 159 329.5t159 185.5v166q0 10 116 29l3 -4v-242q0 -108 -151.5 -208t-151.5 -256q0 -106 76.5 -181.5t185.5 -75.5q198 0 280 228l112 -65q-122 -289 -392 -289zM460 1047l115 -130l-115 -132l-115 132z" />
    <glyph glyph-name="Agrave" unicode="&#xc0;" horiz-adv-x="1468" 
d="M1450 1l-141 -37l-293 586h-564l-293 -586l-141 37l716 1476zM516 683h435l-217 449zM652 1892l225 -358h-96l-332 358h203z" />
    <glyph glyph-name="Aacute" unicode="&#xc1;" horiz-adv-x="1468" 
d="M1450 1l-141 -37l-293 586h-564l-293 -586l-141 37l716 1476zM516 683h435l-217 449zM1019 1892l-332 -358h-96l225 358h203z" />
    <glyph glyph-name="Acircumflex" unicode="&#xc2;" horiz-adv-x="1468" 
d="M1450 1l-141 -37l-293 586h-564l-293 -586l-141 37l716 1476zM516 683h435l-217 449zM735 1892l303 -260v-98l-304 179l-303 -179v98z" />
    <glyph glyph-name="Atilde" unicode="&#xc3;" horiz-adv-x="1468" 
d="M1450 1l-141 -37l-293 586h-564l-293 -586l-141 37l716 1476zM516 683h435l-217 449zM618 1819q51 0 127.5 -40t119.5 -40q95 0 159 80l35 -40q-105 -172 -205 -172q-54 1 -129 38.5t-132 37.5q-81 0 -153 -76l-31 48q104 164 209 164z" />
    <glyph glyph-name="Adieresis" unicode="&#xc4;" horiz-adv-x="1468" 
d="M1450 1l-141 -37l-293 586h-564l-293 -586l-141 37l716 1476zM516 683h435l-217 449zM898 1586l-127 128l127 127l128 -127zM569 1586l-127 128l127 127l128 -127z" />
    <glyph glyph-name="Aring" unicode="&#xc5;" horiz-adv-x="1468" 
d="M516 683h435l-217 449zM734 1682q-35 0 -59 -24t-24 -59q0 -34 24 -58.5t59 -24.5t59 24.5t24 58.5q0 35 -24 59t-59 24zM761 1422l689 -1421l-141 -37l-293 586h-564l-293 -586l-141 37l689 1421q-57 8 -99 51q-53 52 -53 126t52.5 126.5t126.5 52.5t126.5 -52.5
t52.5 -126.5t-52 -126q-43 -43 -100 -51z" />
    <glyph glyph-name="AE" unicode="&#xc6;" horiz-adv-x="1837" 
d="M981 550h-418l-387 -586l-148 36l953 1434h755l47 -145h-654v-494h552v-145h-552v-506h690l-40 -144h-798v550zM981 683v500l-332 -500h332z" />
    <glyph glyph-name="Ccedilla" unicode="&#xc7;" horiz-adv-x="1188" 
d="M710 -29q-240 30 -418 190q-220 196 -220 518q0 352 234.5 567t520.5 215q201 0 318 -70l25 -170l-3 -4q-153 100 -380 100q-205 0 -380.5 -174t-175.5 -449q0 -252 171 -419t407 -167q203 0 347 101l3 -3l-36 -181q-142 -61 -299 -61q-19 0 -38 1q-15 -16 -15 -42h33
q83 0 126.5 -47.5t43.5 -113.5q0 -56 -44.5 -112t-125.5 -56q-94 0 -140 59l54 58q36 -42 86 -42q45 0 67 27.5t22 63.5q0 44 -23.5 69.5t-65.5 25.5q-41 0 -75 -18l-32 22z" />
    <glyph glyph-name="Egrave" unicode="&#xc8;" horiz-adv-x="964" 
d="M108 1434h755l47 -145h-654v-494h553v-145h-553v-506h690l-39 -144h-799v1434zM447 1892l225 -358h-96l-332 358h203z" />
    <glyph glyph-name="Eacute" unicode="&#xc9;" horiz-adv-x="964" 
d="M108 1434h755l47 -145h-654v-494h553v-145h-553v-506h690l-39 -144h-799v1434zM812 1892l-332 -358h-96l225 358h203z" />
    <glyph glyph-name="Ecircumflex" unicode="&#xca;" horiz-adv-x="964" 
d="M108 1434h755l47 -145h-654v-494h553v-145h-553v-506h690l-39 -144h-799v1434zM528 1892l303 -260v-98l-304 179l-303 -179v98z" />
    <glyph glyph-name="Edieresis" unicode="&#xcb;" horiz-adv-x="964" 
d="M108 1434h755l47 -145h-654v-494h553v-145h-553v-506h690l-39 -144h-799v1434zM691 1586l-127 128l127 127l128 -127zM362 1586l-127 128l127 127l128 -127z" />
    <glyph glyph-name="Igrave" unicode="&#xcc;" horiz-adv-x="582" 
d="M365 1470v-1470l-148 -36v1470zM211 1892l225 -358h-96l-332 358h203z" />
    <glyph glyph-name="Iacute" unicode="&#xcd;" horiz-adv-x="582" 
d="M365 1470v-1470l-148 -36v1470zM578 1892l-332 -358h-96l225 358h203z" />
    <glyph glyph-name="Icircumflex" unicode="&#xce;" horiz-adv-x="582" 
d="M365 1470v-1470l-148 -36v1470zM294 1892l303 -260v-98l-304 179l-303 -179v98z" />
    <glyph glyph-name="Idieresis" unicode="&#xcf;" horiz-adv-x="582" 
d="M365 1470v-1470l-148 -36v1470zM457 1586l-127 128l127 127l128 -127zM128 1586l-127 128l127 127l128 -127z" />
    <glyph glyph-name="Eth" unicode="&#xd0;" horiz-adv-x="1246" 
d="M256 645v-501h163q236 0 414 156t178 412q0 257 -152.5 417t-334.5 160h-268v-500h286v-144h-286zM108 789v645h351q356 0 535.5 -207t179.5 -479q-4 -380 -224 -564t-517 -184h-325v645h-108v144h108z" />
    <glyph glyph-name="Ntilde" unicode="&#xd1;" horiz-adv-x="1358" 
d="M108 1470l994 -1119v1083l148 36v-1506l-994 1109v-1073l-148 -36v1506zM563 1819q51 0 127.5 -40t119.5 -40q95 0 159 80l35 -40q-105 -172 -205 -172q-54 1 -129 38.5t-132 37.5q-81 0 -153 -76l-31 48q104 164 209 164z" />
    <glyph glyph-name="Ograve" unicode="&#xd2;" horiz-adv-x="1632" 
d="M811 1327q-245 0 -418 -178.5t-173 -431.5t173 -431.5t418 -178.5t417.5 178.5t172.5 431.5t-172.5 431.5t-417.5 178.5zM1560 717q0 -312 -218 -531.5t-526 -219.5t-526 219.5t-218 531.5t218 531.5t526 219.5t526 -219.5t218 -531.5zM734 1892l225 -358h-96l-332 358
h203z" />
    <glyph glyph-name="Oacute" unicode="&#xd3;" horiz-adv-x="1632" 
d="M811 1327q-245 0 -418 -178.5t-173 -431.5t173 -431.5t418 -178.5t417.5 178.5t172.5 431.5t-172.5 431.5t-417.5 178.5zM1560 717q0 -312 -218 -531.5t-526 -219.5t-526 219.5t-218 531.5t218 531.5t526 219.5t526 -219.5t218 -531.5zM1101 1892l-332 -358h-96l225 358
h203z" />
    <glyph glyph-name="Ocircumflex" unicode="&#xd4;" horiz-adv-x="1632" 
d="M811 1327q-245 0 -418 -178.5t-173 -431.5t173 -431.5t418 -178.5t417.5 178.5t172.5 431.5t-172.5 431.5t-417.5 178.5zM1560 717q0 -312 -218 -531.5t-526 -219.5t-526 219.5t-218 531.5t218 531.5t526 219.5t526 -219.5t218 -531.5zM817 1892l303 -260v-98l-304 179
l-303 -179v98z" />
    <glyph glyph-name="Otilde" unicode="&#xd5;" horiz-adv-x="1632" 
d="M811 1327q-245 0 -418 -178.5t-173 -431.5t173 -431.5t418 -178.5t417.5 178.5t172.5 431.5t-172.5 431.5t-417.5 178.5zM1560 717q0 -312 -218 -531.5t-526 -219.5t-526 219.5t-218 531.5t218 531.5t526 219.5t526 -219.5t218 -531.5zM700 1819q51 0 127.5 -40
t119.5 -40q95 0 159 80l35 -40q-105 -172 -205 -172q-54 1 -129 38.5t-132 37.5q-81 0 -153 -76l-31 48q104 164 209 164z" />
    <glyph glyph-name="Odieresis" unicode="&#xd6;" horiz-adv-x="1632" 
d="M811 1327q-245 0 -418 -178.5t-173 -431.5t173 -431.5t418 -178.5t417.5 178.5t172.5 431.5t-172.5 431.5t-417.5 178.5zM1560 717q0 -312 -218 -531.5t-526 -219.5t-526 219.5t-218 531.5t218 531.5t526 219.5t526 -219.5t218 -531.5zM980 1586l-127 128l127 127
l128 -127zM651 1586l-127 128l127 127l128 -127z" />
    <glyph glyph-name="multiply" unicode="&#xd7;" horiz-adv-x="1227" 
d="M614 600l287 287l90 -90l-288 -287l288 -287l-90 -89l-287 287l-287 -287l-90 89l288 287l-288 287l90 90z" />
    <glyph glyph-name="Oslash" unicode="&#xd8;" horiz-adv-x="1632" 
d="M1186 1372q83 -50 157 -123q217 -220 217 -532t-218 -531.5t-526 -219.5q-143 0 -267 48l-110 -235l-104 40l114 242q-85 50 -158 125q-219 219 -219 531t218 531.5t526 219.5q143 0 266 -47l105 224l10 11l102 -43zM510 193l511 1098q-95 36 -205 36q-244 0 -417 -178.5
t-173 -431.5t173 -432q52 -54 111 -92zM1123 1240l-513 -1097q95 -36 206 -36q245 0 418 178.5t173 431.5t-173 432q-52 53 -111 91z" />
    <glyph glyph-name="Ugrave" unicode="&#xd9;" horiz-adv-x="1278" 
d="M256 1470v-986q0 -216 113.5 -297t269.5 -81q200 0 291.5 109t91.5 244v975l148 36v-957q0 -325 -168 -437t-374 -112q-260 0 -390 127.5t-130 349.5v993zM557 1892l225 -358h-96l-332 358h203z" />
    <glyph glyph-name="Uacute" unicode="&#xda;" horiz-adv-x="1278" 
d="M256 1470v-986q0 -216 113.5 -297t269.5 -81q200 0 291.5 109t91.5 244v975l148 36v-957q0 -325 -168 -437t-374 -112q-260 0 -390 127.5t-130 349.5v993zM924 1892l-332 -358h-96l225 358h203z" />
    <glyph glyph-name="Ucircumflex" unicode="&#xdb;" horiz-adv-x="1278" 
d="M256 1470v-986q0 -216 113.5 -297t269.5 -81q200 0 291.5 109t91.5 244v975l148 36v-957q0 -325 -168 -437t-374 -112q-260 0 -390 127.5t-130 349.5v993zM640 1892l303 -260v-98l-304 179l-303 -179v98z" />
    <glyph glyph-name="Udieresis" unicode="&#xdc;" horiz-adv-x="1278" 
d="M256 1470v-986q0 -216 113.5 -297t269.5 -81q200 0 291.5 109t91.5 244v975l148 36v-957q0 -325 -168 -437t-374 -112q-260 0 -390 127.5t-130 349.5v993zM803 1586l-127 128l127 127l128 -127zM474 1586l-127 128l127 127l128 -127z" />
    <glyph glyph-name="Yacute" unicode="&#xdd;" horiz-adv-x="1145" 
d="M166 1470l426 -766l394 766l141 -36l-748 -1470l-130 36l258 535l-489 899zM858 1892l-332 -358h-96l225 358h203z" />
    <glyph glyph-name="Thorn" unicode="&#xde;" horiz-adv-x="978" 
d="M260 1140v-685h184q118 0 216 91t98 254q0 138 -98 239t-216 101h-184zM260 1284h184q172 0 317.5 -140t145.5 -346q0 -243 -145.5 -365t-317.5 -122h-184v-311l-152 -36v1470l152 36v-186z" />
    <glyph glyph-name="germandbls" unicode="&#xdf;" horiz-adv-x="1141" 
d="M560 1463q161 0 277.5 -118.5t116.5 -282.5q0 -224 -197 -303q312 -119 312 -362q0 -178 -124.5 -305.5t-301.5 -127.5q-216 0 -343 184v-148l-130 -36v748h-152l36 108h116v213q0 179 115.5 304.5t274.5 125.5zM300 1080v-690q0 -125 104.5 -201.5t242.5 -76.5
q121 0 199.5 82t78.5 203q0 127 -104 221t-258 94h-83v108q167 0 250 62.5t83 186.5q0 103 -78 181.5t-179 78.5q-126 0 -191 -85t-65 -164z" />
    <glyph glyph-name="agrave" unicode="&#xe0;" horiz-adv-x="946" 
d="M502 1057q157 0 255.5 -98.5t98.5 -255.5v-703l-138 -27v130q-40 -56 -115 -96.5t-159 -40.5q-175 0 -282.5 110.5t-107.5 261.5q0 176 109 279.5t267 103.5q162 0 288 -112v122q0 92 -63 147.5t-167 55.5q-199 0 -340 -87l51 159q166 51 303 51zM188 338
q0 -111 74.5 -176.5t203.5 -65.5q122 0 185.5 70t63.5 172q0 127 -66 191.5t-194 64.5q-123 0 -195 -74t-72 -182zM375 1478l225 -358h-96l-332 358h203z" />
    <glyph glyph-name="aacute" unicode="&#xe1;" horiz-adv-x="946" 
d="M502 1057q157 0 255.5 -98.5t98.5 -255.5v-703l-138 -27v130q-40 -56 -115 -96.5t-159 -40.5q-175 0 -282.5 110.5t-107.5 261.5q0 176 109 279.5t267 103.5q162 0 288 -112v122q0 92 -63 147.5t-167 55.5q-199 0 -340 -87l51 159q166 51 303 51zM188 338
q0 -111 74.5 -176.5t203.5 -65.5q122 0 185.5 70t63.5 172q0 127 -66 191.5t-194 64.5q-123 0 -195 -74t-72 -182zM740 1478l-332 -358h-96l225 358h203z" />
    <glyph glyph-name="acircumflex" unicode="&#xe2;" horiz-adv-x="946" 
d="M502 1057q157 0 255.5 -98.5t98.5 -255.5v-703l-138 -27v130q-40 -56 -115 -96.5t-159 -40.5q-175 0 -282.5 110.5t-107.5 261.5q0 176 109 279.5t267 103.5q162 0 288 -112v122q0 92 -63 147.5t-167 55.5q-199 0 -340 -87l51 159q166 51 303 51zM188 338
q0 -111 74.5 -176.5t203.5 -65.5q122 0 185.5 70t63.5 172q0 127 -66 191.5t-194 64.5q-123 0 -195 -74t-72 -182zM458 1478l303 -260v-98l-304 179l-303 -179v98z" />
    <glyph glyph-name="atilde" unicode="&#xe3;" horiz-adv-x="946" 
d="M502 1057q157 0 255.5 -98.5t98.5 -255.5v-703l-138 -27v130q-40 -56 -115 -96.5t-159 -40.5q-175 0 -282.5 110.5t-107.5 261.5q0 176 109 279.5t267 103.5q162 0 288 -112v122q0 92 -63 147.5t-167 55.5q-199 0 -340 -87l51 159q166 51 303 51zM188 338
q0 -111 74.5 -176.5t203.5 -65.5q122 0 185.5 70t63.5 172q0 127 -66 191.5t-194 64.5q-123 0 -195 -74t-72 -182zM341 1405q51 0 127.5 -40t119.5 -40q95 0 159 80l35 -40q-105 -172 -205 -172q-54 1 -129 38.5t-132 37.5q-81 0 -153 -76l-31 48q104 164 209 164z" />
    <glyph glyph-name="adieresis" unicode="&#xe4;" horiz-adv-x="946" 
d="M502 1057q157 0 255.5 -98.5t98.5 -255.5v-703l-138 -27v130q-40 -56 -115 -96.5t-159 -40.5q-175 0 -282.5 110.5t-107.5 261.5q0 176 109 279.5t267 103.5q162 0 288 -112v122q0 92 -63 147.5t-167 55.5q-199 0 -340 -87l51 159q166 51 303 51zM188 338
q0 -111 74.5 -176.5t203.5 -65.5q122 0 185.5 70t63.5 172q0 127 -66 191.5t-194 64.5q-123 0 -195 -74t-72 -182zM621 1172l-127 128l127 127l128 -127zM292 1172l-127 128l127 127l128 -127z" />
    <glyph glyph-name="aring" unicode="&#xe5;" horiz-adv-x="946" 
d="M502 1057q157 0 255.5 -98.5t98.5 -255.5v-703l-138 -27v130q-40 -56 -115 -96.5t-159 -40.5q-175 0 -282.5 110.5t-107.5 261.5q0 176 109 279.5t267 103.5q162 0 288 -112v122q0 92 -63 147.5t-167 55.5q-199 0 -340 -87l51 159q166 51 303 51zM188 338
q0 -111 74.5 -176.5t203.5 -65.5q122 0 185.5 70t63.5 172q0 127 -66 191.5t-194 64.5q-123 0 -195 -74t-72 -182zM636 1299q0 -74 -52.5 -126.5t-126.5 -52.5t-126.5 52.5t-52.5 126.5t52.5 126.5t126.5 52.5t126.5 -52.5t52.5 -126.5zM457 1382q-35 0 -59 -24t-24 -59
q0 -34 24 -58.5t59 -24.5t59 24.5t24 58.5q0 35 -24 59t-59 24z" />
    <glyph glyph-name="ae" unicode="&#xe6;" horiz-adv-x="1729" 
d="M188 338q0 -111 74.5 -176.5t203.5 -65.5q122 0 193 70t71 172q0 127 -73.5 191.5t-201.5 64.5q-123 0 -195 -74t-72 -182zM866 457l639 394q-34 45 -106 67.5t-153 22.5q-205 0 -311 -154q-79 -114 -79 -240q0 -44 10 -90zM824 171q-65 -107 -165.5 -156t-214.5 -49
q-175 0 -282.5 110.5t-107.5 261.5q0 176 109 279.5t267 103.5q162 0 285 -112v122q0 92 -61.5 147.5t-165.5 55.5q-199 0 -340 -87l51 159q166 51 303 51q157 0 256 -98q47 -48 72 -109q23 30 52 58q161 156 392 156q154 0 266.5 -72.5t152.5 -184.5l-788 -477
q43 -113 147.5 -172t206.5 -59q186 0 416 188v-166q-82 -70 -187 -112.5t-218 -42.5q-254 0 -446 205z" />
    <glyph glyph-name="ccedilla" unicode="&#xe7;" horiz-adv-x="972" 
d="M534 -30q-228 26 -386 230q-94 143 -94 307v15q0 259 221 433q145 102 310 102q190 0 369 -127l-73 -94h-7q-128 94 -282 94q-166 0 -274 -105q-127 -132 -127 -321q0 -203 177 -340q97 -65 206 -65h15q160 0 278 101h7l76 -93q-154 -136 -339 -140q-16 -17 -16 -44h33
q83 0 126.5 -47.5t43.5 -113.5q0 -56 -44.5 -112t-125.5 -56q-94 0 -140 59l54 58q36 -42 86 -42q45 0 67 27.5t22 63.5q0 44 -23.5 69.5t-65.5 25.5q-41 0 -75 -18l-32 22z" />
    <glyph glyph-name="egrave" unicode="&#xe8;" horiz-adv-x="1062" 
d="M607 1064q154 0 266.5 -72.5t152.5 -184.5l-788 -477q43 -113 147.5 -172t206.5 -59q186 0 416 188v-166q-82 -70 -187 -112.5t-218 -42.5q-254 0 -401.5 169.5t-147.5 393.5q0 222 161 378.5t392 156.5zM199 457l639 394q-34 45 -106 67.5t-153 22.5q-205 0 -311 -154
q-79 -114 -79 -240q0 -44 10 -90zM460 1478l225 -358h-96l-332 358h203z" />
    <glyph glyph-name="eacute" unicode="&#xe9;" horiz-adv-x="1062" 
d="M607 1064q154 0 266.5 -72.5t152.5 -184.5l-788 -477q43 -113 147.5 -172t206.5 -59q186 0 416 188v-166q-82 -70 -187 -112.5t-218 -42.5q-254 0 -401.5 169.5t-147.5 393.5q0 222 161 378.5t392 156.5zM199 457l639 394q-34 45 -106 67.5t-153 22.5q-205 0 -311 -154
q-79 -114 -79 -240q0 -44 10 -90zM825 1478l-332 -358h-96l225 358h203z" />
    <glyph glyph-name="ecircumflex" unicode="&#xea;" horiz-adv-x="1062" 
d="M607 1064q154 0 266.5 -72.5t152.5 -184.5l-788 -477q43 -113 147.5 -172t206.5 -59q186 0 416 188v-166q-82 -70 -187 -112.5t-218 -42.5q-254 0 -401.5 169.5t-147.5 393.5q0 222 161 378.5t392 156.5zM199 457l639 394q-34 45 -106 67.5t-153 22.5q-205 0 -311 -154
q-79 -114 -79 -240q0 -44 10 -90zM541 1478l303 -260v-98l-304 179l-303 -179v98z" />
    <glyph glyph-name="edieresis" unicode="&#xeb;" horiz-adv-x="1062" 
d="M607 1064q154 0 266.5 -72.5t152.5 -184.5l-788 -477q43 -113 147.5 -172t206.5 -59q186 0 416 188v-166q-82 -70 -187 -112.5t-218 -42.5q-254 0 -401.5 169.5t-147.5 393.5q0 222 161 378.5t392 156.5zM199 457l639 394q-34 45 -106 67.5t-153 22.5q-205 0 -311 -154
q-79 -114 -79 -240q0 -44 10 -90zM704 1172l-127 128l127 127l128 -127zM375 1172l-127 128l127 127l128 -127z" />
    <glyph glyph-name="igrave" unicode="&#xec;" horiz-adv-x="491" 
d="M315 1057v-1057l-138 -36v1056zM166 1478l225 -358h-96l-332 358h203z" />
    <glyph glyph-name="iacute" unicode="&#xed;" horiz-adv-x="491" 
d="M315 1057v-1057l-138 -36v1056zM533 1478l-332 -358h-96l225 358h203z" />
    <glyph glyph-name="icircumflex" unicode="&#xee;" horiz-adv-x="491" 
d="M315 1057v-1057l-138 -36v1056zM249 1478l303 -260v-98l-304 179l-303 -179v98z" />
    <glyph glyph-name="idieresis" unicode="&#xef;" horiz-adv-x="491" 
d="M315 1057v-1057l-138 -36v1056zM412 1172l-127 128l127 127l128 -127zM83 1172l-127 128l127 127l128 -127z" />
    <glyph glyph-name="eth" unicode="&#xf0;" horiz-adv-x="1229" 
d="M965 477q0 157 -111 268t-268 111t-268 -111t-111 -268t111 -268t268 -111t268 111t111 268zM732 1239q371 -417 371 -762q0 -212 -152 -362.5t-365 -150.5t-364.5 150.5t-151.5 362.5q0 209 151.5 359t364.5 150q108 0 238 -72q-84 130 -207 258l-262 -152l-54 94
l236 137q-95 90 -207 179l112 79q85 -67 212 -191l272 158l54 -94z" />
    <glyph glyph-name="ntilde" unicode="&#xf1;" horiz-adv-x="1004" 
d="M542 1057q180 0 276 -114t96 -267v-676l-137 -36v712q0 137 -65 195t-195 58q-110 0 -199.5 -104t-89.5 -261v-564l-138 -36v1056l138 36v-177q142 178 314 178zM388 1405q51 0 127.5 -40t119.5 -40q95 0 159 80l35 -40q-105 -172 -205 -172q-54 1 -129 38.5t-132 37.5
q-81 0 -153 -76l-31 48q104 164 209 164z" />
    <glyph glyph-name="ograve" unicode="&#xf2;" horiz-adv-x="1199" 
d="M1145 509q0 -225 -160 -384.5t-385 -159.5q-226 0 -386 159.5t-160 384.5q0 226 160 386t386 160q225 0 385 -160t160 -386zM600 923q-171 0 -291.5 -121t-120.5 -293q0 -171 120.5 -292t291.5 -121q170 0 290.5 121t120.5 292q0 172 -120.5 293t-290.5 121zM517 1478
l225 -358h-96l-332 358h203z" />
    <glyph glyph-name="oacute" unicode="&#xf3;" horiz-adv-x="1199" 
d="M1145 509q0 -225 -160 -384.5t-385 -159.5q-226 0 -386 159.5t-160 384.5q0 226 160 386t386 160q225 0 385 -160t160 -386zM600 923q-171 0 -291.5 -121t-120.5 -293q0 -171 120.5 -292t291.5 -121q170 0 290.5 121t120.5 292q0 172 -120.5 293t-290.5 121zM885 1478
l-332 -358h-96l225 358h203z" />
    <glyph glyph-name="ocircumflex" unicode="&#xf4;" horiz-adv-x="1199" 
d="M1145 509q0 -225 -160 -384.5t-385 -159.5q-226 0 -386 159.5t-160 384.5q0 226 160 386t386 160q225 0 385 -160t160 -386zM600 923q-171 0 -291.5 -121t-120.5 -293q0 -171 120.5 -292t291.5 -121q170 0 290.5 121t120.5 292q0 172 -120.5 293t-290.5 121zM600 1478
l303 -260v-98l-304 179l-303 -179v98z" />
    <glyph glyph-name="otilde" unicode="&#xf5;" horiz-adv-x="1199" 
d="M1145 509q0 -225 -160 -384.5t-385 -159.5q-226 0 -386 159.5t-160 384.5q0 226 160 386t386 160q225 0 385 -160t160 -386zM600 923q-171 0 -291.5 -121t-120.5 -293q0 -171 120.5 -292t291.5 -121q170 0 290.5 121t120.5 292q0 172 -120.5 293t-290.5 121zM484 1405
q51 0 127.5 -40t119.5 -40q95 0 159 80l35 -40q-105 -172 -205 -172q-54 1 -129 38.5t-132 37.5q-81 0 -153 -76l-31 48q104 164 209 164z" />
    <glyph glyph-name="odieresis" unicode="&#xf6;" horiz-adv-x="1199" 
d="M1145 509q0 -225 -160 -384.5t-385 -159.5q-226 0 -386 159.5t-160 384.5q0 226 160 386t386 160q225 0 385 -160t160 -386zM600 923q-171 0 -291.5 -121t-120.5 -293q0 -171 120.5 -292t291.5 -121q170 0 290.5 121t120.5 292q0 172 -120.5 293t-290.5 121zM764 1172
l-127 128l127 127l128 -127zM435 1172l-127 128l127 127l128 -127z" />
    <glyph glyph-name="divide" unicode="&#xf7;" horiz-adv-x="1228" 
d="M1084 573v-126h-940v126h940zM614 97l-115 132l115 131l116 -131zM614 661l-115 131l115 132l116 -132z" />
    <glyph glyph-name="oslash" unicode="&#xf8;" horiz-adv-x="1199" 
d="M714 908q-54 15 -114 15q-171 0 -291.5 -121t-120.5 -293q0 -171 121 -292q27 -27 57 -49zM461 118q65 -22 139 -22q170 0 290.5 121t120.5 292q0 172 -120 293q-36 36 -76 61zM871 983q61 -35 114 -88q160 -160 160 -386q0 -225 -160 -384.5t-385 -159.5q-105 0 -195 35
l-105 -221l-103 33l111 236q-50 31 -94 77q-160 159 -160 384q0 226 160 386t386 160q91 0 171 -26l127 268l104 -36z" />
    <glyph glyph-name="ugrave" unicode="&#xf9;" horiz-adv-x="997" 
d="M907 1056v-1056l-138 -36v173q-130 -173 -296 -173q-172 0 -277.5 119t-105.5 260v677l138 36v-698q0 -128 74 -199t182 -71q119 0 202 110t83 268v554zM418 1478l225 -358h-96l-332 358h203z" />
    <glyph glyph-name="uacute" unicode="&#xfa;" horiz-adv-x="997" 
d="M907 1056v-1056l-138 -36v173q-130 -173 -296 -173q-172 0 -277.5 119t-105.5 260v677l138 36v-698q0 -128 74 -199t182 -71q119 0 202 110t83 268v554zM784 1478l-332 -358h-96l225 358h203z" />
    <glyph glyph-name="ucircumflex" unicode="&#xfb;" horiz-adv-x="997" 
d="M907 1056v-1056l-138 -36v173q-130 -173 -296 -173q-172 0 -277.5 119t-105.5 260v677l138 36v-698q0 -128 74 -199t182 -71q119 0 202 110t83 268v554zM501 1478l303 -260v-98l-304 179l-303 -179v98z" />
    <glyph glyph-name="udieresis" unicode="&#xfc;" horiz-adv-x="997" 
d="M907 1056v-1056l-138 -36v173q-130 -173 -296 -173q-172 0 -277.5 119t-105.5 260v677l138 36v-698q0 -128 74 -199t182 -71q119 0 202 110t83 268v554zM665 1172l-127 128l127 127l128 -127zM336 1172l-127 128l127 127l128 -127z" />
    <glyph glyph-name="yacute" unicode="&#xfd;" horiz-adv-x="1090" 
d="M165 1070l412 -736l361 736l134 -50l-714 -1426l-124 62l264 519l-480 849zM830 1478l-332 -358h-96l225 358h203z" />
    <glyph glyph-name="thorn" unicode="&#xfe;" horiz-adv-x="1246" 
d="M654 940q-169 0 -297.5 -123.5t-128.5 -299.5q0 -175 128.5 -298.5t297.5 -123.5q170 0 289 123.5t119 298.5q0 176 -119 299.5t-289 123.5zM228 840q193 217 422 217q256 0 399 -156t143 -361q0 -275 -172.5 -424.5t-383.5 -149.5q-226 0 -408 202v-538l-138 -36v1840
l138 36v-630z" />
    <glyph glyph-name="ydieresis" unicode="&#xff;" horiz-adv-x="1090" 
d="M165 1070l412 -736l361 736l134 -50l-714 -1426l-124 62l264 519l-480 849zM709 1172l-127 128l127 127l128 -127zM380 1172l-127 128l127 127l128 -127z" />
    <glyph glyph-name="Amacron" unicode="&#x100;" horiz-adv-x="1468" 
d="M1450 1l-141 -37l-293 586h-564l-293 -586l-141 37l716 1476zM516 683h435l-217 449zM454 1649v128h560v-128h-560z" />
    <glyph glyph-name="amacron" unicode="&#x101;" horiz-adv-x="946" 
d="M502 1057q157 0 255.5 -98.5t98.5 -255.5v-703l-138 -27v130q-40 -56 -115 -96.5t-159 -40.5q-175 0 -282.5 110.5t-107.5 261.5q0 176 109 279.5t267 103.5q162 0 288 -112v122q0 92 -63 147.5t-167 55.5q-199 0 -340 -87l51 159q166 51 303 51zM188 338
q0 -111 74.5 -176.5t203.5 -65.5q122 0 185.5 70t63.5 172q0 127 -66 191.5t-194 64.5q-123 0 -195 -74t-72 -182zM177 1235v128h560v-128h-560z" />
    <glyph glyph-name="Abreve" unicode="&#x102;" horiz-adv-x="1468" 
d="M1450 1l-141 -37l-293 586h-564l-293 -586l-141 37l716 1476zM516 683h435l-217 449zM397 1856h100q50 -155 237 -155q188 0 238 155h100q0 -127 -94.5 -206.5t-242.5 -79.5q-149 0 -243.5 79.5t-94.5 206.5z" />
    <glyph glyph-name="abreve" unicode="&#x103;" horiz-adv-x="946" 
d="M502 1057q157 0 255.5 -98.5t98.5 -255.5v-703l-138 -27v130q-40 -56 -115 -96.5t-159 -40.5q-175 0 -282.5 110.5t-107.5 261.5q0 176 109 279.5t267 103.5q162 0 288 -112v122q0 92 -63 147.5t-167 55.5q-199 0 -340 -87l51 159q166 51 303 51zM188 338
q0 -111 74.5 -176.5t203.5 -65.5q122 0 185.5 70t63.5 172q0 127 -66 191.5t-194 64.5q-123 0 -195 -74t-72 -182zM120 1442h100q50 -155 237 -155q188 0 238 155h100q0 -127 -94.5 -206.5t-242.5 -79.5q-149 0 -243.5 79.5t-94.5 206.5z" />
    <glyph glyph-name="Aogonek" unicode="&#x104;" horiz-adv-x="1468" 
d="M734 1132l-217 -449h435zM1303 -41l-287 591h-564l-293 -604l-141 55l716 1476l716 -1476q-158 -106 -158 -232q0 -36 22.5 -63t66.5 -27q50 0 86 32l54 -58q-76 -60 -170 -60q-71 0 -120.5 51.5t-49.5 127.5q0 96 122 187z" />
    <glyph glyph-name="aogonek" unicode="&#x105;" horiz-adv-x="946" 
d="M188 338q0 -189 220 -239l58 -3q179 0 249 173q7 6 15 87q0 137 -152 213q-53 25 -123 25q-211 0 -264 -209zM730 -26v129h-4q-48 -56 -119 -98q-79 -39 -163 -39q-275 0 -375 260q-15 70 -15 112v29q0 215 239 332q81 22 126 22h11q162 0 285 -112v122q0 167 -141 192
l-86 11q-139 0 -325 -83l-11 -8l-4 4l51 159q166 51 303 51q261 0 332 -185q22 -65 22 -169v-702l-1 -1q-153 -103 -153 -229q0 -36 22.5 -63t66.5 -27q50 0 86 32l54 -58q-76 -60 -170 -60q-71 0 -120.5 51.5t-49.5 127.5q0 102 139 200z" />
    <glyph glyph-name="Cacute" unicode="&#x106;" horiz-adv-x="1188" 
d="M827 1461q201 0 318 -70l25 -170q-156 96 -383 96q-205 0 -380.5 -174t-175.5 -449q0 -252 171 -419t407 -167q203 0 350 98l-36 -181q-142 -61 -299 -61q-313 0 -532.5 196.5t-219.5 518.5q0 352 234.5 567t520.5 215zM1006 1892l-332 -358h-96l225 358h203z" />
    <glyph glyph-name="cacute" unicode="&#x107;" horiz-adv-x="972" 
d="M585 1057q190 0 369 -127l-80 -94q-128 94 -282 94q-156 0 -278.5 -123.5t-122.5 -302.5q0 -163 122 -284t261 -121q175 0 300 101l76 -93q-158 -141 -350 -141q-252 0 -399 173.5t-147 382.5q0 229 168 382t363 153zM889 1478l-332 -358h-96l225 358h203z" />
    <glyph glyph-name="Ccircumflex" unicode="&#x108;" horiz-adv-x="1188" 
d="M827 1461q201 0 318 -70l25 -170q-156 96 -383 96q-205 0 -380.5 -174t-175.5 -449q0 -252 171 -419t407 -167q203 0 350 98l-36 -181q-142 -61 -299 -61q-313 0 -532.5 196.5t-219.5 518.5q0 352 234.5 567t520.5 215zM772 1892l303 -260v-98l-304 179l-303 -179v98z
" />
    <glyph glyph-name="ccircumflex" unicode="&#x109;" horiz-adv-x="972" 
d="M585 1057q190 0 369 -127l-80 -94q-128 94 -282 94q-156 0 -278.5 -123.5t-122.5 -302.5q0 -163 122 -284t261 -121q175 0 300 101l76 -93q-158 -141 -350 -141q-252 0 -399 173.5t-147 382.5q0 229 168 382t363 153zM605 1478l303 -260v-98l-304 179l-303 -179v98z" />
    <glyph glyph-name="Cdotaccent" unicode="&#x10a;" horiz-adv-x="1188" 
d="M827 1461q201 0 318 -70l25 -170q-156 96 -383 96q-205 0 -380.5 -174t-175.5 -449q0 -252 171 -419t407 -167q203 0 350 98l-36 -181q-142 -61 -299 -61q-313 0 -532.5 196.5t-219.5 518.5q0 352 234.5 567t520.5 215zM771 1585l-127 128l127 127l128 -127z" />
    <glyph glyph-name="cdotaccent" unicode="&#x10b;" horiz-adv-x="972" 
d="M585 1057q190 0 369 -127l-80 -94q-128 94 -282 94q-156 0 -278.5 -123.5t-122.5 -302.5q0 -163 122 -284t261 -121q175 0 300 101l76 -93q-158 -141 -350 -141q-252 0 -399 173.5t-147 382.5q0 229 168 382t363 153zM604 1171l-127 128l127 127l128 -127z" />
    <glyph glyph-name="Ccaron" unicode="&#x10c;" horiz-adv-x="1188" 
d="M827 1461q201 0 318 -70l25 -170q-156 96 -383 96q-205 0 -380.5 -174t-175.5 -449q0 -252 171 -419t407 -167q203 0 350 98l-36 -181q-142 -61 -299 -61q-313 0 -532.5 196.5t-219.5 518.5q0 352 234.5 567t520.5 215zM518 1794v98l303 -179l304 179v-98l-303 -260z" />
    <glyph glyph-name="ccaron" unicode="&#x10d;" horiz-adv-x="972" 
d="M585 1057q190 0 369 -127l-80 -94q-128 94 -282 94q-156 0 -278.5 -123.5t-122.5 -302.5q0 -163 122 -284t261 -121q175 0 300 101l76 -93q-158 -141 -350 -141q-252 0 -399 173.5t-147 382.5q0 229 168 382t363 153zM301 1380v98l303 -179l304 179v-98l-303 -260z" />
    <glyph glyph-name="Dcaron" unicode="&#x10e;" horiz-adv-x="1246" 
d="M108 1434h351q356 0 535.5 -207t179.5 -479q-4 -380 -224 -564t-517 -184h-325v1434zM256 1289v-1145h163q236 0 414 156t178 412q0 257 -152.5 417t-334.5 160h-268zM190 1794v98l303 -179l304 179v-98l-303 -260z" />
    <glyph glyph-name="dcaron" unicode="&#x10f;" horiz-adv-x="1585" 
d="M993 136q-175 -170 -400 -170q-142 0 -271 72q-268 182 -268 469q0 184 105 326q178 216 444 216q115 0 201 -45.5t182 -145.5v576l141 36v-1470l-134 -30v166zM981 502q0 176 -110 289t-276 113q-167 0 -285 -118t-118 -284q0 -167 118 -285t285 -118q166 0 276 104.5
t110 298.5zM1393 1478q115 -61 115 -134q0 -50 -101 -158l-61 -66l-69 41q93 96 109 158q0 49 -65 74z" />
    <glyph glyph-name="Dcroat" unicode="&#x110;" horiz-adv-x="1246" 
d="M256 645v-501h163q236 0 414 156t178 412q0 257 -152.5 417t-334.5 160h-268v-500h286v-144h-286zM108 789v645h351q356 0 535.5 -207t179.5 -479q-4 -380 -224 -564t-517 -184h-325v645h-108v144h108z" />
    <glyph glyph-name="dcroat" unicode="&#x111;" horiz-adv-x="1217" 
d="M981 502q0 176 -110 289t-276 113q-167 0 -285 -118t-118 -284q0 -167 118 -285t285 -118q166 0 276 104.5t110 298.5zM1132 1171v-1171l-139 -36v172q-175 -170 -400 -170q-142 0 -271 72q-268 182 -268 469q0 184 105 326q178 216 444 216q115 0 201 -45.5t186 -145.5
v313h-387v80h387v183l142 36v-219h96v-80h-96z" />
    <glyph glyph-name="Emacron" unicode="&#x112;" horiz-adv-x="964" 
d="M108 1434h755l47 -145h-654v-494h553v-145h-553v-506h690l-39 -144h-799v1434zM247 1649v128h560v-128h-560z" />
    <glyph glyph-name="emacron" unicode="&#x113;" horiz-adv-x="1062" 
d="M607 1064q154 0 266.5 -72.5t152.5 -184.5l-788 -477q43 -113 147.5 -172t206.5 -59q186 0 416 188v-166q-82 -70 -187 -112.5t-218 -42.5q-254 0 -401.5 169.5t-147.5 393.5q0 222 161 378.5t392 156.5zM199 457l639 394q-34 45 -106 67.5t-153 22.5q-205 0 -311 -154
q-79 -114 -79 -240q0 -44 10 -90zM260 1235v128h560v-128h-560z" />
    <glyph glyph-name="Ebreve" unicode="&#x114;" horiz-adv-x="964" 
d="M108 1434h755l47 -145h-654v-494h553v-145h-553v-506h690l-39 -144h-799v1434zM190 1856h100q50 -155 237 -155q188 0 238 155h100q0 -127 -94.5 -206.5t-242.5 -79.5q-149 0 -243.5 79.5t-94.5 206.5z" />
    <glyph glyph-name="ebreve" unicode="&#x115;" horiz-adv-x="1062" 
d="M607 1064q154 0 266.5 -72.5t152.5 -184.5l-788 -477q43 -113 147.5 -172t206.5 -59q186 0 416 188v-166q-82 -70 -187 -112.5t-218 -42.5q-254 0 -401.5 169.5t-147.5 393.5q0 222 161 378.5t392 156.5zM199 457l639 394q-34 45 -106 67.5t-153 22.5q-205 0 -311 -154
q-79 -114 -79 -240q0 -44 10 -90zM203 1442h100q50 -155 237 -155q188 0 238 155h100q0 -127 -94.5 -206.5t-242.5 -79.5q-149 0 -243.5 79.5t-94.5 206.5z" />
    <glyph glyph-name="Edotaccent" unicode="&#x116;" horiz-adv-x="964" 
d="M108 1434h755l47 -145h-654v-494h553v-145h-553v-506h690l-39 -144h-799v1434zM527 1585l-127 128l127 127l128 -127z" />
    <glyph glyph-name="edotaccent" unicode="&#x117;" horiz-adv-x="1062" 
d="M607 1064q154 0 266.5 -72.5t152.5 -184.5l-788 -477q43 -113 147.5 -172t206.5 -59q186 0 416 188v-166q-82 -70 -187 -112.5t-218 -42.5q-254 0 -401.5 169.5t-147.5 393.5q0 222 161 378.5t392 156.5zM199 457l639 394q-34 45 -106 67.5t-153 22.5q-205 0 -311 -154
q-79 -114 -79 -240q0 -44 10 -90zM540 1171l-127 128l127 127l128 -127z" />
    <glyph glyph-name="Eogonek" unicode="&#x118;" horiz-adv-x="964" 
d="M815 0h-707v1434h755l47 -145h-654v-494h553v-145h-553v-506h690l-39 -144q-155 -104 -155 -230q0 -36 22.5 -63t66.5 -27q50 0 86 32l54 -58q-76 -60 -170 -60q-71 0 -120.5 51.5t-49.5 127.5q0 122 174 227z" />
    <glyph glyph-name="eogonek" unicode="&#x119;" horiz-adv-x="1062" 
d="M199 457l639 394q-128 90 -259 90q-205 0 -311 -154q-79 -114 -79 -240q0 -44 10 -90zM726 -20q-60 -14 -123 -14q-254 0 -401.5 169.5t-147.5 393.5q0 222 161 378.5t392 156.5q191 0 305 -105t114 -152l-788 -477q43 -113 147.5 -172t206.5 -59q186 0 416 188v-166
q-46 -39 -100 -70q-153 -103 -153 -229q0 -36 22.5 -63t66.5 -27q50 0 86 32l54 -58q-76 -60 -170 -60q-71 0 -120.5 51.5t-49.5 127.5q0 79 82 155z" />
    <glyph glyph-name="Ecaron" unicode="&#x11a;" horiz-adv-x="964" 
d="M108 1434h755l47 -145h-654v-494h553v-145h-553v-506h690l-39 -144h-799v1434zM224 1794v98l303 -179l304 179v-98l-303 -260z" />
    <glyph glyph-name="ecaron" unicode="&#x11b;" horiz-adv-x="1062" 
d="M607 1064q154 0 266.5 -72.5t152.5 -184.5l-788 -477q43 -113 147.5 -172t206.5 -59q186 0 416 188v-166q-82 -70 -187 -112.5t-218 -42.5q-254 0 -401.5 169.5t-147.5 393.5q0 222 161 378.5t392 156.5zM199 457l639 394q-34 45 -106 67.5t-153 22.5q-205 0 -311 -154
q-79 -114 -79 -240q0 -44 10 -90zM237 1380v98l303 -179l304 179v-98l-303 -260z" />
    <glyph glyph-name="Gcircumflex" unicode="&#x11c;" horiz-adv-x="1441" 
d="M820 1470q251 0 495 -195l-91 -112q-183 148 -419 148q-279 0 -428 -190.5t-149 -426.5q0 -241 181.5 -413.5t392.5 -172.5q206 0 383 130v409h-463l47 144h564v-625q-44 -45 -195 -123.5t-336 -78.5q-295 0 -512.5 217t-217.5 541q0 311 228.5 529.5t519.5 218.5z
M803 1892l303 -260v-98l-304 179l-303 -179v98z" />
    <glyph glyph-name="gcircumflex" unicode="&#x11d;" horiz-adv-x="957" 
d="M184 692q0 -125 83 -203.5t195 -78.5q139 0 218 86t79 188q0 122 -88.5 187.5t-208.5 65.5q-104 0 -191 -66.5t-87 -178.5zM455 -272q133 0 214 86t81 187q0 125 -81 205.5t-214 80.5t-239 -91l37 169q-199 104 -199 327q0 141 113.5 253t294.5 112q125 0 251 -19
q115 0 226 62l-54 -148h-130q130 -109 130 -286q0 -214 -199 -314q199 -134 199 -351q0 -143 -121.5 -275t-301.5 -132q-227 0 -374 180l98 81q101 -127 269 -127zM499 1478l303 -260v-98l-304 179l-303 -179v98z" />
    <glyph glyph-name="Gbreve" unicode="&#x11e;" horiz-adv-x="1441" 
d="M820 1470q251 0 495 -195l-91 -112q-183 148 -419 148q-279 0 -428 -190.5t-149 -426.5q0 -241 181.5 -413.5t392.5 -172.5q206 0 383 130v409h-463l47 144h564v-625q-44 -45 -195 -123.5t-336 -78.5q-295 0 -512.5 217t-217.5 541q0 311 228.5 529.5t519.5 218.5z
M465 1856h100q50 -155 237 -155q188 0 238 155h100q0 -127 -94.5 -206.5t-242.5 -79.5q-149 0 -243.5 79.5t-94.5 206.5z" />
    <glyph glyph-name="gbreve" unicode="&#x11f;" horiz-adv-x="957" 
d="M184 692q0 -125 83 -203.5t195 -78.5q139 0 218 86t79 188q0 122 -88.5 187.5t-208.5 65.5q-104 0 -191 -66.5t-87 -178.5zM455 -272q133 0 214 86t81 187q0 125 -81 205.5t-214 80.5t-239 -91l37 169q-199 104 -199 327q0 141 113.5 253t294.5 112q125 0 251 -19
q115 0 226 62l-54 -148h-130q130 -109 130 -286q0 -214 -199 -314q199 -134 199 -351q0 -143 -121.5 -275t-301.5 -132q-227 0 -374 180l98 81q101 -127 269 -127zM161 1442h100q50 -155 237 -155q188 0 238 155h100q0 -127 -94.5 -206.5t-242.5 -79.5q-149 0 -243.5 79.5
t-94.5 206.5z" />
    <glyph glyph-name="Gdotaccent" unicode="&#x120;" horiz-adv-x="1441" 
d="M820 1470q251 0 495 -195l-91 -112q-183 148 -419 148q-279 0 -428 -190.5t-149 -426.5q0 -241 181.5 -413.5t392.5 -172.5q206 0 383 130v409h-463l47 144h564v-625q-44 -45 -195 -123.5t-336 -78.5q-295 0 -512.5 217t-217.5 541q0 311 228.5 529.5t519.5 218.5z
M802 1585l-127 128l127 127l128 -127z" />
    <glyph glyph-name="gdotaccent" unicode="&#x121;" horiz-adv-x="957" 
d="M184 692q0 -125 83 -203.5t195 -78.5q139 0 218 86t79 188q0 122 -88.5 187.5t-208.5 65.5q-104 0 -191 -66.5t-87 -178.5zM455 -272q133 0 214 86t81 187q0 125 -81 205.5t-214 80.5t-239 -91l37 169q-199 104 -199 327q0 141 113.5 253t294.5 112q125 0 251 -19
q115 0 226 62l-54 -148h-130q130 -109 130 -286q0 -214 -199 -314q199 -134 199 -351q0 -143 -121.5 -275t-301.5 -132q-227 0 -374 180l98 81q101 -127 269 -127zM496 1171l-127 128l127 127l128 -127z" />
    <glyph glyph-name="Gcommaaccent" unicode="&#x122;" horiz-adv-x="1441" 
d="M820 1470q251 0 495 -195l-91 -112q-183 148 -419 148q-279 0 -428 -190.5t-149 -426.5q0 -241 181.5 -413.5t392.5 -172.5q206 0 383 130v409h-463l47 144h564v-625q-44 -45 -195 -123.5t-336 -78.5q-295 0 -512.5 217t-217.5 541q0 311 228.5 529.5t519.5 218.5z
M856 -96l-187 -308h-119l147 291z" />
    <glyph glyph-name="gcommaaccent" unicode="&#x123;" horiz-adv-x="957" 
d="M184 692q0 -125 83 -203.5t195 -78.5q139 0 218 86t79 188q0 122 -88.5 187.5t-208.5 65.5q-104 0 -191 -66.5t-87 -178.5zM455 -272q133 0 214 86t81 187q0 125 -81 205.5t-214 80.5t-239 -91l37 169q-199 104 -199 327q0 141 113.5 253t294.5 112q125 0 251 -19
q115 0 226 62l-54 -148h-130q130 -109 130 -286q0 -214 -199 -314q199 -134 199 -351q0 -143 -121.5 -275t-301.5 -132q-227 0 -374 180l98 81q101 -127 269 -127zM496 1120q-115 62 -115 135q0 49 101 157l61 66l69 -41q-93 -95 -109 -157q0 -49 65 -75z" />
    <glyph glyph-name="Hcircumflex" unicode="&#x124;" horiz-adv-x="1351" 
d="M256 1470v-699h839v663l148 36v-1470l-148 -36v670h-839v-634l-148 -36v1470zM676 1892l303 -260v-98l-304 179l-303 -179v98z" />
    <glyph glyph-name="hcircumflex" unicode="&#x125;" horiz-adv-x="1007" 
d="M228 1470v-600q132 187 310 187q184 0 281.5 -121.5t97.5 -281.5v-654l-138 -36v661q0 146 -66 225.5t-186 79.5q-113 0 -206 -77t-93 -159v-694l-138 -36v1470zM506 1970l303 -260v-98l-304 179l-303 -179v98z" />
    <glyph glyph-name="Hbar" unicode="&#x126;" horiz-adv-x="1351" 
d="M108 1339v85l152 27v-112h827v85l156 27v-112h61v-80h-61v-1269l-156 -27v661h-827v-634l-152 -27v1296h-61v80h61zM260 1259v-498h827v498h-827z" />
    <glyph glyph-name="hbar" unicode="&#x127;" horiz-adv-x="1007" 
d="M90 1339v95l138 36v-131h384v-80h-384v-389q132 187 310 187q184 0 281.5 -121.5t97.5 -281.5v-654l-137 -36v661q0 146 -66.5 225.5t-186.5 79.5q-113 0 -206 -77t-93 -159v-694l-138 -36v1295h-90v80h90z" />
    <glyph glyph-name="Itilde" unicode="&#x128;" horiz-adv-x="582" 
d="M365 1470v-1470l-148 -36v1470zM177 1819q51 0 127.5 -40t119.5 -40q95 0 159 80l35 -40q-105 -172 -205 -172q-54 1 -129 38.5t-132 37.5q-81 0 -153 -76l-31 48q104 164 209 164z" />
    <glyph glyph-name="itilde" unicode="&#x129;" horiz-adv-x="491" 
d="M315 1057v-1057l-138 -36v1056zM132 1405q51 0 127.5 -40t119.5 -40q95 0 159 80l35 -40q-105 -172 -205 -172q-54 1 -129 38.5t-132 37.5q-81 0 -153 -76l-31 48q104 164 209 164z" />
    <glyph glyph-name="Imacron" unicode="&#x12a;" horiz-adv-x="582" 
d="M365 1470v-1470l-148 -36v1470zM13 1649v128h560v-128h-560z" />
    <glyph glyph-name="imacron" unicode="&#x12b;" horiz-adv-x="491" 
d="M315 1057v-1057l-138 -36v1056zM-32 1235v128h560v-128h-560z" />
    <glyph glyph-name="Ibreve" unicode="&#x12c;" horiz-adv-x="582" 
d="M365 1470v-1470l-148 -36v1470zM-44 1856h100q50 -155 237 -155q188 0 238 155h100q0 -127 -94.5 -206.5t-242.5 -79.5q-149 0 -243.5 79.5t-94.5 206.5z" />
    <glyph glyph-name="ibreve" unicode="&#x12d;" horiz-adv-x="491" 
d="M315 1057v-1057l-138 -36v1056zM-89 1442h100q50 -155 237 -155q188 0 238 155h100q0 -127 -94.5 -206.5t-242.5 -79.5q-149 0 -243.5 79.5t-94.5 206.5z" />
    <glyph glyph-name="Iogonek" unicode="&#x12e;" horiz-adv-x="582" 
d="M217 -27v1461l148 27v-1461l-30 -5q-147 -102 -147 -225q0 -36 22.5 -63t66.5 -27q50 0 86 32l54 -58q-76 -60 -170 -60q-71 0 -120.5 51.5t-49.5 127.5q0 102 140 200z" />
    <glyph glyph-name="iogonek" unicode="&#x12f;" horiz-adv-x="491" 
d="M246 1262l-102 116l102 116l101 -116zM177 -34v1054l137 37v-1057q-155 -104 -155 -230q0 -36 22.5 -63t66.5 -27q50 0 86 32l54 -58q-76 -60 -170 -60q-71 0 -120.5 51.5t-49.5 127.5q0 98 129 193z" />
    <glyph glyph-name="Idotaccent" unicode="&#x130;" horiz-adv-x="582" 
d="M365 1470v-1470l-148 -36v1470zM293 1585l-127 128l127 127l128 -127z" />
    <glyph glyph-name="dotlessi" unicode="&#x131;" horiz-adv-x="491" 
d="M315 1057v-1057l-138 -36v1056z" />
    <glyph glyph-name="IJ" unicode="&#x132;" horiz-adv-x="1380" 
d="M365 1470v-1470l-148 -36v1470zM1272 1461v-1072q0 -209 -110 -316t-287 -107q-167 0 -275 94l61 130q102 -83 217 -83q101 0 173.5 71.5t72.5 199.5v1056z" />
    <glyph glyph-name="ij" unicode="&#x133;" horiz-adv-x="982" 
d="M315 1057v-1057l-138 -36v1056zM246 1262l-102 116l102 116l101 -116zM809 1057v-1057q0 -207 -116.5 -306.5t-226.5 -99.5h-44l-50 137q34 -7 83 -7q114 0 165 82.5t51 193.5v1020zM737 1262l-102 116l102 116l101 -116z" />
    <glyph glyph-name="Jcircumflex" unicode="&#x134;" horiz-adv-x="798" 
d="M690 1461v-1072q0 -209 -110 -316t-287 -107q-167 0 -275 94l61 130q102 -83 217 -83q101 0 173.5 71.5t72.5 199.5v1056zM555 1892l303 -260v-98l-304 179l-303 -179v98z" />
    <glyph glyph-name="jcircumflex" unicode="&#x135;" horiz-adv-x="492" 
d="M318 1057v-1057q0 -207 -116.5 -306.5t-226.5 -99.5h-44l-50 137q34 -7 83 -7q114 0 165.5 82.5t51.5 193.5v1020zM207 1478l303 -260v-98l-304 179l-303 -179v98z" />
    <glyph glyph-name="Kcommaaccent" unicode="&#x136;" horiz-adv-x="1055" 
d="M256 1470v-700l612 700l104 -86l-539 -632l604 -727l-145 -61l-636 763v-727l-148 -36v1470zM726 -96l-187 -308h-119l147 291z" />
    <glyph glyph-name="kcommaaccent" unicode="&#x137;" horiz-adv-x="885" 
d="M228 1470v-967l481 572l115 -55l-452 -529l495 -473l-110 -54l-529 514v-478l-138 -36v1470zM632 -96l-187 -308h-119l147 291z" />
    <glyph glyph-name="kgreenlandic" unicode="&#x138;" horiz-adv-x="885" 
d="M220 1056v-553l489 553l115 -36l-452 -529l495 -473l-110 -54l-537 514v-478l-130 -36v1056z" />
    <glyph glyph-name="Lacute" unicode="&#x139;" horiz-adv-x="878" 
d="M256 1461v-1317h604l-47 -144h-705v1434zM571 1892l-332 -358h-96l225 358h203z" />
    <glyph glyph-name="lacute" unicode="&#x13a;" horiz-adv-x="491" 
d="M314 1470v-1470l-138 -36v1470zM461 1970l-332 -358h-96l225 358h203z" />
    <glyph glyph-name="Lcommaaccent" unicode="&#x13b;" horiz-adv-x="878" 
d="M256 1461v-1317h604l-47 -144h-705v1434zM637 -96l-187 -308h-119l147 291z" />
    <glyph glyph-name="lcommaaccent" unicode="&#x13c;" horiz-adv-x="491" 
d="M314 1470v-1470l-138 -36v1470zM398 -96l-187 -308h-119l147 291z" />
    <glyph glyph-name="Lcaron" unicode="&#x13d;" horiz-adv-x="878" 
d="M256 1461v-1317h604l-47 -144h-705v1434zM745 1478q115 -61 115 -134q0 -50 -101 -158l-61 -66l-69 41q93 96 109 158q0 49 -65 74z" />
    <glyph glyph-name="lcaron" unicode="&#x13e;" horiz-adv-x="732" 
d="M314 1470v-1470l-138 -36v1470zM558 1478q115 -61 115 -134q0 -50 -101 -158l-61 -66l-69 41q93 96 109 158q0 49 -65 74z" />
    <glyph glyph-name="Ldot" unicode="&#x13f;" horiz-adv-x="878" 
d="M256 1461v-1317h604l-47 -144h-705v1434zM656 603l-127 128l127 127l128 -127z" />
    <glyph glyph-name="ldot" unicode="&#x140;" horiz-adv-x="746" 
d="M314 1470v-1470l-138 -36v1470zM601 590l-127 128l127 127l128 -127z" />
    <glyph glyph-name="Lslash" unicode="&#x141;" horiz-adv-x="878" 
d="M108 750v684l148 27v-623l216 123v-126l-216 -123v-568h604l-47 -144h-705v625l-135 -84v126z" />
    <glyph glyph-name="lslash" unicode="&#x142;" horiz-adv-x="428" 
d="M144 740v694l139 36v-649l180 106v-125l-180 -107v-695l-139 -36v650l-180 -107v126z" />
    <glyph glyph-name="Nacute" unicode="&#x143;" horiz-adv-x="1358" 
d="M108 1470l994 -1119v1083l148 36v-1506l-994 1109v-1073l-148 -36v1506zM964 1892l-332 -358h-96l225 358h203z" />
    <glyph glyph-name="nacute" unicode="&#x144;" horiz-adv-x="1004" 
d="M542 1057q180 0 276 -114t96 -267v-676l-137 -36v712q0 137 -65 195t-195 58q-110 0 -199.5 -104t-89.5 -261v-564l-138 -36v1056l138 36v-177q142 178 314 178zM787 1478l-332 -358h-96l225 358h203z" />
    <glyph glyph-name="Ncommaaccent" unicode="&#x145;" horiz-adv-x="1358" 
d="M108 1470l994 -1119v1083l148 36v-1506l-994 1109v-1073l-148 -36v1506zM832 -96l-187 -308h-119l147 291z" />
    <glyph glyph-name="ncommaaccent" unicode="&#x146;" horiz-adv-x="1004" 
d="M542 1057q180 0 276 -114t96 -267v-676l-137 -36v712q0 137 -65 195t-195 58q-110 0 -199.5 -104t-89.5 -261v-564l-138 -36v1056l138 36v-177q142 178 314 178zM655 -96l-187 -308h-119l147 291z" />
    <glyph glyph-name="Ncaron" unicode="&#x147;" horiz-adv-x="1358" 
d="M108 1470l994 -1119v1083l148 36v-1506l-994 1109v-1073l-148 -36v1506zM376 1794v98l303 -179l304 179v-98l-303 -260z" />
    <glyph glyph-name="ncaron" unicode="&#x148;" horiz-adv-x="1004" 
d="M542 1057q180 0 276 -114t96 -267v-676l-137 -36v712q0 137 -65 195t-195 58q-110 0 -199.5 -104t-89.5 -261v-564l-138 -36v1056l138 36v-177q142 178 314 178zM201 1380v98l303 -179l304 179v-98l-303 -260z" />
    <glyph glyph-name="napostrophe" unicode="&#x149;" horiz-adv-x="1238" 
d="M224 1379q115 -61 115 -134q0 -50 -101 -158l-61 -66l-69 41q93 96 109 158q0 49 -65 74zM776 1057q180 0 276 -114t96 -267v-676l-137 -36v712q0 137 -65 195t-195 58q-110 0 -199.5 -104t-89.5 -261v-564l-138 -36v1056l138 36v-177q142 178 314 178z" />
    <glyph glyph-name="Eng" unicode="&#x14a;" horiz-adv-x="1358" 
d="M1002 241l-746 832v-1073l-148 -36v1506l1001 -1119v1083l141 36v-1505q0 -161 -167 -263q-167 -108 -421 -108v80q202 0 333 105t131 215q0 109 -124 247z" />
    <glyph glyph-name="eng" unicode="&#x14b;" horiz-adv-x="1004" 
d="M777 -24v700q0 137 -65 195t-195 58q-110 0 -199.5 -104t-89.5 -261v-564l-138 -36v1056l127 36v-177q153 178 325 178q180 0 276 -114t96 -267v-689q0 -177 -142 -285t-346 -108v80q152 0 251.5 102.5t99.5 199.5z" />
    <glyph glyph-name="Omacron" unicode="&#x14c;" horiz-adv-x="1632" 
d="M811 1327q-245 0 -418 -178.5t-173 -431.5t173 -431.5t418 -178.5t417.5 178.5t172.5 431.5t-172.5 431.5t-417.5 178.5zM1560 717q0 -312 -218 -531.5t-526 -219.5t-526 219.5t-218 531.5t218 531.5t526 219.5t526 -219.5t218 -531.5zM536 1649v128h560v-128h-560z" />
    <glyph glyph-name="omacron" unicode="&#x14d;" horiz-adv-x="1199" 
d="M1145 509q0 -225 -160 -384.5t-385 -159.5q-226 0 -386 159.5t-160 384.5q0 226 160 386t386 160q225 0 385 -160t160 -386zM600 923q-171 0 -291.5 -121t-120.5 -293q0 -171 120.5 -292t291.5 -121q170 0 290.5 121t120.5 292q0 172 -120.5 293t-290.5 121zM320 1235
v128h560v-128h-560z" />
    <glyph glyph-name="Obreve" unicode="&#x14e;" horiz-adv-x="1632" 
d="M811 1327q-245 0 -418 -178.5t-173 -431.5t173 -431.5t418 -178.5t417.5 178.5t172.5 431.5t-172.5 431.5t-417.5 178.5zM1560 717q0 -312 -218 -531.5t-526 -219.5t-526 219.5t-218 531.5t218 531.5t526 219.5t526 -219.5t218 -531.5zM479 1856h100q50 -155 237 -155
q188 0 238 155h100q0 -127 -94.5 -206.5t-242.5 -79.5q-149 0 -243.5 79.5t-94.5 206.5z" />
    <glyph glyph-name="obreve" unicode="&#x14f;" horiz-adv-x="1199" 
d="M1145 509q0 -225 -160 -384.5t-385 -159.5q-226 0 -386 159.5t-160 384.5q0 226 160 386t386 160q225 0 385 -160t160 -386zM600 923q-171 0 -291.5 -121t-120.5 -293q0 -171 120.5 -292t291.5 -121q170 0 290.5 121t120.5 292q0 172 -120.5 293t-290.5 121zM262 1442
h100q50 -155 237 -155q188 0 238 155h100q0 -127 -94.5 -206.5t-242.5 -79.5q-149 0 -243.5 79.5t-94.5 206.5z" />
    <glyph glyph-name="Ohungarumlaut" unicode="&#x150;" horiz-adv-x="1632" 
d="M811 1327q-245 0 -418 -178.5t-173 -431.5t173 -431.5t418 -178.5t417.5 178.5t172.5 431.5t-172.5 431.5t-417.5 178.5zM1560 717q0 -312 -218 -531.5t-526 -219.5t-526 219.5t-218 531.5t218 531.5t526 219.5t526 -219.5t218 -531.5zM890 1892l-332 -358h-96l225 358
h203zM1171 1892l-332 -358h-96l225 358h203z" />
    <glyph glyph-name="ohungarumlaut" unicode="&#x151;" horiz-adv-x="1199" 
d="M1145 509q0 -225 -160 -384.5t-385 -159.5q-226 0 -386 159.5t-160 384.5q0 226 160 386t386 160q225 0 385 -160t160 -386zM600 923q-171 0 -291.5 -121t-120.5 -293q0 -171 120.5 -292t291.5 -121q170 0 290.5 121t120.5 292q0 172 -120.5 293t-290.5 121zM673 1478
l-332 -358h-96l225 358h203zM954 1478l-332 -358h-96l225 358h203z" />
    <glyph glyph-name="OE" unicode="&#x152;" horiz-adv-x="1879" 
d="M1045 1434h733l47 -145h-654v-494h553v-145h-553v-506h690l-40 -144h-776q-108 -34 -229 -34q-308 0 -526 219.5t-218 531.5t218 531.5t526 219.5q121 0 229 -34zM1023 1198q0 129 -212 129q-245 0 -418 -178.5t-173 -431.5t173 -431.5t418 -178.5q212 0 212 129v962z
" />
    <glyph glyph-name="oe" unicode="&#x153;" horiz-adv-x="2019" 
d="M600 923q-171 0 -291.5 -121t-120.5 -293q0 -171 120.5 -292t291.5 -121q170 0 290.5 121t120.5 292q0 172 -120.5 293t-290.5 121zM1156 457l639 394q-128 90 -259 90q-205 0 -311 -154q-79 -114 -79 -240q0 -44 10 -90zM1080 248q-37 -66 -95 -123q-160 -160 -385 -160
q-226 0 -386 159.5t-160 384.5q0 226 160 386t386 160q225 0 385 -160q53 -53 89 -114q38 68 98 127q161 156 392 156q191 0 305 -105t114 -152l-787 -477q42 -113 147 -172t207 -59q186 0 415 188v-166q-82 -70 -187 -112t-218 -42q-253 0 -401 169q-47 54 -79 112z" />
    <glyph glyph-name="Racute" unicode="&#x154;" horiz-adv-x="1014" 
d="M394 1434q224 0 350 -121t126 -322q0 -193 -127 -295t-237 -102l490 -563l-137 -67l-603 706v-670l-148 -36v1470h286zM256 1289v-583h120q193 0 266 89.5t73 206.5q0 126 -84 206.5t-179 80.5h-196zM737 1892l-332 -358h-96l225 358h203z" />
    <glyph glyph-name="racute" unicode="&#x155;" horiz-adv-x="679" 
d="M596 1055h65l-65 -147q-34 4 -65 4q-155 0 -229 -115t-74 -297v-500l-138 -36v1056l138 36v-238q37 98 115 167.5t253 69.5zM663 1478l-332 -358h-96l225 358h203z" />
    <glyph glyph-name="Rcommaaccent" unicode="&#x156;" horiz-adv-x="1014" 
d="M394 1434q224 0 350 -121t126 -322q0 -193 -127 -295t-237 -102l490 -563l-137 -67l-603 706v-670l-148 -36v1470h286zM256 1289v-583h120q193 0 266 89.5t73 206.5q0 126 -84 206.5t-179 80.5h-196zM705 -96l-187 -308h-119l147 291z" />
    <glyph glyph-name="rcommaaccent" unicode="&#x157;" horiz-adv-x="679" 
d="M596 1055h65l-65 -147q-34 4 -65 4q-155 0 -229 -115t-74 -297v-500l-138 -36v1056l138 36v-238q37 98 115 167.5t253 69.5zM349 -96l-187 -308h-119l147 291z" />
    <glyph glyph-name="Rcaron" unicode="&#x158;" horiz-adv-x="1014" 
d="M394 1434q224 0 350 -121t126 -322q0 -193 -127 -295t-237 -102l490 -563l-137 -67l-603 706v-670l-148 -36v1470h286zM256 1289v-583h120q193 0 266 89.5t73 206.5q0 126 -84 206.5t-179 80.5h-196zM151 1794v98l303 -179l304 179v-98l-303 -260z" />
    <glyph glyph-name="rcaron" unicode="&#x159;" horiz-adv-x="679" 
d="M596 1055h65l-65 -147q-34 4 -65 4q-155 0 -229 -115t-74 -297v-500l-138 -36v1056l138 36v-238q37 98 115 167.5t253 69.5zM74 1380v98l303 -179l304 179v-98l-303 -260z" />
    <glyph glyph-name="Sacute" unicode="&#x15a;" horiz-adv-x="1029" 
d="M545 1470q224 0 376 -188l-101 -101q-113 145 -293 145q-110 0 -185 -66.5t-75 -179.5q0 -191 270 -268q420 -142 420 -440q0 -197 -124.5 -302.5t-312.5 -105.5q-269 0 -448 249l116 108q105 -209 336 -209q139 0 208.5 60.5t69.5 181.5q0 215 -275 296
q-422 160 -422 405q0 203 140.5 309t299.5 106zM800 1892l-332 -358h-96l225 358h203z" />
    <glyph glyph-name="sacute" unicode="&#x15b;" horiz-adv-x="813" 
d="M423 1057q175 0 317 -109l-79 -99q-102 94 -238 94q-98 0 -156 -47t-58 -123q0 -150 232 -181q318 -77 318 -321q0 -145 -104 -226t-247 -81q-213 0 -354 166l90 90q112 -130 253 -130q103 0 163.5 50t60.5 131q0 155 -226 195q-319 66 -319 293q0 139 108.5 218.5
t238.5 79.5zM694 1478l-332 -358h-96l225 358h203z" />
    <glyph glyph-name="Scircumflex" unicode="&#x15c;" horiz-adv-x="1029" 
d="M545 1470q224 0 376 -188l-101 -101q-113 145 -293 145q-110 0 -185 -66.5t-75 -179.5q0 -191 270 -268q420 -142 420 -440q0 -197 -124.5 -302.5t-312.5 -105.5q-269 0 -448 249l116 108q105 -209 336 -209q139 0 208.5 60.5t69.5 181.5q0 215 -275 296
q-422 160 -422 405q0 203 140.5 309t299.5 106zM515 1892l303 -260v-98l-304 179l-303 -179v98z" />
    <glyph glyph-name="scircumflex" unicode="&#x15d;" horiz-adv-x="813" 
d="M423 1057q175 0 317 -109l-79 -99q-102 94 -238 94q-98 0 -156 -47t-58 -123q0 -150 232 -181q318 -77 318 -321q0 -145 -104 -226t-247 -81q-213 0 -354 166l90 90q112 -130 253 -130q103 0 163.5 50t60.5 131q0 155 -226 195q-319 66 -319 293q0 139 108.5 218.5
t238.5 79.5zM409 1478l303 -260v-98l-304 179l-303 -179v98z" />
    <glyph glyph-name="Scedilla" unicode="&#x15e;" horiz-adv-x="1029" 
d="M461 -32q-230 24 -389 245l116 108q105 -209 336 -209q139 0 208.5 60.5t69.5 181.5q0 215 -275 296q-422 160 -422 405q0 203 140.5 309t299.5 106q224 0 376 -188l-101 -101q-113 145 -293 145q-110 0 -185 -66.5t-75 -179.5q0 -191 270 -268q420 -142 420 -440
q0 -197 -124 -302q-119 -101 -296 -105q-14 -16 -14 -42h33q83 0 126.5 -47.5t43.5 -113.5q0 -56 -44.5 -112t-125.5 -56q-94 0 -140 59l54 58q36 -42 86 -42q45 0 67 27.5t22 63.5q0 44 -23.5 69.5t-65.5 25.5q-41 0 -75 -18l-32 22z" />
    <glyph glyph-name="scedilla" unicode="&#x15f;" horiz-adv-x="813" 
d="M352 -33q-176 20 -298 163l90 90q112 -130 253 -130q103 0 163.5 50t60.5 131q0 155 -226 195q-319 66 -319 293q0 139 108.5 218.5t238.5 79.5q175 0 317 -109l-79 -99q-102 94 -238 94q-98 0 -156 -47t-58 -123q0 -150 232 -181q318 -77 318 -321q0 -145 -104 -226
q-97 -75 -227 -80q-14 -16 -14 -42h33q83 0 126.5 -47.5t43.5 -113.5q0 -56 -44.5 -112t-125.5 -56q-94 0 -140 59l54 58q36 -42 86 -42q45 0 67 27.5t22 63.5q0 44 -23.5 69.5t-65.5 25.5q-41 0 -75 -18l-32 22z" />
    <glyph glyph-name="Scaron" unicode="&#x160;" horiz-adv-x="1029" 
d="M545 1470q224 0 376 -188l-101 -101q-113 145 -293 145q-110 0 -185 -66.5t-75 -179.5q0 -191 270 -268q420 -142 420 -440q0 -197 -124.5 -302.5t-312.5 -105.5q-269 0 -448 249l116 108q105 -209 336 -209q139 0 208.5 60.5t69.5 181.5q0 215 -275 296
q-422 160 -422 405q0 203 140.5 309t299.5 106zM211 1794v98l303 -179l304 179v-98l-303 -260z" />
    <glyph glyph-name="scaron" unicode="&#x161;" horiz-adv-x="813" 
d="M423 1057q175 0 317 -109l-79 -99q-102 94 -238 94q-98 0 -156 -47t-58 -123q0 -150 232 -181q318 -77 318 -321q0 -145 -104 -226t-247 -81q-213 0 -354 166l90 90q112 -130 253 -130q103 0 163.5 50t60.5 131q0 155 -226 195q-319 66 -319 293q0 139 108.5 218.5
t238.5 79.5zM105 1380v98l303 -179l304 179v-98l-303 -260z" />
    <glyph glyph-name="Tcommaaccent" unicode="&#x162;" horiz-adv-x="997" 
d="M437 -26v1315h-419l51 145h910v-145h-383v-1289l-75 -12q-24 -32 -24 -65h33q83 0 126.5 -47.5t43.5 -113.5q0 -56 -44.5 -112t-125.5 -56q-94 0 -140 59l54 58q36 -42 86 -42q45 0 67 27.5t22 63.5q0 44 -23.5 69.5t-65.5 25.5q-41 0 -75 -18l-32 22l13 114z" />
    <glyph glyph-name="tcommaaccent" unicode="&#x163;" horiz-adv-x="632" 
d="M322 -1q-38 21 -71 55q-88 90 -88 302v545h-145l40 119h105v269l130 37v-306h317v-119h-317v-516q0 -179 58.5 -237t143.5 -58q66 0 119 22v-122q-60 -26 -148 -26q-36 0 -69 8q-21 -17 -21 -49h33q83 0 126.5 -47.5t43.5 -113.5q0 -56 -44.5 -112t-125.5 -56
q-94 0 -140 59l54 58q36 -42 86 -42q45 0 67 27.5t22 63.5q0 44 -23.5 69.5t-65.5 25.5q-41 0 -75 -18l-32 22l17 141z" />
    <glyph glyph-name="Tcaron" unicode="&#x164;" horiz-adv-x="997" 
d="M69 1434h910v-145h-392v-1289l-150 -36v1325h-419zM197 1794v98l303 -179l304 179v-98l-303 -260z" />
    <glyph glyph-name="tcaron" unicode="&#x165;" horiz-adv-x="632" 
d="M301 1326v-306h309v-130h-309v-505q0 -179 54.5 -237t139.5 -58q66 0 119 22v-122q-60 -26 -148 -26q-128 0 -215.5 90t-87.5 302v534h-145l40 130h105v270zM595 1478q115 -61 115 -134q0 -50 -101 -158l-61 -66l-69 41q93 96 109 158q0 49 -65 74z" />
    <glyph glyph-name="Tbar" unicode="&#x166;" horiz-adv-x="997" 
d="M437 744v545h-419l51 145h910v-145h-383v-545h274v-80h-274v-664l-159 -36v700h-309v80h309z" />
    <glyph glyph-name="tbar" unicode="&#x167;" horiz-adv-x="632" 
d="M163 477v424h-145l40 119h105v269l130 37v-306h317v-119h-317v-424h248v-80h-248v-12q0 -179 58.5 -237t143.5 -58q66 0 119 22v-122q-60 -26 -148 -26q-128 0 -215.5 90t-87.5 302v41h-163v80h163z" />
    <glyph glyph-name="Utilde" unicode="&#x168;" horiz-adv-x="1278" 
d="M256 1470v-986q0 -216 113.5 -297t269.5 -81q200 0 291.5 109t91.5 244v975l148 36v-957q0 -325 -168 -437t-374 -112q-260 0 -390 127.5t-130 349.5v993zM523 1819q51 0 127.5 -40t119.5 -40q95 0 159 80l35 -40q-105 -172 -205 -172q-54 1 -129 38.5t-132 37.5
q-81 0 -153 -76l-31 48q104 164 209 164z" />
    <glyph glyph-name="utilde" unicode="&#x169;" horiz-adv-x="997" 
d="M907 1056v-1056l-138 -36v173q-130 -173 -296 -173q-172 0 -277.5 119t-105.5 260v677l138 36v-698q0 -128 74 -199t182 -71q119 0 202 110t83 268v554zM385 1405q51 0 127.5 -40t119.5 -40q95 0 159 80l35 -40q-105 -172 -205 -172q-54 1 -129 38.5t-132 37.5
q-81 0 -153 -76l-31 48q104 164 209 164z" />
    <glyph glyph-name="Umacron" unicode="&#x16a;" horiz-adv-x="1278" 
d="M256 1470v-986q0 -216 113.5 -297t269.5 -81q200 0 291.5 109t91.5 244v975l148 36v-957q0 -325 -168 -437t-374 -112q-260 0 -390 127.5t-130 349.5v993zM359 1649v128h560v-128h-560z" />
    <glyph glyph-name="umacron" unicode="&#x16b;" horiz-adv-x="997" 
d="M907 1056v-1056l-138 -36v173q-130 -173 -296 -173q-172 0 -277.5 119t-105.5 260v677l138 36v-698q0 -128 74 -199t182 -71q119 0 202 110t83 268v554zM221 1235v128h560v-128h-560z" />
    <glyph glyph-name="Ubreve" unicode="&#x16c;" horiz-adv-x="1278" 
d="M256 1470v-986q0 -216 113.5 -297t269.5 -81q200 0 291.5 109t91.5 244v975l148 36v-957q0 -325 -168 -437t-374 -112q-260 0 -390 127.5t-130 349.5v993zM302 1856h100q50 -155 237 -155q188 0 238 155h100q0 -127 -94.5 -206.5t-242.5 -79.5q-149 0 -243.5 79.5
t-94.5 206.5z" />
    <glyph glyph-name="ubreve" unicode="&#x16d;" horiz-adv-x="997" 
d="M907 1056v-1056l-138 -36v173q-130 -173 -296 -173q-172 0 -277.5 119t-105.5 260v677l138 36v-698q0 -128 74 -199t182 -71q119 0 202 110t83 268v554zM162 1442h100q50 -155 237 -155q188 0 238 155h100q0 -127 -94.5 -206.5t-242.5 -79.5q-149 0 -243.5 79.5
t-94.5 206.5z" />
    <glyph glyph-name="Uring" unicode="&#x16e;" horiz-adv-x="1278" 
d="M256 1470v-986q0 -216 113.5 -297t269.5 -81q200 0 291.5 109t91.5 244v975l148 36v-957q0 -325 -168 -437t-374 -112q-260 0 -390 127.5t-130 349.5v993zM818 1713q0 -74 -52.5 -126.5t-126.5 -52.5t-126.5 52.5t-52.5 126.5t52.5 126.5t126.5 52.5t126.5 -52.5
t52.5 -126.5zM639 1796q-35 0 -59 -24t-24 -59q0 -34 24 -58.5t59 -24.5t59 24.5t24 58.5q0 35 -24 59t-59 24z" />
    <glyph glyph-name="uring" unicode="&#x16f;" horiz-adv-x="997" 
d="M907 1056v-1056l-138 -36v173q-130 -173 -296 -173q-172 0 -277.5 119t-105.5 260v677l138 36v-698q0 -128 74 -199t182 -71q119 0 202 110t83 268v554zM680 1299q0 -74 -52.5 -126.5t-126.5 -52.5t-126.5 52.5t-52.5 126.5t52.5 126.5t126.5 52.5t126.5 -52.5
t52.5 -126.5zM501 1382q-35 0 -59 -24t-24 -59q0 -34 24 -58.5t59 -24.5t59 24.5t24 58.5q0 35 -24 59t-59 24z" />
    <glyph glyph-name="Uhungarumlaut" unicode="&#x170;" horiz-adv-x="1278" 
d="M256 1470v-986q0 -216 113.5 -297t269.5 -81q200 0 291.5 109t91.5 244v975l148 36v-957q0 -325 -168 -437t-374 -112q-260 0 -390 127.5t-130 349.5v993zM713 1892l-332 -358h-96l225 358h203zM994 1892l-332 -358h-96l225 358h203z" />
    <glyph glyph-name="uhungarumlaut" unicode="&#x171;" horiz-adv-x="997" 
d="M907 1056v-1056l-138 -36v173q-130 -173 -296 -173q-172 0 -277.5 119t-105.5 260v677l138 36v-698q0 -128 74 -199t182 -71q119 0 202 110t83 268v554zM574 1478l-332 -358h-96l225 358h203zM855 1478l-332 -358h-96l225 358h203z" />
    <glyph glyph-name="Uogonek" unicode="&#x172;" horiz-adv-x="1278" 
d="M808 -10q-86 -24 -180 -24q-260 0 -390 126.5t-130 348.5v993l159 36v-986q0 -216 108 -296t264 -80q200 0 290 108t90 243v975l151 36v-957q0 -313 -156 -427q-153 -104 -153 -230q0 -36 22.5 -63t66.5 -27q50 0 86 32l54 -58q-76 -60 -170 -60q-71 0 -120.5 51.5
t-49.5 127.5q0 66 58 131z" />
    <glyph glyph-name="uogonek" unicode="&#x173;" horiz-adv-x="997" 
d="M780 -28v165q-141 -173 -307 -173q-172 0 -277.5 119t-105.5 260v677l141 36v-698q0 -128 72.5 -199t180.5 -71q149 0 219 135t70 243v554l134 36v-1056h1q-155 -104 -155 -230q0 -36 22.5 -63t66.5 -27q50 0 86 32l54 -58q-76 -60 -170 -60q-71 0 -120.5 51.5
t-49.5 127.5q0 102 138 199z" />
    <glyph glyph-name="Wcircumflex" unicode="&#x174;" horiz-adv-x="1911" 
d="M956 541l-262 -577l-676 1470l148 36l528 -1135l177 373l-329 726l148 36l266 -576l265 576l148 -36l-329 -725l178 -374l527 1135l148 -36l-675 -1470zM956 1892l303 -260v-98l-304 179l-303 -179v98z" />
    <glyph glyph-name="wcircumflex" unicode="&#x175;" horiz-adv-x="1734" 
d="M860 1078l379 -813l347 795l130 -40l-477 -1065l-379 827l-380 -819l-462 1057l130 40l340 -791zM868 1478l303 -260v-98l-304 179l-303 -179v98z" />
    <glyph glyph-name="Ycircumflex" unicode="&#x176;" horiz-adv-x="1145" 
d="M166 1470l426 -766l394 766l141 -36l-748 -1470l-130 36l258 535l-489 899zM573 1892l303 -260v-98l-304 179l-303 -179v98z" />
    <glyph glyph-name="ycircumflex" unicode="&#x177;" horiz-adv-x="1090" 
d="M165 1070l412 -736l361 736l134 -50l-714 -1426l-124 62l264 519l-480 849zM546 1478l303 -260v-98l-304 179l-303 -179v98z" />
    <glyph glyph-name="Ydieresis" unicode="&#x178;" horiz-adv-x="1145" 
d="M166 1470l426 -766l394 766l141 -36l-748 -1470l-130 36l258 535l-489 899zM737 1586l-127 128l127 127l128 -127zM408 1586l-127 128l127 127l128 -127z" />
    <glyph glyph-name="Zacute" unicode="&#x179;" horiz-adv-x="1123" 
d="M105 1434h971l-805 -1290h834l-36 -144h-1051l795 1289h-748zM847 1892l-332 -358h-96l225 358h203z" />
    <glyph glyph-name="zacute" unicode="&#x17a;" horiz-adv-x="993" 
d="M137 1020h838l-686 -886h675l-36 -134h-910l686 890h-592zM782 1478l-332 -358h-96l225 358h203z" />
    <glyph glyph-name="Zdotaccent" unicode="&#x17b;" horiz-adv-x="1123" 
d="M105 1434h971l-805 -1290h834l-36 -144h-1051l795 1289h-748zM561 1585l-127 128l127 127l128 -127z" />
    <glyph glyph-name="zdotaccent" unicode="&#x17c;" horiz-adv-x="993" 
d="M137 1020h838l-686 -886h675l-36 -134h-910l686 890h-592zM496 1171l-127 128l127 127l128 -127z" />
    <glyph glyph-name="Zcaron" unicode="&#x17d;" horiz-adv-x="1123" 
d="M105 1434h971l-805 -1290h834l-36 -144h-1051l795 1289h-748zM258 1794v98l303 -179l304 179v-98l-303 -260z" />
    <glyph glyph-name="zcaron" unicode="&#x17e;" horiz-adv-x="993" 
d="M137 1020h838l-686 -886h675l-36 -134h-910l686 890h-592zM195 1380v98l303 -179l304 179v-98l-303 -260z" />
    <glyph glyph-name="longs" unicode="&#x17f;" horiz-adv-x="668" 
d="M571 1468h43l36 -133q-40 3 -83 3q-133 0 -191 -86t-58 -177v-1075l-141 -36v927h-159l47 130h112v36q0 209 94.5 310t299.5 101z" />
    <glyph glyph-name="florin" unicode="&#x192;" horiz-adv-x="1228" 
d="M635 1020l20 82q93 368 299 368h108l-36 -125h-92q-112 0 -170 -243l-20 -82h224l-26 -90h-221l-191 -887q-85 -393 -306 -393h-108l36 125h92q122 0 180 268l191 887h-218l26 90h212z" />
    <glyph glyph-name="Ohorn" unicode="&#x1a0;" horiz-adv-x="1632" 
d="M811 1327q-245 0 -418 -178.5t-173 -431.5t173 -431.5t418 -178.5t417.5 178.5t172.5 431.5t-172.5 431.5t-417.5 178.5zM1560 717q0 -312 -218 -531.5t-526 -219.5t-526 219.5t-218 531.5t218 531.5t526 219.5q318 0 547 -242q84 103 99 171q0 57 -65 86l72 98
q115 -71 115 -155q0 -58 -101 -183l-66 -83q143 -178 143 -443z" />
    <glyph glyph-name="ohorn" unicode="&#x1a1;" horiz-adv-x="1199" 
d="M600 923q-171 0 -291.5 -121t-120.5 -293q0 -171 120.5 -292t291.5 -121q170 0 290.5 121t120.5 292q0 172 -120.5 293t-290.5 121zM1075 779q70 -120 70 -270q0 -225 -160 -384.5t-385 -159.5q-226 0 -386 159.5t-160 384.5q0 226 160 386t386 160q225 0 385 -160
q22 -22 40 -44q67 86 80 146q0 57 -65 86l72 98q115 -71 115 -155q0 -58 -101 -183z" />
    <glyph glyph-name="Uhorn" unicode="&#x1af;" horiz-adv-x="1278" 
d="M1170 1390v-877q0 -325 -168 -436t-374 -111q-260 0 -390 126.5t-130 348.5v993l159 36v-986q0 -216 108 -296t264 -80q200 0 290 108t90 243v975l113 27q69 20 69 83q0 57 -65 86l72 98q115 -71 115 -155t-153 -183z" />
    <glyph glyph-name="uhorn" unicode="&#x1b0;" horiz-adv-x="997" 
d="M907 979v-979l-127 -36v173q-141 -173 -307 -173q-172 0 -277.5 119t-105.5 260v677l141 24v-686q0 -128 72.5 -199t180.5 -71q149 0 219 135t70 243v554l101 27q71 18 71 86q0 57 -65 86l72 98q115 -71 115 -155q0 -101 -160 -183z" />
    <glyph glyph-name="uni01C0" unicode="&#x1c0;" horiz-adv-x="582" 
d="M365 1434v-1840h-148v1840h148z" />
    <glyph glyph-name="uni01C1" unicode="&#x1c1;" horiz-adv-x="582" 
d="M218 1434v-1840h-148v1840h148zM513 1434v-1840h-148v1840h148z" />
    <glyph glyph-name="uni01C2" unicode="&#x1c2;" horiz-adv-x="1228" 
d="M144 767h940v-123h-940v123zM144 381h940v-120h-940v120zM688 1434v-1840h-148v1840h148z" />
    <glyph glyph-name="uni01C3" unicode="&#x1c3;" horiz-adv-x="519" 
d="M332 1470l-18 -1093l-108 -36l-18 1093zM259 -36l-115 132l115 131l116 -131z" />
    <glyph glyph-name="uni01C4" unicode="&#x1c4;" horiz-adv-x="2369" 
d="M108 1434h351q356 0 535.5 -207t179.5 -479q-4 -380 -224 -564t-517 -184h-325v1434zM256 1289v-1145h163q236 0 414 156t178 412q0 257 -152.5 417t-334.5 160h-268zM1351 1434h971l-805 -1290h834l-36 -144h-1051l795 1289h-748zM1504 1780v98l303 -179l304 179v-98
l-303 -260z" />
    <glyph glyph-name="uni01C5" unicode="&#x1c5;" horiz-adv-x="2239" 
d="M108 1434h351q356 0 535.5 -207t179.5 -479q-4 -380 -224 -564t-517 -184h-325v1434zM256 1289v-1145h163q236 0 414 156t178 412q0 257 -152.5 417t-334.5 160h-268zM1383 1020h838l-686 -886h675l-36 -134h-910l686 890h-592zM1439 1380v98l303 -179l304 179v-98
l-303 -260z" />
    <glyph glyph-name="uni01C6" unicode="&#x1c6;" horiz-adv-x="2210" 
d="M993 136q-175 -170 -400 -170q-142 0 -271 72q-268 182 -268 469q0 184 105 326q178 216 444 216q115 0 201 -45.5t182 -145.5v576l141 36v-1470l-134 -30v166zM981 502q0 176 -110 289t-276 113q-167 0 -285 -118t-118 -284q0 -167 118 -285t285 -118q166 0 276 104.5
t110 298.5zM1354 1020h838l-686 -886h675l-36 -134h-910l686 890h-592zM1410 1380v98l303 -179l304 179v-98l-303 -260z" />
    <glyph glyph-name="uni01C7" unicode="&#x1c7;" horiz-adv-x="1676" 
d="M256 1461v-1317h604l-47 -144h-705v1434zM1568 1461v-1072q0 -209 -110 -316t-287 -107q-167 0 -275 94l61 130q102 -83 217 -83q101 0 173.5 71.5t72.5 199.5v1056z" />
    <glyph glyph-name="uni01C8" unicode="&#x1c8;" horiz-adv-x="1369" 
d="M256 1461v-1317h604l-47 -144h-705v1434zM1196 1057v-1057q0 -207 -116.5 -306.5t-226.5 -99.5h-44l-50 137q34 -7 83 -7q114 0 165 82.5t51 193.5v1020zM1124 1262l-102 116l102 116l101 -116z" />
    <glyph glyph-name="uni01C9" unicode="&#x1c9;" horiz-adv-x="982" 
d="M314 1470v-1470l-138 -36v1470zM809 1057v-1057q0 -207 -116.5 -306.5t-226.5 -99.5h-44l-50 137q34 -7 83 -7q114 0 165 82.5t51 193.5v1020zM737 1262l-102 116l102 116l101 -116z" />
    <glyph glyph-name="uni01CA" unicode="&#x1ca;" horiz-adv-x="2156" 
d="M108 1470l994 -1119v1083l148 36v-1506l-994 1109v-1073l-148 -36v1506zM2048 1461v-1072q0 -209 -110 -316t-287 -107q-167 0 -275 94l61 130q102 -83 217 -83q101 0 173.5 71.5t72.5 199.5v1056z" />
    <glyph glyph-name="uni01CB" unicode="&#x1cb;" horiz-adv-x="1849" 
d="M108 1470l994 -1119v1083l148 36v-1506l-994 1109v-1073l-148 -36v1506zM1676 1057v-1057q0 -207 -116.5 -306.5t-226.5 -99.5h-44l-50 137q34 -7 83 -7q114 0 165 82.5t51 193.5v1020zM1604 1262l-102 116l102 116l101 -116z" />
    <glyph glyph-name="uni01CC" unicode="&#x1cc;" horiz-adv-x="1495" 
d="M542 1057q180 0 276 -114t96 -267v-676l-137 -36v712q0 137 -65 195t-195 58q-110 0 -199.5 -104t-89.5 -261v-564l-138 -36v1056l138 36v-177q142 178 314 178zM1322 1057v-1057q0 -207 -116.5 -306.5t-226.5 -99.5h-44l-50 137q34 -7 83 -7q114 0 165 82.5t51 193.5
v1020zM1250 1262l-102 116l102 116l101 -116z" />
    <glyph glyph-name="uni01CD" unicode="&#x1cd;" horiz-adv-x="1468" 
d="M1450 1l-141 -37l-293 586h-564l-293 -586l-141 37l716 1476zM516 683h435l-217 449zM431 1794v98l303 -179l304 179v-98l-303 -260z" />
    <glyph glyph-name="uni01CE" unicode="&#x1ce;" horiz-adv-x="946" 
d="M502 1057q157 0 255.5 -98.5t98.5 -255.5v-703l-138 -27v130q-40 -56 -115 -96.5t-159 -40.5q-175 0 -282.5 110.5t-107.5 261.5q0 176 109 279.5t267 103.5q162 0 288 -112v122q0 92 -63 147.5t-167 55.5q-199 0 -340 -87l51 159q166 51 303 51zM188 338
q0 -111 74.5 -176.5t203.5 -65.5q122 0 185.5 70t63.5 172q0 127 -66 191.5t-194 64.5q-123 0 -195 -74t-72 -182zM154 1380v98l303 -179l304 179v-98l-303 -260z" />
    <glyph glyph-name="uni01CF" unicode="&#x1cf;" horiz-adv-x="582" 
d="M365 1470v-1470l-148 -36v1470zM-10 1794v98l303 -179l304 179v-98l-303 -260z" />
    <glyph glyph-name="uni01D0" unicode="&#x1d0;" horiz-adv-x="491" 
d="M315 1057v-1057l-138 -36v1056zM-55 1380v98l303 -179l304 179v-98l-303 -260z" />
    <glyph glyph-name="uni01D1" unicode="&#x1d1;" horiz-adv-x="1632" 
d="M811 1327q-245 0 -418 -178.5t-173 -431.5t173 -431.5t418 -178.5t417.5 178.5t172.5 431.5t-172.5 431.5t-417.5 178.5zM1560 717q0 -312 -218 -531.5t-526 -219.5t-526 219.5t-218 531.5t218 531.5t526 219.5t526 -219.5t218 -531.5zM513 1794v98l303 -179l304 179v-98
l-303 -260z" />
    <glyph glyph-name="uni01D2" unicode="&#x1d2;" horiz-adv-x="1199" 
d="M1145 509q0 -225 -160 -384.5t-385 -159.5q-226 0 -386 159.5t-160 384.5q0 226 160 386t386 160q225 0 385 -160t160 -386zM600 923q-171 0 -291.5 -121t-120.5 -293q0 -171 120.5 -292t291.5 -121q170 0 290.5 121t120.5 292q0 172 -120.5 293t-290.5 121zM296 1380v98
l303 -179l304 179v-98l-303 -260z" />
    <glyph glyph-name="uni01D3" unicode="&#x1d3;" horiz-adv-x="1278" 
d="M256 1470v-986q0 -216 113.5 -297t269.5 -81q200 0 291.5 109t91.5 244v975l148 36v-957q0 -325 -168 -437t-374 -112q-260 0 -390 127.5t-130 349.5v993zM336 1794v98l303 -179l304 179v-98l-303 -260z" />
    <glyph glyph-name="uni01D4" unicode="&#x1d4;" horiz-adv-x="997" 
d="M907 1056v-1056l-138 -36v173q-130 -173 -296 -173q-172 0 -277.5 119t-105.5 260v677l138 36v-698q0 -128 74 -199t182 -71q119 0 202 110t83 268v554zM197 1380v98l303 -179l304 179v-98l-303 -260z" />
    <glyph glyph-name="uni01D5" unicode="&#x1d5;" horiz-adv-x="1278" 
d="M256 1470v-986q0 -216 113.5 -297t269.5 -81q200 0 291.5 109t91.5 244v975l148 36v-957q0 -325 -168 -437t-374 -112q-260 0 -390 127.5t-130 349.5v993zM805 1521l-127 128l127 127l128 -127zM476 1521l-127 128l127 127l128 -127zM359 1862v128h560v-128h-560z" />
    <glyph glyph-name="uni01D6" unicode="&#x1d6;" horiz-adv-x="997" 
d="M907 1056v-1056l-138 -36v173q-130 -173 -296 -173q-172 0 -277.5 119t-105.5 260v677l138 36v-698q0 -128 74 -199t182 -71q119 0 202 110t83 268v554zM665 1172l-127 128l127 127l128 -127zM336 1172l-127 128l127 127l128 -127zM221 1555v128h560v-128h-560z" />
    <glyph glyph-name="uni01D7" unicode="&#x1d7;" horiz-adv-x="1278" 
d="M256 1470v-986q0 -216 113.5 -297t269.5 -81q200 0 291.5 109t91.5 244v975l148 36v-957q0 -325 -168 -437t-374 -112q-260 0 -390 127.5t-130 349.5v993zM805 1521l-127 128l127 127l128 -127zM476 1521l-127 128l127 127l128 -127zM910 1990l-270 -244l-46 47l133 197
h183z" />
    <glyph glyph-name="uni01D8" unicode="&#x1d8;" horiz-adv-x="997" 
d="M907 1056v-1056l-138 -36v173q-130 -173 -296 -173q-172 0 -277.5 119t-105.5 260v677l138 36v-698q0 -128 74 -199t182 -71q119 0 202 110t83 268v554zM665 1172l-127 128l127 127l128 -127zM336 1172l-127 128l127 127l128 -127zM785 1875l-332 -358h-96l225 358h203z
" />
    <glyph glyph-name="uni01D9" unicode="&#x1d9;" horiz-adv-x="1278" 
d="M256 1470v-986q0 -216 113.5 -297t269.5 -81q200 0 291.5 109t91.5 244v975l148 36v-957q0 -325 -168 -437t-374 -112q-260 0 -390 127.5t-130 349.5v993zM396 1907v83l242 -136l244 136v-83l-243 -232zM805 1521l-127 128l127 127l128 -127zM476 1521l-127 128l127 127
l128 -127z" />
    <glyph glyph-name="uni01DA" unicode="&#x1da;" horiz-adv-x="997" 
d="M907 1056v-1056l-138 -36v173q-130 -173 -296 -173q-172 0 -277.5 119t-105.5 260v677l138 36v-698q0 -128 74 -199t182 -71q119 0 202 110t83 268v554zM665 1172l-127 128l127 127l128 -127zM336 1172l-127 128l127 127l128 -127zM197 1777v98l303 -179l304 179v-98
l-303 -260z" />
    <glyph glyph-name="uni01DB" unicode="&#x1db;" horiz-adv-x="1278" 
d="M256 1470v-986q0 -216 113.5 -297t269.5 -81q200 0 291.5 109t91.5 244v975l148 36v-957q0 -325 -168 -437t-374 -112q-260 0 -390 127.5t-130 349.5v993zM805 1521l-127 128l127 127l128 -127zM476 1521l-127 128l127 127l128 -127zM553 1990l133 -197l-46 -47l-270 244
h183z" />
    <glyph glyph-name="uni01DC" unicode="&#x1dc;" horiz-adv-x="997" 
d="M907 1056v-1056l-138 -36v173q-130 -173 -296 -173q-172 0 -277.5 119t-105.5 260v677l138 36v-698q0 -128 74 -199t182 -71q119 0 202 110t83 268v554zM665 1172l-127 128l127 127l128 -127zM336 1172l-127 128l127 127l128 -127zM417 1875l225 -358h-96l-332 358h203z
" />
    <glyph glyph-name="uni01DD" unicode="&#x1dd;" horiz-adv-x="1062" 
d="M455 -34q-191 0 -305 105t-114 152l788 477q-43 113 -147.5 172t-206.5 59q-186 0 -416 -188v166q82 70 187 112.5t218 42.5q254 0 401.5 -169.5t147.5 -393.5q0 -222 -161 -378.5t-392 -156.5zM863 573l-639 -394q128 -90 259 -90q205 0 311 154q79 114 79 240
q0 44 -10 90z" />
    <glyph glyph-name="uni01DE" unicode="&#x1de;" horiz-adv-x="1468" 
d="M1450 1l-141 -37l-293 586h-564l-293 -586l-141 37l716 1476zM516 683h435l-217 449zM898 1521l-127 128l127 127l128 -127zM569 1521l-127 128l127 127l128 -127zM452 1862v128h560v-128h-560z" />
    <glyph glyph-name="uni01DF" unicode="&#x1df;" horiz-adv-x="946" 
d="M502 1057q157 0 255.5 -98.5t98.5 -255.5v-703l-138 -27v130q-40 -56 -115 -96.5t-159 -40.5q-175 0 -282.5 110.5t-107.5 261.5q0 176 109 279.5t267 103.5q162 0 288 -112v122q0 92 -63 147.5t-167 55.5q-199 0 -340 -87l51 159q166 51 303 51zM188 338
q0 -111 74.5 -176.5t203.5 -65.5q122 0 185.5 70t63.5 172q0 127 -66 191.5t-194 64.5q-123 0 -195 -74t-72 -182zM621 1172l-127 128l127 127l128 -127zM292 1172l-127 128l127 127l128 -127zM177 1555v128h560v-128h-560z" />
    <glyph glyph-name="uni01E0" unicode="&#x1e0;" horiz-adv-x="1468" 
d="M1450 1l-141 -37l-293 586h-564l-293 -586l-141 37l716 1476zM516 683h435l-217 449zM733 1520l-127 128l127 127l128 -127zM454 1862v128h560v-128h-560z" />
    <glyph glyph-name="uni01E1" unicode="&#x1e1;" horiz-adv-x="946" 
d="M502 1057q157 0 255.5 -98.5t98.5 -255.5v-703l-138 -27v130q-40 -56 -115 -96.5t-159 -40.5q-175 0 -282.5 110.5t-107.5 261.5q0 176 109 279.5t267 103.5q162 0 288 -112v122q0 92 -63 147.5t-167 55.5q-199 0 -340 -87l51 159q166 51 303 51zM188 338
q0 -111 74.5 -176.5t203.5 -65.5q122 0 185.5 70t63.5 172q0 127 -66 191.5t-194 64.5q-123 0 -195 -74t-72 -182zM457 1171l-127 128l127 127l128 -127zM177 1554v128h560v-128h-560z" />
    <glyph glyph-name="uni01E2" unicode="&#x1e2;" horiz-adv-x="1837" 
d="M981 550h-418l-387 -586l-148 36l953 1434h755l47 -145h-654v-494h552v-145h-552v-506h690l-40 -144h-798v550zM981 683v500l-332 -500h332zM944 1649v128h560v-128h-560z" />
    <glyph glyph-name="uni01E3" unicode="&#x1e3;" horiz-adv-x="1729" 
d="M188 338q0 -111 74.5 -176.5t203.5 -65.5q122 0 193 70t71 172q0 127 -73.5 191.5t-201.5 64.5q-123 0 -195 -74t-72 -182zM866 457l639 394q-34 45 -106 67.5t-153 22.5q-205 0 -311 -154q-79 -114 -79 -240q0 -44 10 -90zM824 171q-65 -107 -165.5 -156t-214.5 -49
q-175 0 -282.5 110.5t-107.5 261.5q0 176 109 279.5t267 103.5q162 0 285 -112v122q0 92 -61.5 147.5t-165.5 55.5q-199 0 -340 -87l51 159q166 51 303 51q157 0 256 -98q47 -48 72 -109q23 30 52 58q161 156 392 156q154 0 266.5 -72.5t152.5 -184.5l-788 -477
q43 -113 147.5 -172t206.5 -59q186 0 416 188v-166q-82 -70 -187 -112.5t-218 -42.5q-254 0 -446 205zM594 1235v128h560v-128h-560z" />
    <glyph glyph-name="uni01E4" unicode="&#x1e4;" horiz-adv-x="1441" 
d="M1333 398v-232q-44 -45 -195 -123.5t-336 -78.5q-295 0 -512.5 217t-217.5 541q0 311 228.5 529.5t519.5 218.5q251 0 495 -195l-91 -112q-183 148 -419 148q-279 0 -428 -190.5t-149 -426.5q0 -241 181.5 -413.5t392.5 -172.5q206 0 383 130v160h-451v80h451v169h-463
l47 144h564v-313h101v-80h-101z" />
    <glyph glyph-name="uni01E5" unicode="&#x1e5;" horiz-adv-x="957" 
d="M184 692q0 -125 83 -203.5t195 -78.5q139 0 218 86t79 188q0 122 -88.5 187.5t-208.5 65.5q-104 0 -191 -66.5t-87 -178.5zM883 -39q-6 -131 -110 -240q-122 -127 -302 -127q-227 0 -374 180l98 81q101 -127 269 -127q133 0 214 81q65 64 69 152h-411v79h412
q-11 99 -79 167q-81 80 -214 80t-227 -80l-12 -11l37 169q-199 104 -199 327q0 141 113.5 253t294.5 112q125 0 251 -19q115 0 226 62l-54 -148h-130q130 -109 130 -286q0 -214 -199 -314q181 -122 197 -312h75v-79h-75z" />
    <glyph glyph-name="Gcaron" unicode="&#x1e6;" horiz-adv-x="1441" 
d="M820 1470q251 0 495 -195l-91 -112q-183 148 -419 148q-279 0 -428 -190.5t-149 -426.5q0 -241 181.5 -413.5t392.5 -172.5q206 0 383 130v409h-463l47 144h564v-625q-44 -45 -195 -123.5t-336 -78.5q-295 0 -512.5 217t-217.5 541q0 311 228.5 529.5t519.5 218.5z
M499 1794v98l303 -179l304 179v-98l-303 -260z" />
    <glyph glyph-name="gcaron" unicode="&#x1e7;" horiz-adv-x="957" 
d="M184 692q0 -125 83 -203.5t195 -78.5q139 0 218 86t79 188q0 122 -88.5 187.5t-208.5 65.5q-104 0 -191 -66.5t-87 -178.5zM455 -272q133 0 214 86t81 187q0 125 -81 205.5t-214 80.5t-239 -91l37 169q-199 104 -199 327q0 141 113.5 253t294.5 112q125 0 251 -19
q115 0 226 62l-54 -148h-130q130 -109 130 -286q0 -214 -199 -314q199 -134 199 -351q0 -143 -121.5 -275t-301.5 -132q-227 0 -374 180l98 81q101 -127 269 -127zM195 1380v98l303 -179l304 179v-98l-303 -260z" />
    <glyph glyph-name="uni01E8" unicode="&#x1e8;" horiz-adv-x="1055" 
d="M256 1470v-700l612 700l104 -86l-539 -632l604 -727l-145 -61l-636 763v-727l-148 -36v1470zM269 1794v98l303 -179l304 179v-98l-303 -260z" />
    <glyph glyph-name="uni01E9" unicode="&#x1e9;" horiz-adv-x="885" 
d="M228 1470v-967l481 572l115 -55l-452 -529l495 -473l-110 -54l-529 514v-478l-138 -36v1470zM177 1872v98l303 -179l304 179v-98l-303 -260z" />
    <glyph glyph-name="uni01EA" unicode="&#x1ea;" horiz-adv-x="1632" 
d="M811 1327q-245 0 -418 -178.5t-173 -431.5t173 -431.5t418 -178.5t417.5 178.5t172.5 431.5t-172.5 431.5t-417.5 178.5zM1037 -2q-104 -32 -221 -32q-308 0 -526 219.5t-218 531.5t218 531.5t526 219.5t526 -219.5t218 -531.5t-218 -531q-40 -40 -82 -73q-1 0 -1 -1
l-32 -23q-122 -94 -122 -206q0 -36 22.5 -63t66.5 -27q50 0 86 32l54 -58q-76 -60 -170 -60q-71 0 -120.5 51.5t-49.5 127.5q0 57 43 112z" />
    <glyph glyph-name="uni01EB" unicode="&#x1eb;" horiz-adv-x="1199" 
d="M600 923q-171 0 -291.5 -121t-120.5 -293q0 -171 120.5 -292t291.5 -121q170 0 290.5 121t120.5 292q0 172 -120.5 293t-290.5 121zM727 -21q-61 -14 -127 -14q-226 0 -386 159.5t-160 384.5q0 226 160 386t386 160q225 0 385 -160t160 -386q0 -225 -160 -384
q-20 -21 -41 -38l-1 -1q-22 -18 -46 -34q-108 -89 -108 -195q0 -36 22.5 -63t66.5 -27q50 0 86 32l54 -58q-76 -60 -170 -60q-71 0 -120.5 51.5t-49.5 127.5q0 61 49 119z" />
    <glyph glyph-name="uni01EC" unicode="&#x1ec;" horiz-adv-x="1632" 
d="M811 1327q-245 0 -418 -178.5t-173 -431.5t173 -431.5t418 -178.5t417.5 178.5t172.5 431.5t-172.5 431.5t-417.5 178.5zM1037 -2q-104 -32 -221 -32q-308 0 -526 219.5t-218 531.5t218 531.5t526 219.5t526 -219.5t218 -531.5t-218 -531q-40 -40 -82 -73q-1 0 -1 -1
l-32 -23q-122 -94 -122 -206q0 -36 22.5 -63t66.5 -27q50 0 86 32l54 -58q-76 -60 -170 -60q-71 0 -120.5 51.5t-49.5 127.5q0 57 43 112zM536 1649v128h560v-128h-560z" />
    <glyph glyph-name="uni01ED" unicode="&#x1ed;" horiz-adv-x="1199" 
d="M600 923q-171 0 -291.5 -121t-120.5 -293q0 -171 120.5 -292t291.5 -121q170 0 290.5 121t120.5 292q0 172 -120.5 293t-290.5 121zM727 -21q-61 -14 -127 -14q-226 0 -386 159.5t-160 384.5q0 226 160 386t386 160q225 0 385 -160t160 -386q0 -225 -160 -384
q-20 -21 -41 -38l-1 -1q-22 -18 -46 -34q-108 -89 -108 -195q0 -36 22.5 -63t66.5 -27q50 0 86 32l54 -58q-76 -60 -170 -60q-71 0 -120.5 51.5t-49.5 127.5q0 61 49 119zM320 1235v128h560v-128h-560z" />
    <glyph glyph-name="uni01F0" unicode="&#x1f0;" horiz-adv-x="492" 
d="M318 1057v-1057q0 -207 -116.5 -306.5t-226.5 -99.5h-44l-50 137q34 -7 83 -7q114 0 165.5 82.5t51.5 193.5v1020zM-43 1380v98l303 -179l304 179v-98l-303 -260z" />
    <glyph glyph-name="uni01F1" unicode="&#x1f1;" horiz-adv-x="2369" 
d="M108 1434h351q356 0 535.5 -207t179.5 -479q-4 -380 -224 -564t-517 -184h-325v1434zM256 1289v-1145h163q236 0 414 156t178 412q0 257 -152.5 417t-334.5 160h-268zM1351 1434h971l-805 -1290h834l-36 -144h-1051l795 1289h-748z" />
    <glyph glyph-name="uni01F2" unicode="&#x1f2;" horiz-adv-x="2239" 
d="M108 1434h351q356 0 535.5 -207t179.5 -479q-4 -380 -224 -564t-517 -184h-325v1434zM256 1289v-1145h163q236 0 414 156t178 412q0 257 -152.5 417t-334.5 160h-268zM1383 1020h838l-686 -886h675l-36 -134h-910l686 890h-592z" />
    <glyph glyph-name="uni01F3" unicode="&#x1f3;" horiz-adv-x="2210" 
d="M993 136q-175 -170 -400 -170q-142 0 -271 72q-268 182 -268 469q0 184 105 326q178 216 444 216q115 0 201 -45.5t182 -145.5v576l141 36v-1470l-134 -30v166zM981 502q0 176 -110 289t-276 113q-167 0 -285 -118t-118 -284q0 -167 118 -285t285 -118q166 0 276 104.5
t110 298.5zM1354 1020h838l-686 -886h675l-36 -134h-910l686 890h-592z" />
    <glyph glyph-name="uni01F4" unicode="&#x1f4;" horiz-adv-x="1441" 
d="M820 1470q251 0 495 -195l-91 -112q-183 148 -419 148q-279 0 -428 -190.5t-149 -426.5q0 -241 181.5 -413.5t392.5 -172.5q206 0 383 130v409h-463l47 144h564v-625q-44 -45 -195 -123.5t-336 -78.5q-295 0 -512.5 217t-217.5 541q0 311 228.5 529.5t519.5 218.5z
M988 1892l-332 -358h-96l225 358h203z" />
    <glyph glyph-name="uni01F5" unicode="&#x1f5;" horiz-adv-x="957" 
d="M184 692q0 -125 83 -203.5t195 -78.5q139 0 218 86t79 188q0 122 -88.5 187.5t-208.5 65.5q-104 0 -191 -66.5t-87 -178.5zM455 -272q133 0 214 86t81 187q0 125 -81 205.5t-214 80.5t-239 -91l37 169q-199 104 -199 327q0 141 113.5 253t294.5 112q125 0 251 -19
q115 0 226 62l-54 -148h-130q130 -109 130 -286q0 -214 -199 -314q199 -134 199 -351q0 -143 -121.5 -275t-301.5 -132q-227 0 -374 180l98 81q101 -127 269 -127zM782 1478l-332 -358h-96l225 358h203z" />
    <glyph glyph-name="uni01F8" unicode="&#x1f8;" horiz-adv-x="1358" 
d="M108 1470l994 -1119v1083l148 36v-1506l-994 1109v-1073l-148 -36v1506zM597 1892l225 -358h-96l-332 358h203z" />
    <glyph glyph-name="uni01F9" unicode="&#x1f9;" horiz-adv-x="1004" 
d="M542 1057q180 0 276 -114t96 -267v-676l-137 -36v712q0 137 -65 195t-195 58q-110 0 -199.5 -104t-89.5 -261v-564l-138 -36v1056l138 36v-177q142 178 314 178zM422 1478l225 -358h-96l-332 358h203z" />
    <glyph glyph-name="Aringacute" unicode="&#x1fa;" horiz-adv-x="1468" 
d="M1450 1l-141 -37l-293 586h-564l-293 -586l-141 37l716 1476zM516 683h435l-217 449zM953 1751q0 -74 -52.5 -126.5t-126.5 -52.5t-126.5 52.5t-52.5 126.5t52.5 126.5t126.5 52.5t126.5 -52.5t52.5 -126.5zM774 1834q-35 0 -59 -24t-24 -59q0 -34 24 -58.5t59 -24.5
t59 24.5t24 58.5q0 35 -24 59t-59 24zM1290 1930l-270 -244l-46 47l132 197h184z" />
    <glyph glyph-name="aringacute" unicode="&#x1fb;" horiz-adv-x="946" 
d="M502 1057q157 0 255.5 -98.5t98.5 -255.5v-703l-138 -27v130q-40 -56 -115 -96.5t-159 -40.5q-175 0 -282.5 110.5t-107.5 261.5q0 176 109 279.5t267 103.5q162 0 288 -112v122q0 92 -63 147.5t-167 55.5q-199 0 -340 -87l51 159q166 51 303 51zM188 338
q0 -111 74.5 -176.5t203.5 -65.5q122 0 185.5 70t63.5 172q0 127 -66 191.5t-194 64.5q-123 0 -195 -74t-72 -182zM636 1299q0 -74 -52.5 -126.5t-126.5 -52.5t-126.5 52.5t-52.5 126.5t52.5 126.5t126.5 52.5t126.5 -52.5t52.5 -126.5zM457 1382q-35 0 -59 -24t-24 -59
q0 -34 24 -58.5t59 -24.5t59 24.5t24 58.5q0 35 -24 59t-59 24zM1103 1657l-332 -358h-96l225 358h203z" />
    <glyph glyph-name="AEacute" unicode="&#x1fc;" horiz-adv-x="1837" 
d="M981 550h-418l-387 -586l-148 36l953 1434h755l47 -145h-654v-494h552v-145h-552v-506h690l-40 -144h-798v550zM981 683v500l-332 -500h332zM1509 1892l-332 -358h-96l225 358h203z" />
    <glyph glyph-name="aeacute" unicode="&#x1fd;" horiz-adv-x="1729" 
d="M188 338q0 -111 74.5 -176.5t203.5 -65.5q122 0 193 70t71 172q0 127 -73.5 191.5t-201.5 64.5q-123 0 -195 -74t-72 -182zM866 457l639 394q-34 45 -106 67.5t-153 22.5q-205 0 -311 -154q-79 -114 -79 -240q0 -44 10 -90zM824 171q-65 -107 -165.5 -156t-214.5 -49
q-175 0 -282.5 110.5t-107.5 261.5q0 176 109 279.5t267 103.5q162 0 285 -112v122q0 92 -61.5 147.5t-165.5 55.5q-199 0 -340 -87l51 159q166 51 303 51q157 0 256 -98q47 -48 72 -109q23 30 52 58q161 156 392 156q154 0 266.5 -72.5t152.5 -184.5l-788 -477
q43 -113 147.5 -172t206.5 -59q186 0 416 188v-166q-82 -70 -187 -112.5t-218 -42.5q-254 0 -446 205zM1159 1478l-332 -358h-96l225 358h203z" />
    <glyph glyph-name="Oslashacute" unicode="&#x1fe;" horiz-adv-x="1632" 
d="M1186 1372q83 -50 157 -123q217 -220 217 -532t-218 -531.5t-526 -219.5q-143 0 -267 48l-110 -235l-104 40l114 242q-85 50 -158 125q-219 219 -219 531t218 531.5t526 219.5q143 0 266 -47l105 224l10 11l102 -43zM510 193l511 1098q-95 36 -205 36q-244 0 -417 -178.5
t-173 -431.5t173 -432q52 -54 111 -92zM1123 1240l-513 -1097q95 -36 206 -36q245 0 418 178.5t173 431.5t-173 432q-52 53 -111 91zM1101 1892l-332 -358h-96l225 358h203z" />
    <glyph glyph-name="oslashacute" unicode="&#x1ff;" horiz-adv-x="1199" 
d="M714 908q-54 15 -114 15q-171 0 -291.5 -121t-120.5 -293q0 -171 121 -292q27 -27 57 -49zM461 118q65 -22 139 -22q170 0 290.5 121t120.5 292q0 172 -120 293q-36 36 -76 61zM871 983q61 -35 114 -88q160 -160 160 -386q0 -225 -160 -384.5t-385 -159.5q-105 0 -195 35
l-105 -221l-103 33l111 236q-50 31 -94 77q-160 159 -160 384q0 226 160 386t386 160q91 0 171 -26l127 268l104 -36zM885 1478l-332 -358h-96l225 358h203z" />
    <glyph glyph-name="uni0200" unicode="&#x200;" horiz-adv-x="1468" 
d="M1450 1l-141 -37l-293 586h-564l-293 -586l-141 37l716 1476zM516 683h435l-217 449zM864 1892l225 -358h-96l-332 358h203zM583 1892l225 -358h-96l-332 358h203z" />
    <glyph glyph-name="uni0201" unicode="&#x201;" horiz-adv-x="946" 
d="M502 1057q157 0 255.5 -98.5t98.5 -255.5v-703l-138 -27v130q-40 -56 -115 -96.5t-159 -40.5q-175 0 -282.5 110.5t-107.5 261.5q0 176 109 279.5t267 103.5q162 0 288 -112v122q0 92 -63 147.5t-167 55.5q-199 0 -340 -87l51 159q166 51 303 51zM188 338
q0 -111 74.5 -176.5t203.5 -65.5q122 0 185.5 70t63.5 172q0 127 -66 191.5t-194 64.5q-123 0 -195 -74t-72 -182zM585 1478l225 -358h-96l-332 358h203zM304 1478l225 -358h-96l-332 358h203z" />
    <glyph glyph-name="uni0202" unicode="&#x202;" horiz-adv-x="1468" 
d="M1450 1l-141 -37l-293 586h-564l-293 -586l-141 37l716 1476zM516 683h435l-217 449zM735 1856q148 0 242.5 -79.5t94.5 -206.5h-100q-50 155 -238 155q-187 0 -237 -155h-100q0 127 94.5 206.5t243.5 79.5z" />
    <glyph glyph-name="uni0203" unicode="&#x203;" horiz-adv-x="946" 
d="M502 1057q157 0 255.5 -98.5t98.5 -255.5v-703l-138 -27v130q-40 -56 -115 -96.5t-159 -40.5q-175 0 -282.5 110.5t-107.5 261.5q0 176 109 279.5t267 103.5q162 0 288 -112v122q0 92 -63 147.5t-167 55.5q-199 0 -340 -87l51 159q166 51 303 51zM188 338
q0 -111 74.5 -176.5t203.5 -65.5q122 0 185.5 70t63.5 172q0 127 -66 191.5t-194 64.5q-123 0 -195 -74t-72 -182zM456 1442q148 0 242.5 -79.5t94.5 -206.5h-100q-50 155 -238 155q-187 0 -237 -155h-100q0 127 94.5 206.5t243.5 79.5z" />
    <glyph glyph-name="uni0204" unicode="&#x204;" horiz-adv-x="964" 
d="M108 1434h755l47 -145h-654v-494h553v-145h-553v-506h690l-39 -144h-799v1434zM607 1892l225 -358h-96l-332 358h203zM326 1892l225 -358h-96l-332 358h203z" />
    <glyph glyph-name="uni0205" unicode="&#x205;" horiz-adv-x="1062" 
d="M607 1064q154 0 266.5 -72.5t152.5 -184.5l-788 -477q43 -113 147.5 -172t206.5 -59q186 0 416 188v-166q-82 -70 -187 -112.5t-218 -42.5q-254 0 -401.5 169.5t-147.5 393.5q0 222 161 378.5t392 156.5zM199 457l639 394q-34 45 -106 67.5t-153 22.5q-205 0 -311 -154
q-79 -114 -79 -240q0 -44 10 -90zM670 1478l225 -358h-96l-332 358h203zM389 1478l225 -358h-96l-332 358h203z" />
    <glyph glyph-name="uni0206" unicode="&#x206;" horiz-adv-x="964" 
d="M108 1434h755l47 -145h-654v-494h553v-145h-553v-506h690l-39 -144h-799v1434zM478 1856q148 0 242.5 -79.5t94.5 -206.5h-100q-50 155 -238 155q-187 0 -237 -155h-100q0 127 94.5 206.5t243.5 79.5z" />
    <glyph glyph-name="uni0207" unicode="&#x207;" horiz-adv-x="1062" 
d="M607 1064q154 0 266.5 -72.5t152.5 -184.5l-788 -477q43 -113 147.5 -172t206.5 -59q186 0 416 188v-166q-82 -70 -187 -112.5t-218 -42.5q-254 0 -401.5 169.5t-147.5 393.5q0 222 161 378.5t392 156.5zM199 457l639 394q-34 45 -106 67.5t-153 22.5q-205 0 -311 -154
q-79 -114 -79 -240q0 -44 10 -90zM541 1442q148 0 242.5 -79.5t94.5 -206.5h-100q-50 155 -238 155q-187 0 -237 -155h-100q0 127 94.5 206.5t243.5 79.5z" />
    <glyph glyph-name="uni0208" unicode="&#x208;" horiz-adv-x="582" 
d="M365 1470v-1470l-148 -36v1470zM421 1892l225 -358h-96l-332 358h203zM140 1892l225 -358h-96l-332 358h203z" />
    <glyph glyph-name="uni0209" unicode="&#x209;" horiz-adv-x="491" 
d="M315 1057v-1057l-138 -36v1056zM376 1478l225 -358h-96l-332 358h203zM95 1478l225 -358h-96l-332 358h203z" />
    <glyph glyph-name="uni020A" unicode="&#x20a;" horiz-adv-x="582" 
d="M365 1470v-1470l-148 -36v1470zM292 1856q148 0 242.5 -79.5t94.5 -206.5h-100q-50 155 -238 155q-187 0 -237 -155h-100q0 127 94.5 206.5t243.5 79.5z" />
    <glyph glyph-name="uni020B" unicode="&#x20b;" horiz-adv-x="491" 
d="M315 1057v-1057l-138 -36v1056zM247 1442q148 0 242.5 -79.5t94.5 -206.5h-100q-50 155 -238 155q-187 0 -237 -155h-100q0 127 94.5 206.5t243.5 79.5z" />
    <glyph glyph-name="uni020C" unicode="&#x20c;" horiz-adv-x="1632" 
d="M811 1327q-245 0 -418 -178.5t-173 -431.5t173 -431.5t418 -178.5t417.5 178.5t172.5 431.5t-172.5 431.5t-417.5 178.5zM1560 717q0 -312 -218 -531.5t-526 -219.5t-526 219.5t-218 531.5t218 531.5t526 219.5t526 -219.5t218 -531.5zM946 1892l225 -358h-96l-332 358
h203zM665 1892l225 -358h-96l-332 358h203z" />
    <glyph glyph-name="uni020D" unicode="&#x20d;" horiz-adv-x="1199" 
d="M1145 509q0 -225 -160 -384.5t-385 -159.5q-226 0 -386 159.5t-160 384.5q0 226 160 386t386 160q225 0 385 -160t160 -386zM600 923q-171 0 -291.5 -121t-120.5 -293q0 -171 120.5 -292t291.5 -121q170 0 290.5 121t120.5 292q0 172 -120.5 293t-290.5 121zM729 1478
l225 -358h-96l-332 358h203zM448 1478l225 -358h-96l-332 358h203z" />
    <glyph glyph-name="uni020E" unicode="&#x20e;" horiz-adv-x="1632" 
d="M811 1327q-245 0 -418 -178.5t-173 -431.5t173 -431.5t418 -178.5t417.5 178.5t172.5 431.5t-172.5 431.5t-417.5 178.5zM1560 717q0 -312 -218 -531.5t-526 -219.5t-526 219.5t-218 531.5t218 531.5t526 219.5t526 -219.5t218 -531.5zM817 1856q148 0 242.5 -79.5
t94.5 -206.5h-100q-50 155 -238 155q-187 0 -237 -155h-100q0 127 94.5 206.5t243.5 79.5z" />
    <glyph glyph-name="uni020F" unicode="&#x20f;" horiz-adv-x="1199" 
d="M1145 509q0 -225 -160 -384.5t-385 -159.5q-226 0 -386 159.5t-160 384.5q0 226 160 386t386 160q225 0 385 -160t160 -386zM600 923q-171 0 -291.5 -121t-120.5 -293q0 -171 120.5 -292t291.5 -121q170 0 290.5 121t120.5 292q0 172 -120.5 293t-290.5 121zM600 1442
q148 0 242.5 -79.5t94.5 -206.5h-100q-50 155 -238 155q-187 0 -237 -155h-100q0 127 94.5 206.5t243.5 79.5z" />
    <glyph glyph-name="uni0210" unicode="&#x210;" horiz-adv-x="1014" 
d="M394 1434q224 0 350 -121t126 -322q0 -193 -127 -295t-237 -102l490 -563l-137 -67l-603 706v-670l-148 -36v1470h286zM256 1289v-583h120q193 0 266 89.5t73 206.5q0 126 -84 206.5t-179 80.5h-196zM582 1892l225 -358h-96l-332 358h203zM301 1892l225 -358h-96
l-332 358h203z" />
    <glyph glyph-name="uni0211" unicode="&#x211;" horiz-adv-x="679" 
d="M596 1055h65l-65 -147q-34 4 -65 4q-155 0 -229 -115t-74 -297v-500l-138 -36v1056l138 36v-238q37 98 115 167.5t253 69.5zM505 1478l225 -358h-96l-332 358h203zM224 1478l225 -358h-96l-332 358h203z" />
    <glyph glyph-name="uni0212" unicode="&#x212;" horiz-adv-x="1014" 
d="M394 1434q224 0 350 -121t126 -322q0 -193 -127 -295t-237 -102l490 -563l-137 -67l-603 706v-670l-148 -36v1470h286zM256 1289v-583h120q193 0 266 89.5t73 206.5q0 126 -84 206.5t-179 80.5h-196zM453 1856q148 0 242.5 -79.5t94.5 -206.5h-100q-50 155 -238 155
q-187 0 -237 -155h-100q0 127 94.5 206.5t243.5 79.5z" />
    <glyph glyph-name="uni0213" unicode="&#x213;" horiz-adv-x="679" 
d="M596 1055h65l-65 -147q-34 4 -65 4q-155 0 -229 -115t-74 -297v-500l-138 -36v1056l138 36v-238q37 98 115 167.5t253 69.5zM376 1442q148 0 242.5 -79.5t94.5 -206.5h-100q-50 155 -238 155q-187 0 -237 -155h-100q0 127 94.5 206.5t243.5 79.5z" />
    <glyph glyph-name="uni0214" unicode="&#x214;" horiz-adv-x="1278" 
d="M256 1470v-986q0 -216 113.5 -297t269.5 -81q200 0 291.5 109t91.5 244v975l148 36v-957q0 -325 -168 -437t-374 -112q-260 0 -390 127.5t-130 349.5v993zM769 1892l225 -358h-96l-332 358h203zM488 1892l225 -358h-96l-332 358h203z" />
    <glyph glyph-name="uni0215" unicode="&#x215;" horiz-adv-x="997" 
d="M907 1056v-1056l-138 -36v173q-130 -173 -296 -173q-172 0 -277.5 119t-105.5 260v677l138 36v-698q0 -128 74 -199t182 -71q119 0 202 110t83 268v554zM628 1478l225 -358h-96l-332 358h203zM347 1478l225 -358h-96l-332 358h203z" />
    <glyph glyph-name="uni0216" unicode="&#x216;" horiz-adv-x="1278" 
d="M256 1470v-986q0 -216 113.5 -297t269.5 -81q200 0 291.5 109t91.5 244v975l148 36v-957q0 -325 -168 -437t-374 -112q-260 0 -390 127.5t-130 349.5v993zM640 1856q148 0 242.5 -79.5t94.5 -206.5h-100q-50 155 -238 155q-187 0 -237 -155h-100q0 127 94.5 206.5
t243.5 79.5z" />
    <glyph glyph-name="uni0217" unicode="&#x217;" horiz-adv-x="997" 
d="M907 1056v-1056l-138 -36v173q-130 -173 -296 -173q-172 0 -277.5 119t-105.5 260v677l138 36v-698q0 -128 74 -199t182 -71q119 0 202 110t83 268v554zM499 1442q148 0 242.5 -79.5t94.5 -206.5h-100q-50 155 -238 155q-187 0 -237 -155h-100q0 127 94.5 206.5
t243.5 79.5z" />
    <glyph glyph-name="Scommaaccent" unicode="&#x218;" horiz-adv-x="1029" 
d="M545 1470q224 0 376 -188l-101 -101q-113 145 -293 145q-110 0 -185 -66.5t-75 -179.5q0 -191 270 -268q420 -142 420 -440q0 -197 -124.5 -302.5t-312.5 -105.5q-269 0 -448 249l116 108q105 -209 336 -209q139 0 208.5 60.5t69.5 181.5q0 215 -275 296
q-422 160 -422 405q0 203 140.5 309t299.5 106zM668 -96l-187 -308h-119l147 291z" />
    <glyph glyph-name="scommaaccent" unicode="&#x219;" horiz-adv-x="813" 
d="M423 1057q175 0 317 -109l-79 -99q-102 94 -238 94q-98 0 -156 -47t-58 -123q0 -150 232 -181q318 -77 318 -321q0 -145 -104 -226t-247 -81q-213 0 -354 166l90 90q112 -130 253 -130q103 0 163.5 50t60.5 131q0 155 -226 195q-319 66 -319 293q0 139 108.5 218.5
t238.5 79.5zM560 -96l-187 -308h-119l147 291z" />
    <glyph glyph-name="uni021A" unicode="&#x21a;" horiz-adv-x="997" 
d="M69 1434h910v-145h-392v-1289l-150 -36v1325h-419zM652 -96l-187 -308h-119l147 291z" />
    <glyph glyph-name="uni021B" unicode="&#x21b;" horiz-adv-x="632" 
d="M301 1326v-306h309v-130h-309v-505q0 -179 54.5 -237t139.5 -58q66 0 119 22v-122q-60 -26 -148 -26q-128 0 -215.5 90t-87.5 302v534h-145l40 130h105v270zM469 -96l-187 -308h-119l147 291z" />
    <glyph glyph-name="uni021E" unicode="&#x21e;" horiz-adv-x="1351" 
d="M256 1470v-699h839v663l148 36v-1470l-148 -36v670h-839v-634l-148 -36v1470zM372 1794v98l303 -179l304 179v-98l-303 -260z" />
    <glyph glyph-name="uni021F" unicode="&#x21f;" horiz-adv-x="1007" 
d="M228 1470v-600q132 187 310 187q184 0 281.5 -121.5t97.5 -281.5v-654l-138 -36v661q0 146 -66 225.5t-186 79.5q-113 0 -206 -77t-93 -159v-694l-138 -36v1470zM202 1794v98l303 -179l304 179v-98l-303 -260z" />
    <glyph glyph-name="uni0226" unicode="&#x226;" horiz-adv-x="1468" 
d="M1450 1l-141 -37l-293 586h-564l-293 -586l-141 37l716 1476zM516 683h435l-217 449zM734 1585l-127 128l127 127l128 -127z" />
    <glyph glyph-name="uni0227" unicode="&#x227;" horiz-adv-x="946" 
d="M502 1057q157 0 255.5 -98.5t98.5 -255.5v-703l-138 -27v130q-40 -56 -115 -96.5t-159 -40.5q-175 0 -282.5 110.5t-107.5 261.5q0 176 109 279.5t267 103.5q162 0 288 -112v122q0 92 -63 147.5t-167 55.5q-199 0 -340 -87l51 159q166 51 303 51zM188 338
q0 -111 74.5 -176.5t203.5 -65.5q122 0 185.5 70t63.5 172q0 127 -66 191.5t-194 64.5q-123 0 -195 -74t-72 -182zM457 1171l-127 128l127 127l128 -127z" />
    <glyph glyph-name="uni0228" unicode="&#x228;" horiz-adv-x="964" 
d="M418 0h-310v1434h755l47 -145h-654v-494h553v-145h-553v-506h690l-39 -144h-405q-23 -36 -23 -69h33q83 0 126.5 -47.5t43.5 -113.5q0 -56 -44.5 -112t-125.5 -56q-94 0 -140 59l54 58q36 -42 86 -42q45 0 67 27.5t22 63.5q0 44 -23.5 69.5t-65.5 25.5q-41 0 -75 -18
l-32 22z" />
    <glyph glyph-name="uni0229" unicode="&#x229;" horiz-adv-x="1062" 
d="M199 457l639 394q-128 90 -259 90q-205 0 -311 -154q-79 -114 -79 -240q0 -44 10 -90zM511 -27q-190 25 -309 163q-148 169 -148 393q0 222 161 378.5t392 156.5q191 0 305 -105t114 -152l-788 -477q43 -113 147.5 -172t206.5 -59q186 0 416 188v-166
q-82 -70 -187 -112.5t-218 -42.5q-8 0 -15 1q-16 -17 -16 -44h33q83 0 126.5 -47.5t43.5 -113.5q0 -56 -44.5 -112t-125.5 -56q-94 0 -140 59l54 58q36 -42 86 -42q45 0 67 27.5t22 63.5q0 44 -23.5 69.5t-65.5 25.5q-41 0 -75 -18l-32 22z" />
    <glyph glyph-name="uni022A" unicode="&#x22a;" horiz-adv-x="1632" 
d="M811 1327q-245 0 -418 -178.5t-173 -431.5t173 -431.5t418 -178.5t417.5 178.5t172.5 431.5t-172.5 431.5t-417.5 178.5zM1560 717q0 -312 -218 -531.5t-526 -219.5t-526 219.5t-218 531.5t218 531.5t526 219.5t526 -219.5t218 -531.5zM980 1521l-127 128l127 127
l128 -127zM651 1521l-127 128l127 127l128 -127zM534 1862v128h560v-128h-560z" />
    <glyph glyph-name="uni022B" unicode="&#x22b;" horiz-adv-x="1199" 
d="M1145 509q0 -225 -160 -384.5t-385 -159.5q-226 0 -386 159.5t-160 384.5q0 226 160 386t386 160q225 0 385 -160t160 -386zM600 923q-171 0 -291.5 -121t-120.5 -293q0 -171 120.5 -292t291.5 -121q170 0 290.5 121t120.5 292q0 172 -120.5 293t-290.5 121zM764 1172
l-127 128l127 127l128 -127zM435 1172l-127 128l127 127l128 -127zM320 1555v128h560v-128h-560z" />
    <glyph glyph-name="uni022C" unicode="&#x22c;" horiz-adv-x="1632" 
d="M811 1327q-245 0 -418 -178.5t-173 -431.5t173 -431.5t418 -178.5t417.5 178.5t172.5 431.5t-172.5 431.5t-417.5 178.5zM1560 717q0 -312 -218 -531.5t-526 -219.5t-526 219.5t-218 531.5t218 531.5t526 219.5t526 -219.5t218 -531.5zM700 1734q51 0 127.5 -40
t119.5 -40q95 0 159 80l35 -40q-105 -172 -205 -172q-54 1 -129 38.5t-132 37.5q-81 0 -153 -76l-31 48q104 164 209 164zM537 1862v128h560v-128h-560z" />
    <glyph glyph-name="uni022D" unicode="&#x22d;" horiz-adv-x="1199" 
d="M1145 509q0 -225 -160 -384.5t-385 -159.5q-226 0 -386 159.5t-160 384.5q0 226 160 386t386 160q225 0 385 -160t160 -386zM600 923q-171 0 -291.5 -121t-120.5 -293q0 -171 120.5 -292t291.5 -121q170 0 290.5 121t120.5 292q0 172 -120.5 293t-290.5 121zM484 1405
q51 0 127.5 -40t119.5 -40q95 0 159 80l35 -40q-105 -172 -205 -172q-54 1 -129 38.5t-132 37.5q-81 0 -153 -76l-31 48q104 164 209 164zM320 1533v128h560v-128h-560z" />
    <glyph glyph-name="uni022E" unicode="&#x22e;" horiz-adv-x="1632" 
d="M811 1327q-245 0 -418 -178.5t-173 -431.5t173 -431.5t418 -178.5t417.5 178.5t172.5 431.5t-172.5 431.5t-417.5 178.5zM1560 717q0 -312 -218 -531.5t-526 -219.5t-526 219.5t-218 531.5t218 531.5t526 219.5t526 -219.5t218 -531.5zM816 1585l-127 128l127 127
l128 -127z" />
    <glyph glyph-name="uni022F" unicode="&#x22f;" horiz-adv-x="1199" 
d="M1145 509q0 -225 -160 -384.5t-385 -159.5q-226 0 -386 159.5t-160 384.5q0 226 160 386t386 160q225 0 385 -160t160 -386zM600 923q-171 0 -291.5 -121t-120.5 -293q0 -171 120.5 -292t291.5 -121q170 0 290.5 121t120.5 292q0 172 -120.5 293t-290.5 121zM599 1171
l-127 128l127 127l128 -127z" />
    <glyph glyph-name="uni0230" unicode="&#x230;" horiz-adv-x="1632" 
d="M811 1327q-245 0 -418 -178.5t-173 -431.5t173 -431.5t418 -178.5t417.5 178.5t172.5 431.5t-172.5 431.5t-417.5 178.5zM1560 717q0 -312 -218 -531.5t-526 -219.5t-526 219.5t-218 531.5t218 531.5t526 219.5t526 -219.5t218 -531.5zM815 1520l-127 128l127 127
l128 -127zM536 1862v128h560v-128h-560z" />
    <glyph glyph-name="uni0231" unicode="&#x231;" horiz-adv-x="1199" 
d="M1145 509q0 -225 -160 -384.5t-385 -159.5q-226 0 -386 159.5t-160 384.5q0 226 160 386t386 160q225 0 385 -160t160 -386zM600 923q-171 0 -291.5 -121t-120.5 -293q0 -171 120.5 -292t291.5 -121q170 0 290.5 121t120.5 292q0 172 -120.5 293t-290.5 121zM599 1171
l-127 128l127 127l128 -127zM320 1554v128h560v-128h-560z" />
    <glyph glyph-name="uni0232" unicode="&#x232;" horiz-adv-x="1145" 
d="M166 1470l426 -766l394 766l141 -36l-748 -1470l-130 36l258 535l-489 899zM293 1649v128h560v-128h-560z" />
    <glyph glyph-name="uni0233" unicode="&#x233;" horiz-adv-x="1090" 
d="M165 1070l412 -736l361 736l134 -50l-714 -1426l-124 62l264 519l-480 849zM265 1235v128h560v-128h-560z" />
    <glyph glyph-name="uni0237" unicode="&#x237;" horiz-adv-x="492" 
d="M318 1057v-1057q0 -207 -116.5 -306.5t-226.5 -99.5h-44l-50 137q34 -7 83 -7q114 0 165.5 82.5t51.5 193.5v1020z" />
    <glyph glyph-name="uni02BB" unicode="&#x2bb;" horiz-adv-x="447" 
d="M223 1120q-115 62 -115 135q0 49 101 157l61 66l69 -41q-93 -95 -109 -157q0 -49 65 -75z" />
    <glyph glyph-name="afii57929" unicode="&#x2bc;" horiz-adv-x="447" 
d="M224 1379q115 -61 115 -134q0 -50 -101 -158l-61 -66l-69 41q93 96 109 158q0 49 -65 74z" />
    <glyph glyph-name="afii64937" unicode="&#x2bd;" horiz-adv-x="447" 
d="M309 1393q-65 -25 -65 -74q16 -62 109 -158l-69 -41l-61 66q-101 108 -101 158q0 73 115 134z" />
    <glyph glyph-name="uni02BE" unicode="&#x2be;" horiz-adv-x="946" 
d="M510 1216q35 0 59 24.5t24 58.5q0 35 -24 59t-59 24v96q74 0 126.5 -52.5t52.5 -126.5t-52.5 -126.5t-126.5 -52.5v96z" />
    <glyph glyph-name="uni02BF" unicode="&#x2bf;" horiz-adv-x="946" 
d="M510 1382q-35 0 -59 -24t-24 -59q0 -34 24 -58.5t59 -24.5v-96q-74 0 -126.5 52.5t-52.5 126.5t52.5 126.5t126.5 52.5v-96z" />
    <glyph glyph-name="circumflex" unicode="&#x2c6;" horiz-adv-x="946" 
d="M509 1478l303 -260v-98l-304 179l-303 -179v98z" />
    <glyph glyph-name="caron" unicode="&#x2c7;" horiz-adv-x="946" 
d="M205 1380v98l303 -179l304 179v-98l-303 -260z" />
    <glyph glyph-name="uni02C8" unicode="&#x2c8;" horiz-adv-x="946" 
d="M445 1478h107v-358h-107v358z" />
    <glyph glyph-name="uni02C9" unicode="&#x2c9;" horiz-adv-x="946" 
d="M224 1235v128h560v-128h-560z" />
    <glyph glyph-name="uni02CA" unicode="&#x2ca;" horiz-adv-x="946" 
d="M733 1478l-332 -358h-96l225 358h203z" />
    <glyph glyph-name="uni02CB" unicode="&#x2cb;" horiz-adv-x="946" 
d="M508 1478l225 -358h-96l-332 358h203z" />
    <glyph glyph-name="uni02CC" unicode="&#x2cc;" horiz-adv-x="946" 
d="M445 -96h107v-308h-107v308z" />
    <glyph glyph-name="uni02CD" unicode="&#x2cd;" horiz-adv-x="946" 
d="M224 -314v128h560v-128h-560z" />
    <glyph glyph-name="uni02CE" unicode="&#x2ce;" horiz-adv-x="946" 
d="M508 -96l225 -308h-96l-332 308h203z" />
    <glyph glyph-name="uni02CF" unicode="&#x2cf;" horiz-adv-x="946" 
d="M733 -96l-332 -308h-96l225 308h203z" />
    <glyph glyph-name="breve" unicode="&#x2d8;" horiz-adv-x="946" 
d="M162 1442h100q50 -155 237 -155q188 0 238 155h100q0 -127 -94.5 -206.5t-242.5 -79.5q-149 0 -243.5 79.5t-94.5 206.5z" />
    <glyph glyph-name="dotaccent" unicode="&#x2d9;" horiz-adv-x="946" 
d="M496 1171l-127 128l127 127l128 -127z" />
    <glyph glyph-name="ring" unicode="&#x2da;" horiz-adv-x="946" 
d="M689 1299q0 -74 -52.5 -126.5t-126.5 -52.5t-126.5 52.5t-52.5 126.5t52.5 126.5t126.5 52.5t126.5 -52.5t52.5 -126.5zM510 1382q-35 0 -59 -24t-24 -59q0 -34 24 -58.5t59 -24.5t59 24.5t24 58.5q0 35 -24 59t-59 24z" />
    <glyph glyph-name="ogonek" unicode="&#x2db;" horiz-adv-x="946" 
d="M857 0q-155 -104 -155 -230q0 -36 22.5 -63t66.5 -27q50 0 86 32l54 -58q-76 -60 -170 -60q-71 0 -120.5 51.5t-49.5 127.5q0 102 140 200z" />
    <glyph glyph-name="tilde" unicode="&#x2dc;" horiz-adv-x="946" 
d="M393 1405q51 0 127.5 -40t119.5 -40q95 0 159 80l35 -40q-105 -172 -205 -172q-54 1 -129 38.5t-132 37.5q-81 0 -153 -76l-31 48q104 164 209 164z" />
    <glyph glyph-name="hungarumlaut" unicode="&#x2dd;" horiz-adv-x="946" 
d="M575 1478l-332 -358h-96l225 358h203zM856 1478l-332 -358h-96l225 358h203z" />
    <glyph glyph-name="uni02F3" unicode="&#x2f3;" horiz-adv-x="946" 
d="M689 -284q0 -74 -52.5 -126.5t-126.5 -52.5t-126.5 52.5t-52.5 126.5t52.5 126.5t126.5 52.5t126.5 -52.5t52.5 -126.5zM510 -201q-35 0 -59 -24t-24 -59q0 -34 24 -58.5t59 -24.5t59 24.5t24 58.5q0 35 -24 59t-59 24z" />
    <glyph glyph-name="uni02F7" unicode="&#x2f7;" horiz-adv-x="946" 
d="M357 -144q51 0 127.5 -40t119.5 -40q95 0 159 80l35 -40q-105 -172 -205 -172q-54 1 -129 38.5t-132 37.5q-81 0 -153 -76l-31 48q104 164 209 164z" />
    <glyph glyph-name="gravecomb" unicode="&#x300;" horiz-adv-x="0" 
d="M-424 1478l225 -358h-96l-332 358h203z" />
    <glyph glyph-name="acutecomb" unicode="&#x301;" horiz-adv-x="0" 
d="M-171 1478l-332 -358h-96l225 358h203z" />
    <glyph glyph-name="uni0302" unicode="&#x302;" horiz-adv-x="0" 
d="M-459 1478l303 -260v-98l-304 179l-303 -179v98z" />
    <glyph glyph-name="tildecomb" unicode="&#x303;" horiz-adv-x="0" 
d="M-555 1405q51 0 127.5 -40t119.5 -40q95 0 159 80l35 -40q-105 -172 -205 -172q-54 1 -129 38.5t-132 37.5q-81 0 -153 -76l-31 48q104 164 209 164z" />
    <glyph glyph-name="uni0304" unicode="&#x304;" horiz-adv-x="0" 
d="M-737 1235v128h560v-128h-560z" />
    <glyph glyph-name="uni0305" unicode="&#x305;" horiz-adv-x="0" 
d="M-1228 1639h1228v-60h-1228v60z" />
    <glyph glyph-name="uni0306" unicode="&#x306;" horiz-adv-x="0" 
d="M-790 1442h100q50 -155 237 -155q188 0 238 155h100q0 -127 -94.5 -206.5t-242.5 -79.5q-149 0 -243.5 79.5t-94.5 206.5z" />
    <glyph glyph-name="uni0307" unicode="&#x307;" horiz-adv-x="0" 
d="M-463 1171l-127 128l127 127l128 -127z" />
    <glyph glyph-name="uni0308" unicode="&#x308;" horiz-adv-x="0" 
d="M-316 1172l-127 128l127 127l128 -127zM-645 1172l-127 128l127 127l128 -127z" />
    <glyph glyph-name="hookabovecomb" unicode="&#x309;" horiz-adv-x="0" 
d="M-452 1538q81 0 139.5 -45.5t58.5 -107.5q0 -90 -76.5 -132.5t-76.5 -74.5v-58h-89v58q0 58 67.5 96t67.5 91q0 39 -27.5 66t-63.5 27q-49 0 -84.5 -20.5t-55.5 -61.5l-56 46q91 116 196 116z" />
    <glyph glyph-name="uni030A" unicode="&#x30a;" horiz-adv-x="0" 
d="M-259 1299q0 -74 -52.5 -126.5t-126.5 -52.5t-126.5 52.5t-52.5 126.5t52.5 126.5t126.5 52.5t126.5 -52.5t52.5 -126.5zM-438 1382q-35 0 -59 -24t-24 -59q0 -34 24 -58.5t59 -24.5t59 24.5t24 58.5q0 35 -24 59t-59 24z" />
    <glyph glyph-name="uni030B" unicode="&#x30b;" horiz-adv-x="0" 
d="M-281 1478l-332 -358h-96l225 358h203zM0 1478l-332 -358h-96l225 358h203z" />
    <glyph glyph-name="uni030C" unicode="&#x30c;" horiz-adv-x="0" 
d="M-791 1380v98l303 -179l304 179v-98l-303 -260z" />
    <glyph glyph-name="uni030D" unicode="&#x30d;" horiz-adv-x="0" 
d="M-495 1478h107v-358h-107v358z" />
    <glyph glyph-name="uni030E" unicode="&#x30e;" horiz-adv-x="0" 
d="M-598 1478h107v-358h-107v358zM-394 1478h107v-358h-107v358z" />
    <glyph glyph-name="uni030F" unicode="&#x30f;" horiz-adv-x="0" 
d="M-388 1478l225 -358h-96l-332 358h203zM-669 1478l225 -358h-96l-332 358h203z" />
    <glyph glyph-name="uni0310" unicode="&#x310;" horiz-adv-x="0" 
d="M-794 1502l-127 128l127 127l128 -127zM-1128 1442h100q50 -155 237 -155q188 0 238 155h100q0 -127 -94.5 -206.5t-242.5 -79.5q-149 0 -243.5 79.5t-94.5 206.5z" />
    <glyph glyph-name="uni0311" unicode="&#x311;" horiz-adv-x="0" 
d="M-447 1442q148 0 242.5 -79.5t94.5 -206.5h-100q-50 155 -238 155q-187 0 -237 -155h-100q0 127 94.5 206.5t243.5 79.5z" />
    <glyph glyph-name="uni0312" unicode="&#x312;" horiz-adv-x="0" 
d="M-450 1120q-115 62 -115 135q0 49 101 157l61 66l69 -41q-93 -95 -109 -157q0 -49 65 -75z" />
    <glyph glyph-name="uni0313" unicode="&#x313;" horiz-adv-x="0" 
d="M-415 1478q115 -61 115 -134q0 -50 -101 -158l-61 -66l-69 41q93 96 109 158q0 49 -65 74z" />
    <glyph glyph-name="uni0314" unicode="&#x314;" horiz-adv-x="0" 
d="M-398 1393q-65 -25 -65 -74q16 -62 109 -158l-69 -41l-61 66q-101 108 -101 158q0 73 115 134z" />
    <glyph glyph-name="uni0315" unicode="&#x315;" horiz-adv-x="0" 
d="M-37 1478q115 -61 115 -134q0 -50 -101 -158l-61 -66l-69 41q93 96 109 158q0 49 -65 74z" />
    <glyph glyph-name="uni031B" unicode="&#x31b;" horiz-adv-x="0" 
d="M-115 1181q115 -71 115 -155q0 -58 -101 -183l-61 -76l-69 47q93 111 109 183q0 57 -65 86z" />
    <glyph glyph-name="dotbelowcomb" unicode="&#x323;" horiz-adv-x="0" 
d="M-490 -377l-127 128l127 127l128 -127z" />
    <glyph glyph-name="uni0324" unicode="&#x324;" horiz-adv-x="0" 
d="M-315 -377l-127 128l127 127l128 -127zM-644 -377l-127 128l127 127l128 -127z" />
    <glyph glyph-name="uni0325" unicode="&#x325;" horiz-adv-x="0" 
d="M-342 -279q0 -74 -52.5 -126.5t-126.5 -52.5t-126.5 52.5t-52.5 126.5t52.5 126.5t126.5 52.5t126.5 -52.5t52.5 -126.5zM-521 -196q-35 0 -59 -24t-24 -59q0 -34 24 -58.5t59 -24.5t59 24.5t24 58.5q0 35 -24 59t-59 24z" />
    <glyph glyph-name="uni0326" unicode="&#x326;" horiz-adv-x="0" 
d="M-338 -96l-187 -308h-119l147 291z" />
    <glyph glyph-name="uni032D" unicode="&#x32d;" horiz-adv-x="0" 
d="M-458 -96l303 -223v-85l-304 154l-303 -154v85z" />
    <glyph glyph-name="uni032E" unicode="&#x32e;" horiz-adv-x="0" 
d="M-799 -117h100q50 -156 237 -156q188 0 238 156h100q0 -128 -94.5 -207.5t-242.5 -79.5q-149 0 -243.5 79.5t-94.5 207.5z" />
    <glyph glyph-name="uni032F" unicode="&#x32f;" horiz-adv-x="0" 
d="M-457 -118q148 0 242.5 -79.5t94.5 -206.5h-100q-50 155 -238 155q-187 0 -237 -155h-100q0 127 94.5 206.5t243.5 79.5z" />
    <glyph glyph-name="uni0330" unicode="&#x330;" horiz-adv-x="0" 
d="M-593 -144q51 0 127.5 -40t119.5 -40q95 0 159 80l35 -40q-105 -172 -205 -172q-54 1 -129 38.5t-132 37.5q-81 0 -153 -76l-31 48q104 164 209 164z" />
    <glyph glyph-name="uni0331" unicode="&#x331;" horiz-adv-x="0" 
d="M-748 -314v128h560v-128h-560z" />
    <glyph glyph-name="uni0332" unicode="&#x332;" horiz-adv-x="0" 
d="M0 -150v-80h-1024v80h1024z" />
    <glyph glyph-name="uni0352" unicode="&#x352;" horiz-adv-x="0" 
d="M-435 1171l-127 128l127 127l128 -127zM-447 1680q148 0 242.5 -79.5t94.5 -206.5h-100q-50 155 -238 155q-187 0 -237 -155h-100q0 127 94.5 206.5t243.5 79.5z" />
    <glyph glyph-name="uni035D" unicode="&#x35d;" horiz-adv-x="0" 
d="M-675 1442h100q100 -155 574 -155q476 0 576 155h100q0 -127 -189 -206.5t-485 -79.5q-298 0 -487 79.5t-189 206.5z" />
    <glyph glyph-name="uni035E" unicode="&#x35e;" horiz-adv-x="0" 
d="M-513 1239v120h1031v-120h-1031z" />
    <glyph glyph-name="uni035F" unicode="&#x35f;" horiz-adv-x="0" 
d="M-473 -346v125h1031v-125h-1031z" />
    <glyph glyph-name="uni0360" unicode="&#x360;" horiz-adv-x="0" 
d="M575 1332q-40 -87 -137 -130.5t-253 -43.5h-10q-98 0 -224 20q-152 20 -248 20q-78 0 -121 -17.5t-67 -60.5h-88q38 90 136 134.5t258 44.5q92 -1 236 -20.5t242 -19.5q72 0 116 17t72 56h88z" />
    <glyph glyph-name="uni0361" unicode="&#x361;" horiz-adv-x="0" 
d="M1 1442q296 0 485 -79.5t189 -206.5h-100q-100 155 -576 155q-474 0 -574 -155h-100q0 127 189 206.5t487 79.5z" />
    <glyph glyph-name="uni0374" unicode="&#x374;" horiz-adv-x="543" 
d="M424 1435l-232 -358h-96l125 358h203z" />
    <glyph glyph-name="uni0375" unicode="&#x375;" horiz-adv-x="543" 
d="M424 -108l-232 -358h-96l125 358h203z" />
    <glyph glyph-name="uni037E" unicode="&#x37e;" horiz-adv-x="519" 
d="M260 528l-115 131l115 132l116 -132zM367 236l-235 -570h-123l184 537z" />
    <glyph glyph-name="tonos" unicode="&#x384;" horiz-adv-x="543" 
d="M424 1478l-232 -358h-96l125 358h203z" />
    <glyph glyph-name="dieresistonos" unicode="&#x385;" horiz-adv-x="1024" 
d="M710 1120l-127 128l127 127l128 -127zM381 1120l-127 128l127 127l128 -127zM815 1589l-269 -244l-46 47l132 197h183z" />
    <glyph glyph-name="Alphatonos" unicode="&#x386;" horiz-adv-x="1468" 
d="M424 1478l-232 -358h-96l125 358h203zM1450 1l-141 -37l-293 586h-564l-293 -586l-141 37l716 1476zM516 683h435l-217 449z" />
    <glyph glyph-name="anoteleia" unicode="&#x387;" horiz-adv-x="447" 
d="M223 1020l-127 128l127 127l128 -127z" />
    <glyph glyph-name="Epsilontonos" unicode="&#x388;" horiz-adv-x="1280" 
d="M424 1478l-232 -358h-96l125 358h203zM451 1434h755l47 -145h-654v-494h553v-145h-553v-506h690l-39 -144h-799v1434z" />
    <glyph glyph-name="Etatonos" unicode="&#x389;" horiz-adv-x="1667" 
d="M424 1478l-232 -358h-96l125 358h203zM599 1470v-699h839v663l148 36v-1470l-148 -36v670h-839v-634l-148 -36v1470z" />
    <glyph glyph-name="Iotatonos" unicode="&#x38a;" horiz-adv-x="829" 
d="M424 1478l-232 -358h-96l125 358h203zM612 1470v-1470l-152 -36v1470z" />
    <glyph glyph-name="Omicrontonos" unicode="&#x38c;" horiz-adv-x="1775" 
d="M424 1478l-232 -358h-96l125 358h203zM954 1327q-245 0 -418 -178.5t-173 -431.5t173 -431.5t418 -178.5t417.5 178.5t172.5 431.5t-172.5 431.5t-417.5 178.5zM1703 717q0 -312 -218 -531.5t-526 -219.5t-526 219.5t-218 531.5t218 531.5t526 219.5t526 -219.5
t218 -531.5z" />
    <glyph glyph-name="Upsilontonos" unicode="&#x38e;" horiz-adv-x="1688" 
d="M424 1478l-232 -358h-96l125 358h203zM1670 1434l-479 -899v-535l-168 -36v571l-462 899l141 54l404 -784l416 784z" />
    <glyph glyph-name="Omegatonos" unicode="&#x38f;" horiz-adv-x="1726" 
d="M424 1478l-232 -358h-96l125 358h203zM985 1327q-225 0 -371 -178.5t-146 -431.5t97 -407.5t97 -184.5v-125h-311l-36 144h197q-197 261 -197 573t196 531.5t474 219.5q277 0 473 -219.5t196 -531.5t-196 -573h196l-36 -144h-310v125q0 30 96.5 184.5t96.5 407.5
t-145.5 431.5t-370.5 178.5z" />
    <glyph glyph-name="iotadieresistonos" unicode="&#x390;" horiz-adv-x="492" 
d="M322 1056v-1056l-152 -36v1056zM412 1120l-127 128l127 127l128 -127zM83 1120l-127 128l127 127l128 -127zM517 1589l-269 -244l-46 47l132 197h183z" />
    <glyph glyph-name="Alpha" unicode="&#x391;" horiz-adv-x="1468" 
d="M1450 1l-141 -37l-293 586h-564l-293 -586l-141 37l716 1476zM516 683h435l-217 449z" />
    <glyph glyph-name="Beta" unicode="&#x392;" horiz-adv-x="1011" 
d="M484 1434q173 0 298 -92t125 -287q0 -209 -185 -315q217 -124 217 -335q0 -214 -132 -309.5t-294 -95.5h-405v1434h376zM256 1289v-491h203q172 0 231 72t59 196q0 95 -62.5 159t-191.5 64h-239zM256 665v-521h257q133 0 200 74.5t67 186.5q0 118 -81.5 189t-200.5 71
h-242z" />
    <glyph glyph-name="Gamma" unicode="&#x393;" horiz-adv-x="838" 
d="M108 1434h665l47 -145h-560v-1289l-152 -36v1470z" />
    <glyph glyph-name="uni0394" unicode="&#x394;" horiz-adv-x="1228" 
d="M620 1062l-377 -918h743zM622 1470l588 -1470h-1192z" />
    <glyph glyph-name="Epsilon" unicode="&#x395;" horiz-adv-x="964" 
d="M108 1434h755l47 -145h-654v-494h553v-145h-553v-506h690l-39 -144h-799v1434z" />
    <glyph glyph-name="Zeta" unicode="&#x396;" horiz-adv-x="1123" 
d="M105 1434h971l-805 -1290h834l-36 -144h-1051l795 1289h-748z" />
    <glyph glyph-name="Eta" unicode="&#x397;" horiz-adv-x="1351" 
d="M256 1470v-699h839v663l148 36v-1470l-148 -36v670h-839v-634l-148 -36v1470z" />
    <glyph glyph-name="Theta" unicode="&#x398;" horiz-adv-x="1632" 
d="M811 1327q-245 0 -418 -178.5t-173 -431.5t173 -431.5t418 -178.5t417.5 178.5t172.5 431.5t-172.5 431.5t-417.5 178.5zM1560 717q0 -312 -218 -531.5t-526 -219.5t-526 219.5t-218 531.5t218 531.5t526 219.5t526 -219.5t218 -531.5zM1175 641h-724v152h724v-152z" />
    <glyph glyph-name="Iota" unicode="&#x399;" horiz-adv-x="586" 
d="M369 1470v-1470l-152 -36v1470z" />
    <glyph glyph-name="Kappa" unicode="&#x39a;" horiz-adv-x="1055" 
d="M256 1470v-700l612 700l104 -86l-539 -632l604 -727l-145 -61l-636 763v-727l-148 -36v1470z" />
    <glyph glyph-name="Lambda" unicode="&#x39b;" horiz-adv-x="1468" 
d="M159 -36l-141 37l716 1476l716 -1476l-141 -37l-575 1168z" />
    <glyph glyph-name="Mu" unicode="&#x39c;" horiz-adv-x="1660" 
d="M387 1010l-210 -1046l-141 36l299 1470l495 -1161l495 1161l299 -1470l-140 -36l-212 1046l-442 -1046z" />
    <glyph glyph-name="Nu" unicode="&#x39d;" horiz-adv-x="1358" 
d="M108 1470l994 -1119v1083l148 36v-1506l-994 1109v-1073l-148 -36v1506z" />
    <glyph glyph-name="Xi" unicode="&#x39e;" horiz-adv-x="1358" 
d="M90 0v152h1178v-152h-1178zM1268 1434v-152h-1178v152h1178zM1034 641h-700v152h700v-152z" />
    <glyph glyph-name="Omicron" unicode="&#x39f;" horiz-adv-x="1632" 
d="M811 1327q-245 0 -418 -178.5t-173 -431.5t173 -431.5t418 -178.5t417.5 178.5t172.5 431.5t-172.5 431.5t-417.5 178.5zM1560 717q0 -312 -218 -531.5t-526 -219.5t-526 219.5t-218 531.5t218 531.5t526 219.5t526 -219.5t218 -531.5z" />
    <glyph glyph-name="Pi" unicode="&#x3a0;" horiz-adv-x="1228" 
d="M339 1289v-1289l-159 -36v1325h-162l51 145h1141v-145h-163v-1289l-159 -36v1325h-549z" />
    <glyph glyph-name="Rho" unicode="&#x3a1;" horiz-adv-x="979" 
d="M444 1434q172 0 317.5 -133t145.5 -353q0 -234 -145.5 -360.5t-317.5 -126.5h-188v-461l-148 -36v1470h336zM256 1289v-684h188q118 0 216 91t98 254q0 128 -102 233.5t-212 105.5h-188z" />
    <glyph glyph-name="Sigma" unicode="&#x3a3;" horiz-adv-x="896" 
d="M760 717l-427 -573h509l-47 -144h-755l545 717l-545 717h755l47 -145h-509z" />
    <glyph glyph-name="Tau" unicode="&#x3a4;" horiz-adv-x="997" 
d="M69 1434h910v-145h-392v-1289l-150 -36v1325h-419z" />
    <glyph glyph-name="Upsilon" unicode="&#x3a5;" horiz-adv-x="1145" 
d="M1127 1434l-479 -899v-535l-168 -36v571l-462 899l141 54l404 -784l416 784z" />
    <glyph glyph-name="Phi" unicode="&#x3a6;" horiz-adv-x="1334" 
d="M593 1180q-143 -21 -251 -132q-133 -137 -133 -331t133 -331q108 -111 251 -132v926zM741 1179v-924q138 23 243 131q132 137 132 331t-132 331q-105 108 -243 131zM593 1314v120l148 36v-156q200 -23 347 -171q174 -176 174 -426t-174 -425q-147 -149 -347 -172v-120
l-148 -36v156q-199 23 -346 172q-175 175 -175 425t175 426q147 148 346 171z" />
    <glyph glyph-name="Chi" unicode="&#x3a7;" horiz-adv-x="1346" 
d="M584 783l-468 651l144 36l414 -562l412 562l145 -36l-469 -651l566 -783l-133 -36l-521 698l-522 -698l-134 36z" />
    <glyph glyph-name="Psi" unicode="&#x3a8;" horiz-adv-x="1368" 
d="M610 745v689l148 36v-725q179 22 275.5 168.5t96.5 372.5v148l148 36v-184q0 -288 -140 -477.5t-380 -212.5v-596l-148 -36v631q-241 24 -380.5 213.5t-139.5 477.5v148l148 36v-184q0 -226 96.5 -372.5t275.5 -168.5z" />
    <glyph glyph-name="uni03A9" unicode="&#x3a9;" horiz-adv-x="1483" 
d="M742 1327q-225 0 -371 -178.5t-146 -431.5t97 -407.5t97 -184.5v-125h-311l-36 144h197q-197 261 -197 573t196 531.5t474 219.5q277 0 473 -219.5t196 -531.5t-196 -573h196l-36 -144h-310v125q0 30 96.5 184.5t96.5 407.5t-145.5 431.5t-370.5 178.5z" />
    <glyph glyph-name="Iotadieresis" unicode="&#x3aa;" horiz-adv-x="586" 
d="M369 1470v-1470l-152 -36v1470zM459 1586l-127 128l127 127l128 -127zM130 1586l-127 128l127 127l128 -127z" />
    <glyph glyph-name="Upsilondieresis" unicode="&#x3ab;" horiz-adv-x="1145" 
d="M1127 1434l-479 -899v-535l-168 -36v571l-462 899l141 54l404 -784l416 784zM737 1586l-127 128l127 127l128 -127zM408 1586l-127 128l127 127l128 -127z" />
    <glyph glyph-name="alphatonos" unicode="&#x3ac;" horiz-adv-x="1013" 
d="M479 925q-121 0 -206 -127.5t-85 -294.5t85 -291.5t206 -124.5t206 124.5t85 291.5t-85 294.5t-206 127.5zM771 857v163l152 36v-1056l-152 -36v164q-108 -164 -292 -164q-179 0 -302 160.5t-123 378.5q0 238 124 395.5t301 157.5q176 0 292 -199zM707 1478l-232 -358
h-96l125 358h203z" />
    <glyph glyph-name="epsilontonos" unicode="&#x3ad;" horiz-adv-x="924" 
d="M500 1055q191 0 303 -125l-70 -91q-140 94 -246 94q-94 0 -144 -45t-50 -132q0 -80 57 -124.5t150 -44.5h103l-1 -107h-97q-103 0 -164 -49.5t-61 -137.5q0 -103 56.5 -154t181.5 -51q183 0 298 182l90 -65q-134 -238 -392 -238q-254 0 -357 111.5t-103 218.5
q0 159 271 245q-217 75 -217 244q0 117 119.5 193t272.5 76zM699 1478l-232 -358h-96l125 358h203z" />
    <glyph glyph-name="etatonos" unicode="&#x3ae;" horiz-adv-x="913" 
d="M90 1020l152 36v-236q178 205 347 205q110 0 167 -98t57 -230v-837q0 -157 36 -230l-143 -36q-45 52 -45 387v716q0 87 -44.5 140t-112.5 53q-96 0 -179 -74.5t-83 -166.5v-649l-152 -36v1056zM688 1478l-232 -358h-96l125 358h203z" />
    <glyph glyph-name="iotatonos" unicode="&#x3af;" horiz-adv-x="492" 
d="M322 1056v-1056l-152 -36v1056zM465 1478l-232 -358h-96l125 358h203z" />
    <glyph glyph-name="upsilondieresistonos" unicode="&#x3b0;" horiz-adv-x="1019" 
d="M929 1056v-1056l-138 -36v173q-141 -173 -307 -173q-172 0 -283 119t-111 260v677l152 36v-698q0 -128 72.5 -199t180.5 -71q149 0 219 135t70 243v554zM676 1120l-127 128l127 127l128 -127zM347 1120l-127 128l127 127l128 -127zM781 1589l-269 -244l-46 47l132 197
h183z" />
    <glyph glyph-name="alpha" unicode="&#x3b1;" horiz-adv-x="1013" 
d="M479 925q-121 0 -206 -127.5t-85 -294.5t85 -291.5t206 -124.5t206 124.5t85 291.5t-85 294.5t-206 127.5zM771 857v163l152 36v-1056l-152 -36v164q-108 -164 -292 -164q-179 0 -302 160.5t-123 378.5q0 238 124 395.5t301 157.5q176 0 292 -199z" />
    <glyph glyph-name="beta" unicode="&#x3b2;" horiz-adv-x="1050" 
d="M491 1470q187 0 298.5 -91.5t111.5 -240.5q0 -183 -185 -313q280 -119 280 -391q0 -202 -138 -335t-349 -133q-150 0 -257 98v-85q0 -199 -45 -350l-143 -35q36 186 36 292v1022q0 273 93.5 417.5t297.5 144.5zM252 1121v-946q0 -46 83.5 -93.5t155.5 -47.5q136 1 234 94
t99 251v5q0 182 -101 295t-220 113h-120v67h122q121 0 181.5 77.5t60.5 201.5q0 118 -82.5 187.5t-182.5 69.5q-131 0 -180.5 -92t-49.5 -182z" />
    <glyph glyph-name="gamma" unicode="&#x3b3;" horiz-adv-x="984" 
d="M403 -406v625l-385 801l154 36l320 -653l320 653l154 -36l-385 -801v-589z" />
    <glyph glyph-name="delta" unicode="&#x3b4;" horiz-adv-x="1199" 
d="M600 923q-171 0 -291.5 -121t-120.5 -293q0 -171 120.5 -292t291.5 -121q170 0 290.5 121t120.5 292q0 172 -120.5 293t-290.5 121zM1145 509q0 -225 -160 -384.5t-385 -159.5q-226 0 -386 159.5t-160 384.5q0 226 160 386q87 87 155 125q-179 195 -179 414h822l-85 -132
h-566q99 -257 280 -257q197 -1 350.5 -140.5t153.5 -395.5z" />
    <glyph glyph-name="epsilon" unicode="&#x3b5;" horiz-adv-x="924" 
d="M500 1055q191 0 303 -125l-70 -91q-140 94 -246 94q-94 0 -144 -45t-50 -132q0 -80 57 -124.5t150 -44.5h103l-1 -107h-97q-103 0 -164 -49.5t-61 -137.5q0 -103 56.5 -154t181.5 -51q183 0 298 182l90 -65q-134 -238 -392 -238q-254 0 -357 111.5t-103 218.5
q0 159 271 245q-217 75 -217 244q0 117 119.5 193t272.5 76z" />
    <glyph glyph-name="zeta" unicode="&#x3b6;" horiz-adv-x="953" 
d="M814 1434v-132q-598 -367 -598 -756q0 -342 243 -342q252 0 345.5 -92t94.5 -196q0 -178 -86 -250t-241 -72h-184l40 141h205q114 0 115 122q0 178 -293 178q-306 0 -379 284q-18 81 -22 188q0 515 565 795h-489v132h684z" />
    <glyph glyph-name="eta" unicode="&#x3b7;" horiz-adv-x="913" 
d="M90 1020l152 36v-236q178 205 347 205q110 0 167 -98t57 -230v-837q0 -157 36 -230l-143 -36q-45 52 -45 387v716q0 87 -44.5 140t-112.5 53q-96 0 -179 -74.5t-83 -166.5v-649l-152 -36v1056z" />
    <glyph glyph-name="theta" unicode="&#x3b8;" horiz-adv-x="1100" 
d="M887 767q-8 229 -98 395q-99 184 -239 184t-239 -184q-90 -166 -98 -395h674zM213 667q9 -227 98 -393q99 -185 239 -185t239 185q89 166 98 393h-674zM1046 717q0 -312 -145.5 -532.5t-350.5 -220.5t-350.5 220.5t-145.5 532.5t145.5 532.5t350.5 220.5t350.5 -220.5
t145.5 -532.5z" />
    <glyph glyph-name="iota" unicode="&#x3b9;" horiz-adv-x="492" 
d="M322 1056v-1056l-152 -36v1056z" />
    <glyph glyph-name="kappa" unicode="&#x3ba;" horiz-adv-x="925" 
d="M220 1056v-553l489 572l115 -55l-452 -529l495 -473l-110 -54l-537 514v-478l-130 -36v1056z" />
    <glyph glyph-name="lambda" unicode="&#x3bb;" horiz-adv-x="929" 
d="M782 -36l-307 670l-323 -670l-134 36l383 795l-293 639l152 36l651 -1470z" />
    <glyph glyph-name="uni03BC" unicode="&#x3bc;" horiz-adv-x="1033" 
d="M791 54q-99 -90 -249 -90q-206 0 -307 203v-537l-145 -36v1426l152 36v-590q0 -108 70 -243t219 -135q108 0 180.5 71t72.5 199v662l159 36v-1056l-152 -36v90z" />
    <glyph glyph-name="nu" unicode="&#x3bd;" horiz-adv-x="1051" 
d="M170 1060l377 -807q280 418 334 807l152 -40q-134 -532 -509 -1065l-506 1065z" />
    <glyph glyph-name="xi" unicode="&#x3be;" horiz-adv-x="953" 
d="M718 933v-136h-114q-134 0 -261 -114t-127 -299q0 -229 341 -272q341 -63 342 -262q0 -114 -86 -186t-241 -72h-184l40 135h144q88 0 132 33.5t44 94.5q0 107 -345 165q-345 78 -349 335q0 341 345 510q-102 0 -173.5 76t-71.5 187q0 170 113 249t284 79h172l36 -137
h-179q-143 0 -215 -39t-72 -152q0 -85 82.5 -136.5t228.5 -58.5h114z" />
    <glyph glyph-name="omicron" unicode="&#x3bf;" horiz-adv-x="1199" 
d="M1145 509q0 -225 -160 -384.5t-385 -159.5q-226 0 -386 159.5t-160 384.5q0 226 160 386t386 160q225 0 385 -160t160 -386zM600 923q-171 0 -291.5 -121t-120.5 -293q0 -171 120.5 -292t291.5 -121q170 0 290.5 121t120.5 292q0 172 -120.5 293t-290.5 121z" />
    <glyph glyph-name="pi" unicode="&#x3c0;" horiz-adv-x="977" 
d="M959 1020v-132h-163v-888h-140v888h-337v-529q0 -147 -45 -359l-138 -36q45 246 45 395v529h-163l36 132h905z" />
    <glyph glyph-name="rho" unicode="&#x3c1;" horiz-adv-x="1221" 
d="M90 -406v939q0 221 156.5 372t381.5 151q142 0 271 -72q268 -182 268 -469q0 -184 -105 -326q-178 -216 -444 -216q-115 0 -203.5 47t-186.5 159v-549zM1029 520q0 167 -118 285t-284 118q-167 0 -285 -118t-118 -285q0 -166 118 -284t285 -118q166 0 284 118t118 284z
" />
    <glyph glyph-name="sigma1" unicode="&#x3c2;" horiz-adv-x="972" 
d="M918 1056l-36 -136h-278q-164 0 -276 -116t-112 -280q0 -188 80 -265t240 -77q155 0 258.5 -92t104.5 -226q0 -128 -86 -200t-241 -72h-184l40 141h205q114 0 115 122q0 89 -68 133.5t-177 44.5q-187 0 -316 121.5t-133 340.5q1 215 157.5 388t392.5 173h314z" />
    <glyph glyph-name="sigma" unicode="&#x3c3;" horiz-adv-x="1317" 
d="M600 923q-171 0 -291.5 -121t-120.5 -293q0 -171 120.5 -292t291.5 -121q170 0 290.5 121t120.5 292q0 172 -120.5 293t-290.5 121zM992 886q153 -156 153 -377q0 -225 -160 -384.5t-385 -159.5q-226 0 -386 159.5t-160 384.5q0 226 160 386t386 160q105 0 196 -35h501
l-36 -134h-269z" />
    <glyph glyph-name="tau" unicode="&#x3c4;" horiz-adv-x="942" 
d="M888 1020l36 -135h-382v-885l-142 -36v921h-346v135h834z" />
    <glyph glyph-name="upsilon" unicode="&#x3c5;" horiz-adv-x="1019" 
d="M929 1056v-1056l-138 -36v173q-141 -173 -307 -173q-172 0 -283 119t-111 260v677l152 36v-698q0 -128 72.5 -199t180.5 -71q149 0 219 135t70 243v554z" />
    <glyph glyph-name="phi" unicode="&#x3c6;" horiz-adv-x="1284" 
d="M451 1043v-124q-71 0 -158 -105.5t-87 -298.5q0 -167 114.5 -285.5t243.5 -118.5v621q0 187 83.5 249t158.5 62q201 0 312.5 -155.5t111.5 -372.5q0 -243 -176 -386t-356 -148v-351l-134 -36v387q-174 0 -342 148.5t-168 385.5q0 227 131.5 377.5t265.5 150.5zM698 109
q155 0 271 104.5t116 301.5q0 206 -93.5 305t-192.5 99q-101 0 -101 -188v-622z" />
    <glyph glyph-name="chi" unicode="&#x3c7;" horiz-adv-x="1075" 
d="M538 493l363 587l156 -60l-424 -681l424 -685l-152 -60l-367 591l-368 -591l-152 60l424 685l-424 681l156 60z" />
    <glyph glyph-name="psi" unicode="&#x3c8;" horiz-adv-x="1368" 
d="M610 149v871l148 27v-898q179 22 275.5 168.5t96.5 372.5v330l148 27v-357q0 -288 -140 -477.5t-380 -212.5v-379l-148 -27v406q-241 23 -380.5 212.5t-139.5 477.5v330l148 27v-357q0 -226 96.5 -372.5t275.5 -168.5z" />
    <glyph glyph-name="omega" unicode="&#x3c9;" horiz-adv-x="1472" 
d="M423 -24q-141 0 -255 121.5t-114 387.5q0 322 307 571l152 -36q-307 -213 -307 -535q0 -214 69.5 -306.5t152.5 -92.5q116 0 174 46.5t58 169.5v546h152v-546q0 -123 58 -169.5t174 -46.5q83 0 152.5 92t69.5 307q0 322 -307 535l151 36q308 -249 308 -571
q0 -267 -114 -388t-255 -121q-204 0 -313 130q-109 -130 -313 -130z" />
    <glyph glyph-name="iotadieresis" unicode="&#x3ca;" horiz-adv-x="492" 
d="M322 1056v-1056l-152 -36v1056zM412 1172l-127 128l127 127l128 -127zM83 1172l-127 128l127 127l128 -127z" />
    <glyph glyph-name="upsilondieresis" unicode="&#x3cb;" horiz-adv-x="1019" 
d="M929 1056v-1056l-138 -36v173q-141 -173 -307 -173q-172 0 -283 119t-111 260v677l152 36v-698q0 -128 72.5 -199t180.5 -71q149 0 219 135t70 243v554zM674 1172l-127 128l127 127l128 -127zM345 1172l-127 128l127 127l128 -127z" />
    <glyph glyph-name="omicrontonos" unicode="&#x3cc;" horiz-adv-x="1199" 
d="M1145 509q0 -225 -160 -384.5t-385 -159.5q-226 0 -386 159.5t-160 384.5q0 226 160 386t386 160q225 0 385 -160t160 -386zM600 923q-171 0 -291.5 -121t-120.5 -293q0 -171 120.5 -292t291.5 -121q170 0 290.5 121t120.5 292q0 172 -120.5 293t-290.5 121zM818 1478
l-232 -358h-96l125 358h203z" />
    <glyph glyph-name="upsilontonos" unicode="&#x3cd;" horiz-adv-x="1019" 
d="M929 1056v-1056l-138 -36v173q-141 -173 -307 -173q-172 0 -283 119t-111 260v677l152 36v-698q0 -128 72.5 -199t180.5 -71q149 0 219 135t70 243v554zM728 1478l-232 -358h-96l125 358h203z" />
    <glyph glyph-name="omegatonos" unicode="&#x3ce;" horiz-adv-x="1472" 
d="M423 -24q-141 0 -255 121.5t-114 387.5q0 322 307 571l152 -36q-307 -213 -307 -535q0 -214 69.5 -306.5t152.5 -92.5q116 0 174 46.5t58 169.5v546h152v-546q0 -123 58 -169.5t174 -46.5q83 0 152.5 92t69.5 307q0 322 -307 535l151 36q308 -249 308 -571
q0 -267 -114 -388t-255 -121q-204 0 -313 130q-109 -130 -313 -130zM955 1478l-232 -358h-96l125 358h203z" />
    <glyph glyph-name="uni1E00" unicode="&#x1e00;" horiz-adv-x="1468" 
d="M1450 1l-141 -37l-293 586h-564l-293 -586l-141 37l716 1476zM516 683h435l-217 449zM913 -279q0 -74 -52.5 -126.5t-126.5 -52.5t-126.5 52.5t-52.5 126.5t52.5 126.5t126.5 52.5t126.5 -52.5t52.5 -126.5zM734 -196q-35 0 -59 -24t-24 -59q0 -34 24 -58.5t59 -24.5
t59 24.5t24 58.5q0 35 -24 59t-59 24z" />
    <glyph glyph-name="uni1E01" unicode="&#x1e01;" horiz-adv-x="946" 
d="M502 1057q157 0 255.5 -98.5t98.5 -255.5v-703l-138 -27v130q-40 -56 -115 -96.5t-159 -40.5q-175 0 -282.5 110.5t-107.5 261.5q0 176 109 279.5t267 103.5q162 0 288 -112v122q0 92 -63 147.5t-167 55.5q-199 0 -340 -87l51 159q166 51 303 51zM188 338
q0 -111 74.5 -176.5t203.5 -65.5q122 0 185.5 70t63.5 172q0 127 -66 191.5t-194 64.5q-123 0 -195 -74t-72 -182zM634 -279q0 -74 -52.5 -126.5t-126.5 -52.5t-126.5 52.5t-52.5 126.5t52.5 126.5t126.5 52.5t126.5 -52.5t52.5 -126.5zM455 -196q-35 0 -59 -24t-24 -59
q0 -34 24 -58.5t59 -24.5t59 24.5t24 58.5q0 35 -24 59t-59 24z" />
    <glyph glyph-name="uni1E02" unicode="&#x1e02;" horiz-adv-x="1011" 
d="M484 1434q173 0 298 -92t125 -287q0 -209 -185 -315q217 -124 217 -335q0 -214 -132 -309.5t-294 -95.5h-405v1434h376zM256 1289v-491h203q172 0 231 72t59 196q0 95 -62.5 159t-191.5 64h-239zM256 665v-521h257q133 0 200 74.5t67 186.5q0 118 -81.5 189t-200.5 71
h-242zM523 1585l-127 128l127 127l128 -127z" />
    <glyph glyph-name="uni1E03" unicode="&#x1e03;" horiz-adv-x="1221" 
d="M228 1470v-627q98 112 186.5 159t203.5 47q266 0 444 -216q105 -142 105 -326q0 -287 -268 -469q-129 -72 -271 -72q-225 0 -381.5 151t-156.5 372v945zM627 904q-167 0 -285 -118t-118 -284q0 -167 118 -285t285 -118q166 0 284 118t118 285q0 166 -118 284t-284 118z
M756 1171l-127 128l127 127l128 -127z" />
    <glyph glyph-name="uni1E04" unicode="&#x1e04;" horiz-adv-x="1011" 
d="M484 1434q173 0 298 -92t125 -287q0 -209 -185 -315q217 -124 217 -335q0 -214 -132 -309.5t-294 -95.5h-405v1434h376zM256 1289v-491h203q172 0 231 72t59 196q0 95 -62.5 159t-191.5 64h-239zM256 665v-521h257q133 0 200 74.5t67 186.5q0 118 -81.5 189t-200.5 71
h-242zM523 -377l-127 128l127 127l128 -127z" />
    <glyph glyph-name="uni1E05" unicode="&#x1e05;" horiz-adv-x="1221" 
d="M228 1470v-627q98 112 186.5 159t203.5 47q266 0 444 -216q105 -142 105 -326q0 -287 -268 -469q-129 -72 -271 -72q-225 0 -381.5 151t-156.5 372v945zM627 904q-167 0 -285 -118t-118 -284q0 -167 118 -285t285 -118q166 0 284 118t118 285q0 166 -118 284t-284 118z
M628 -377l-127 128l127 127l128 -127z" />
    <glyph glyph-name="uni1E06" unicode="&#x1e06;" horiz-adv-x="1011" 
d="M484 1434q173 0 298 -92t125 -287q0 -209 -185 -315q217 -124 217 -335q0 -214 -132 -309.5t-294 -95.5h-405v1434h376zM256 1289v-491h203q172 0 231 72t59 196q0 95 -62.5 159t-191.5 64h-239zM256 665v-521h257q133 0 200 74.5t67 186.5q0 118 -81.5 189t-200.5 71
h-242zM244 -314v128h560v-128h-560z" />
    <glyph glyph-name="uni1E07" unicode="&#x1e07;" horiz-adv-x="1221" 
d="M228 1470v-627q98 112 186.5 159t203.5 47q266 0 444 -216q105 -142 105 -326q0 -287 -268 -469q-129 -72 -271 -72q-225 0 -381.5 151t-156.5 372v945zM627 904q-167 0 -285 -118t-118 -284q0 -167 118 -285t285 -118q166 0 284 118t118 285q0 166 -118 284t-284 118z
M349 -314v128h560v-128h-560z" />
    <glyph glyph-name="uni1E08" unicode="&#x1e08;" horiz-adv-x="1188" 
d="M710 -29q-240 30 -418 190q-220 196 -220 518q0 352 234.5 567t520.5 215q201 0 318 -70l25 -170l-3 -4q-153 100 -380 100q-205 0 -380.5 -174t-175.5 -449q0 -252 171 -419t407 -167q203 0 347 101l3 -3l-36 -181q-142 -61 -299 -61q-19 0 -38 1q-15 -16 -15 -42h33
q83 0 126.5 -47.5t43.5 -113.5q0 -56 -44.5 -112t-125.5 -56q-94 0 -140 59l54 58q36 -42 86 -42q45 0 67 27.5t22 63.5q0 44 -23.5 69.5t-65.5 25.5q-41 0 -75 -18l-32 22zM906 1892l-332 -358h-96l225 358h203z" />
    <glyph glyph-name="uni1E09" unicode="&#x1e09;" horiz-adv-x="972" 
d="M534 -30q-228 26 -386 230q-94 143 -94 307v15q0 259 221 433q145 102 310 102q190 0 369 -127l-73 -94h-7q-128 94 -282 94q-166 0 -274 -105q-127 -132 -127 -321q0 -203 177 -340q97 -65 206 -65h15q160 0 278 101h7l76 -93q-154 -136 -339 -140q-16 -17 -16 -44h33
q83 0 126.5 -47.5t43.5 -113.5q0 -56 -44.5 -112t-125.5 -56q-94 0 -140 59l54 58q36 -42 86 -42q45 0 67 27.5t22 63.5q0 44 -23.5 69.5t-65.5 25.5q-41 0 -75 -18l-32 22zM789 1478l-332 -358h-96l225 358h203z" />
    <glyph glyph-name="uni1E0A" unicode="&#x1e0a;" horiz-adv-x="1246" 
d="M108 1434h351q356 0 535.5 -207t179.5 -479q-4 -380 -224 -564t-517 -184h-325v1434zM256 1289v-1145h163q236 0 414 156t178 412q0 257 -152.5 417t-334.5 160h-268zM641 1585l-127 128l127 127l128 -127z" />
    <glyph glyph-name="uni1E0B" unicode="&#x1e0b;" horiz-adv-x="1217" 
d="M993 136q-175 -170 -400 -170q-142 0 -271 72q-268 182 -268 469q0 184 105 326q178 216 444 216q115 0 201 -45.5t182 -145.5v576l141 36v-1470l-134 -30v166zM981 502q0 176 -110 289t-276 113q-167 0 -285 -118t-118 -284q0 -167 118 -285t285 -118q166 0 276 104.5
t110 298.5zM563 1171l-127 128l127 127l128 -127z" />
    <glyph glyph-name="uni1E0C" unicode="&#x1e0c;" horiz-adv-x="1246" 
d="M108 1434h351q356 0 535.5 -207t179.5 -479q-4 -380 -224 -564t-517 -184h-325v1434zM256 1289v-1145h163q236 0 414 156t178 412q0 257 -152.5 417t-334.5 160h-268zM541 -377l-127 128l127 127l128 -127z" />
    <glyph glyph-name="uni1E0D" unicode="&#x1e0d;" horiz-adv-x="1217" 
d="M993 136q-175 -170 -400 -170q-142 0 -271 72q-268 182 -268 469q0 184 105 326q178 216 444 216q115 0 201 -45.5t182 -145.5v576l141 36v-1470l-134 -30v166zM981 502q0 176 -110 289t-276 113q-167 0 -285 -118t-118 -284q0 -167 118 -285t285 -118q166 0 276 104.5
t110 298.5zM590 -377l-127 128l127 127l128 -127z" />
    <glyph glyph-name="uni1E0E" unicode="&#x1e0e;" horiz-adv-x="1246" 
d="M108 1434h351q356 0 535.5 -207t179.5 -479q-4 -380 -224 -564t-517 -184h-325v1434zM256 1289v-1145h163q236 0 414 156t178 412q0 257 -152.5 417t-334.5 160h-268zM261 -314v128h560v-128h-560z" />
    <glyph glyph-name="uni1E0F" unicode="&#x1e0f;" horiz-adv-x="1217" 
d="M993 136q-175 -170 -400 -170q-142 0 -271 72q-268 182 -268 469q0 184 105 326q178 216 444 216q115 0 201 -45.5t182 -145.5v576l141 36v-1470l-134 -30v166zM981 502q0 176 -110 289t-276 113q-167 0 -285 -118t-118 -284q0 -167 118 -285t285 -118q166 0 276 104.5
t110 298.5zM311 -314v128h560v-128h-560z" />
    <glyph glyph-name="uni1E10" unicode="&#x1e10;" horiz-adv-x="1246" 
d="M256 1289v-1145h163q236 0 414 156t178 412q0 257 -152.5 417t-334.5 160h-268zM372 0h-264v1434h351q356 0 535.5 -207t179.5 -479q-4 -380 -224 -564q-212 -177 -494 -184q-23 -44 -23 -77h33q83 0 126.5 -47.5t43.5 -113.5q0 -56 -44.5 -112t-125.5 -56q-94 0 -140 59
l54 58q36 -42 86 -42q45 0 67 27.5t22 63.5q0 44 -23.5 69.5t-65.5 25.5q-41 0 -75 -18l-32 22z" />
    <glyph glyph-name="uni1E11" unicode="&#x1e11;" horiz-adv-x="1217" 
d="M191 551v-22q0 -252 210 -383q100 -50 188 -50q223 0 368 216q47 84 47 177q0 229 -191 369q-101 61 -195 61h-33q-218 0 -350 -209q-44 -83 -44 -159zM557 -33q-274 11 -438 277q-65 127 -65 256q0 305 293 495q118 58 249 58q232 0 390 -192v-3h4v574q0 10 133 33l4 -4
v-1445q0 -10 -130 -35l-4 3v180q-153 -178 -356 -196q-18 -16 -18 -45h33q83 0 126.5 -47.5t43.5 -113.5q0 -56 -44.5 -112t-125.5 -56q-94 0 -140 59l54 58q36 -42 86 -42q45 0 67 27.5t22 63.5q0 44 -23.5 69.5t-65.5 25.5q-41 0 -75 -18l-32 22z" />
    <glyph glyph-name="uni1E12" unicode="&#x1e12;" horiz-adv-x="1246" 
d="M108 1434h351q356 0 535.5 -207t179.5 -479q-4 -380 -224 -564t-517 -184h-325v1434zM256 1289v-1145h163q236 0 414 156t178 412q0 257 -152.5 417t-334.5 160h-268zM542 -96l303 -223v-85l-304 154l-303 -154v85z" />
    <glyph glyph-name="uni1E13" unicode="&#x1e13;" horiz-adv-x="1217" 
d="M993 136q-175 -170 -400 -170q-142 0 -271 72q-268 182 -268 469q0 184 105 326q178 216 444 216q115 0 201 -45.5t182 -145.5v576l141 36v-1470l-134 -30v166zM981 502q0 176 -110 289t-276 113q-167 0 -285 -118t-118 -284q0 -167 118 -285t285 -118q166 0 276 104.5
t110 298.5zM591 -96l303 -223v-85l-304 154l-303 -154v85z" />
    <glyph glyph-name="uni1E14" unicode="&#x1e14;" horiz-adv-x="964" 
d="M108 1434h755l47 -145h-654v-494h553v-145h-553v-506h690l-39 -144h-799v1434zM249 1572v128h560v-128h-560zM442 1990l133 -244h-76l-240 244h183z" />
    <glyph glyph-name="uni1E15" unicode="&#x1e15;" horiz-adv-x="1062" 
d="M607 1064q154 0 266.5 -72.5t152.5 -184.5l-788 -477q43 -113 147.5 -172t206.5 -59q186 0 416 188v-166q-82 -70 -187 -112.5t-218 -42.5q-254 0 -401.5 169.5t-147.5 393.5q0 222 161 378.5t392 156.5zM199 457l639 394q-34 45 -106 67.5t-153 22.5q-205 0 -311 -154
q-79 -114 -79 -240q0 -44 10 -90zM260 1235v128h560v-128h-560zM458 1811l225 -358h-96l-332 358h203z" />
    <glyph glyph-name="uni1E16" unicode="&#x1e16;" horiz-adv-x="964" 
d="M108 1434h755l47 -145h-654v-494h553v-145h-553v-506h690l-39 -144h-799v1434zM249 1572v128h560v-128h-560zM799 1990l-240 -244h-76l133 244h183z" />
    <glyph glyph-name="uni1E17" unicode="&#x1e17;" horiz-adv-x="1062" 
d="M607 1064q154 0 266.5 -72.5t152.5 -184.5l-788 -477q43 -113 147.5 -172t206.5 -59q186 0 416 188v-166q-82 -70 -187 -112.5t-218 -42.5q-254 0 -401.5 169.5t-147.5 393.5q0 222 161 378.5t392 156.5zM199 457l639 394q-34 45 -106 67.5t-153 22.5q-205 0 -311 -154
q-79 -114 -79 -240q0 -44 10 -90zM260 1235v128h560v-128h-560zM827 1811l-332 -358h-96l225 358h203z" />
    <glyph glyph-name="uni1E18" unicode="&#x1e18;" horiz-adv-x="964" 
d="M108 1434h755l47 -145h-654v-494h553v-145h-553v-506h690l-39 -144h-799v1434zM528 -96l303 -223v-85l-304 154l-303 -154v85z" />
    <glyph glyph-name="uni1E19" unicode="&#x1e19;" horiz-adv-x="1062" 
d="M607 1064q154 0 266.5 -72.5t152.5 -184.5l-788 -477q43 -113 147.5 -172t206.5 -59q186 0 416 188v-166q-82 -70 -187 -112.5t-218 -42.5q-254 0 -401.5 169.5t-147.5 393.5q0 222 161 378.5t392 156.5zM199 457l639 394q-34 45 -106 67.5t-153 22.5q-205 0 -311 -154
q-79 -114 -79 -240q0 -44 10 -90zM541 -96l303 -223v-85l-304 154l-303 -154v85z" />
    <glyph glyph-name="uni1E1A" unicode="&#x1e1a;" horiz-adv-x="964" 
d="M108 1434h755l47 -145h-654v-494h553v-145h-553v-506h690l-39 -144h-799v1434zM411 -144q51 0 127.5 -40t119.5 -40q95 0 159 80l35 -40q-105 -172 -205 -172q-54 1 -129 38.5t-132 37.5q-81 0 -153 -76l-31 48q104 164 209 164z" />
    <glyph glyph-name="uni1E1B" unicode="&#x1e1b;" horiz-adv-x="1062" 
d="M607 1064q154 0 266.5 -72.5t152.5 -184.5l-788 -477q43 -113 147.5 -172t206.5 -59q186 0 416 188v-166q-82 -70 -187 -112.5t-218 -42.5q-254 0 -401.5 169.5t-147.5 393.5q0 222 161 378.5t392 156.5zM199 457l639 394q-34 45 -106 67.5t-153 22.5q-205 0 -311 -154
q-79 -114 -79 -240q0 -44 10 -90zM424 -144q51 0 127.5 -40t119.5 -40q95 0 159 80l35 -40q-105 -172 -205 -172q-54 1 -129 38.5t-132 37.5q-81 0 -153 -76l-31 48q104 164 209 164z" />
    <glyph glyph-name="uni1E1C" unicode="&#x1e1c;" horiz-adv-x="964" 
d="M418 0h-310v1434h755l47 -145h-654v-494h553v-145h-553v-506h690l-39 -144h-405q-23 -36 -23 -69h33q83 0 126.5 -47.5t43.5 -113.5q0 -56 -44.5 -112t-125.5 -56q-94 0 -140 59l54 58q36 -42 86 -42q45 0 67 27.5t22 63.5q0 44 -23.5 69.5t-65.5 25.5q-41 0 -75 -18
l-32 22zM190 1856h100q50 -155 237 -155q188 0 238 155h100q0 -127 -94.5 -206.5t-242.5 -79.5q-149 0 -243.5 79.5t-94.5 206.5z" />
    <glyph glyph-name="uni1E1D" unicode="&#x1e1d;" horiz-adv-x="1062" 
d="M199 457l639 394q-128 90 -259 90q-205 0 -311 -154q-79 -114 -79 -240q0 -44 10 -90zM511 -27q-190 25 -309 163q-148 169 -148 393q0 222 161 378.5t392 156.5q191 0 305 -105t114 -152l-788 -477q43 -113 147.5 -172t206.5 -59q186 0 416 188v-166
q-82 -70 -187 -112.5t-218 -42.5q-8 0 -15 1q-16 -17 -16 -44h33q83 0 126.5 -47.5t43.5 -113.5q0 -56 -44.5 -112t-125.5 -56q-94 0 -140 59l54 58q36 -42 86 -42q45 0 67 27.5t22 63.5q0 44 -23.5 69.5t-65.5 25.5q-41 0 -75 -18l-32 22zM203 1442h100q50 -155 237 -155
q188 0 238 155h100q0 -127 -94.5 -206.5t-242.5 -79.5q-149 0 -243.5 79.5t-94.5 206.5z" />
    <glyph glyph-name="uni1E1E" unicode="&#x1e1e;" horiz-adv-x="838" 
d="M108 1434h665l47 -145h-560v-494h430v-145h-430v-650l-152 -36v1470zM466 1585l-127 128l127 127l128 -127z" />
    <glyph glyph-name="uni1E1F" unicode="&#x1e1f;" horiz-adv-x="668" 
d="M571 1468h43l36 -133q-40 3 -83 3q-104 0 -178 -75.5t-74 -187.5v-55h310v-130h-310v-890l-138 -36v926h-159l47 130h112v55q0 177 108.5 285t285.5 108zM336 1585l-127 128l127 127l128 -127z" />
    <glyph glyph-name="uni1E20" unicode="&#x1e20;" horiz-adv-x="1441" 
d="M820 1470q251 0 495 -195l-91 -112q-183 148 -419 148q-279 0 -428 -190.5t-149 -426.5q0 -241 181.5 -413.5t392.5 -172.5q206 0 383 130v409h-463l47 144h564v-625q-44 -45 -195 -123.5t-336 -78.5q-295 0 -512.5 217t-217.5 541q0 311 228.5 529.5t519.5 218.5z
M423 1649v128h560v-128h-560z" />
    <glyph glyph-name="uni1E21" unicode="&#x1e21;" horiz-adv-x="957" 
d="M184 692q0 -125 83 -203.5t195 -78.5q139 0 218 86t79 188q0 122 -88.5 187.5t-208.5 65.5q-104 0 -191 -66.5t-87 -178.5zM455 -272q133 0 214 86t81 187q0 125 -81 205.5t-214 80.5t-239 -91l37 169q-199 104 -199 327q0 141 113.5 253t294.5 112q125 0 251 -19
q115 0 226 62l-54 -148h-130q130 -109 130 -286q0 -214 -199 -314q199 -134 199 -351q0 -143 -121.5 -275t-301.5 -132q-227 0 -374 180l98 81q101 -127 269 -127zM219 1235v128h560v-128h-560z" />
    <glyph glyph-name="uni1E22" unicode="&#x1e22;" horiz-adv-x="1351" 
d="M256 1470v-699h839v663l148 36v-1470l-148 -36v670h-839v-634l-148 -36v1470zM675 1585l-127 128l127 127l128 -127z" />
    <glyph glyph-name="uni1E23" unicode="&#x1e23;" horiz-adv-x="1007" 
d="M228 1470v-600q132 187 310 187q184 0 281.5 -121.5t97.5 -281.5v-654l-138 -36v661q0 146 -66 225.5t-186 79.5q-113 0 -206 -77t-93 -159v-694l-138 -36v1470zM503 1171l-127 128l127 127l128 -127z" />
    <glyph glyph-name="uni1E24" unicode="&#x1e24;" horiz-adv-x="1351" 
d="M256 1470v-699h839v663l148 36v-1470l-148 -36v670h-839v-634l-148 -36v1470zM675 -377l-127 128l127 127l128 -127z" />
    <glyph glyph-name="uni1E25" unicode="&#x1e25;" horiz-adv-x="1007" 
d="M228 1470v-600q132 187 310 187q184 0 281.5 -121.5t97.5 -281.5v-654l-138 -36v661q0 146 -66 225.5t-186 79.5q-113 0 -206 -77t-93 -159v-694l-138 -36v1470zM503 -377l-127 128l127 127l128 -127z" />
    <glyph glyph-name="uni1E26" unicode="&#x1e26;" horiz-adv-x="1351" 
d="M256 1470v-699h839v663l148 36v-1470l-148 -36v670h-839v-634l-148 -36v1470zM840 1586l-127 128l127 127l128 -127zM511 1586l-127 128l127 127l128 -127z" />
    <glyph glyph-name="uni1E27" unicode="&#x1e27;" horiz-adv-x="1007" 
d="M228 1470v-600q132 187 310 187q184 0 281.5 -121.5t97.5 -281.5v-654l-138 -36v661q0 146 -66 225.5t-186 79.5q-113 0 -206 -77t-93 -159v-694l-138 -36v1470zM670 1586l-127 128l127 127l128 -127zM341 1586l-127 128l127 127l128 -127z" />
    <glyph glyph-name="uni1E28" unicode="&#x1e28;" horiz-adv-x="1351" 
d="M108 -27v1461l152 27v-690h827v663l156 27v-1461l-156 -27v661h-827v-634l-46 -8q-45 -37 -45 -70h33q83 0 126.5 -47.5t43.5 -113.5q0 -56 -44.5 -112t-125.5 -56q-94 0 -140 59l54 58q36 -42 86 -42q45 0 67 27.5t22 63.5q0 44 -23.5 69.5t-65.5 25.5q-41 0 -75 -18
l-32 22z" />
    <glyph glyph-name="uni1E29" unicode="&#x1e29;" horiz-adv-x="1007" 
d="M90 -36v1470l138 36v-600q132 187 310 187q184 0 281.5 -121.5t97.5 -281.5v-654l-137 -36v661q0 146 -66.5 225.5t-186.5 79.5q-113 0 -206 -77t-93 -159v-694l-47 -12q-30 -32 -30 -65h33q83 0 126.5 -47.5t43.5 -113.5q0 -56 -44.5 -112t-125.5 -56q-94 0 -140 59
l54 58q36 -42 86 -42q45 0 67 27.5t22 63.5q0 44 -23.5 69.5t-65.5 25.5q-41 0 -75 -18l-32 22z" />
    <glyph glyph-name="uni1E2A" unicode="&#x1e2a;" horiz-adv-x="1351" 
d="M256 1470v-699h839v663l148 36v-1470l-148 -36v670h-839v-634l-148 -36v1470zM338 -117h100q50 -156 237 -156q188 0 238 156h100q0 -128 -94.5 -207.5t-242.5 -79.5q-149 0 -243.5 79.5t-94.5 207.5z" />
    <glyph glyph-name="uni1E2B" unicode="&#x1e2b;" horiz-adv-x="1007" 
d="M228 1470v-600q132 187 310 187q184 0 281.5 -121.5t97.5 -281.5v-654l-138 -36v661q0 146 -66 225.5t-186 79.5q-113 0 -206 -77t-93 -159v-694l-138 -36v1470zM166 -117h100q50 -156 237 -156q188 0 238 156h100q0 -128 -94.5 -207.5t-242.5 -79.5q-149 0 -243.5 79.5
t-94.5 207.5z" />
    <glyph glyph-name="uni1E2C" unicode="&#x1e2c;" horiz-adv-x="582" 
d="M365 1470v-1470l-148 -36v1470zM177 -144q51 0 127.5 -40t119.5 -40q95 0 159 80l35 -40q-105 -172 -205 -172q-54 1 -129 38.5t-132 37.5q-81 0 -153 -76l-31 48q104 164 209 164z" />
    <glyph glyph-name="uni1E2D" unicode="&#x1e2d;" horiz-adv-x="491" 
d="M315 1057v-1057l-138 -36v1056zM246 1262l-102 116l102 116l101 -116zM132 -144q51 0 127.5 -40t119.5 -40q95 0 159 80l35 -40q-105 -172 -205 -172q-54 1 -129 38.5t-132 37.5q-81 0 -153 -76l-31 48q104 164 209 164z" />
    <glyph glyph-name="uni1E2E" unicode="&#x1e2e;" horiz-adv-x="582" 
d="M365 1470v-1470l-148 -36v1470zM457 1521l-127 128l127 127l128 -127zM128 1521l-127 128l127 127l128 -127zM562 1990l-270 -244l-46 47l133 197h183z" />
    <glyph glyph-name="uni1E2F" unicode="&#x1e2f;" horiz-adv-x="491" 
d="M315 1057v-1057l-138 -36v1056zM412 1172l-127 128l127 127l128 -127zM83 1172l-127 128l127 127l128 -127zM535 1875l-332 -358h-96l225 358h203z" />
    <glyph glyph-name="uni1E30" unicode="&#x1e30;" horiz-adv-x="1055" 
d="M256 1470v-700l612 700l104 -86l-539 -632l604 -727l-145 -61l-636 763v-727l-148 -36v1470zM858 1892l-332 -358h-96l225 358h203z" />
    <glyph glyph-name="uni1E31" unicode="&#x1e31;" horiz-adv-x="885" 
d="M228 1470v-967l481 572l115 -55l-452 -529l495 -473l-110 -54l-529 514v-478l-138 -36v1470zM553 1970l-332 -358h-96l225 358h203z" />
    <glyph glyph-name="uni1E32" unicode="&#x1e32;" horiz-adv-x="1055" 
d="M256 1470v-700l612 700l104 -86l-539 -632l604 -727l-145 -61l-636 763v-727l-148 -36v1470zM572 -377l-127 128l127 127l128 -127z" />
    <glyph glyph-name="uni1E33" unicode="&#x1e33;" horiz-adv-x="885" 
d="M228 1470v-967l481 572l115 -55l-452 -529l495 -473l-110 -54l-529 514v-478l-138 -36v1470zM478 -377l-127 128l127 127l128 -127z" />
    <glyph glyph-name="uni1E34" unicode="&#x1e34;" horiz-adv-x="1055" 
d="M256 1470v-700l612 700l104 -86l-539 -632l604 -727l-145 -61l-636 763v-727l-148 -36v1470zM293 -314v128h560v-128h-560z" />
    <glyph glyph-name="uni1E35" unicode="&#x1e35;" horiz-adv-x="885" 
d="M228 1470v-967l481 572l115 -55l-452 -529l495 -473l-110 -54l-529 514v-478l-138 -36v1470zM201 -314v128h560v-128h-560z" />
    <glyph glyph-name="uni1E36" unicode="&#x1e36;" horiz-adv-x="878" 
d="M256 1461v-1317h604l-47 -144h-705v1434zM484 -377l-127 128l127 127l128 -127z" />
    <glyph glyph-name="uni1E37" unicode="&#x1e37;" horiz-adv-x="491" 
d="M314 1470v-1470l-138 -36v1470zM245 -377l-127 128l127 127l128 -127z" />
    <glyph glyph-name="uni1E38" unicode="&#x1e38;" horiz-adv-x="878" 
d="M256 1461v-1317h604l-47 -144h-705v1434zM6 1649v128h560v-128h-560zM484 -377l-127 128l127 127l128 -127z" />
    <glyph glyph-name="uni1E39" unicode="&#x1e39;" horiz-adv-x="491" 
d="M314 1470v-1470l-138 -36v1470zM-33 1649v128h560v-128h-560zM245 -377l-127 128l127 127l128 -127z" />
    <glyph glyph-name="uni1E3A" unicode="&#x1e3a;" horiz-adv-x="878" 
d="M256 1461v-1317h604l-47 -144h-705v1434zM206 -314v128h560v-128h-560z" />
    <glyph glyph-name="uni1E3B" unicode="&#x1e3b;" horiz-adv-x="491" 
d="M314 1470v-1470l-138 -36v1470zM-33 -314v128h560v-128h-560z" />
    <glyph glyph-name="uni1E3C" unicode="&#x1e3c;" horiz-adv-x="878" 
d="M256 1461v-1317h604l-47 -144h-705v1434zM485 -96l303 -223v-85l-304 154l-303 -154v85z" />
    <glyph glyph-name="uni1E3D" unicode="&#x1e3d;" horiz-adv-x="491" 
d="M314 1470v-1470l-138 -36v1470zM246 -96l303 -223v-85l-304 154l-303 -154v85z" />
    <glyph glyph-name="uni1E3E" unicode="&#x1e3e;" horiz-adv-x="1660" 
d="M387 1010l-210 -1046l-141 36l299 1470l495 -1161l495 1161l299 -1470l-140 -36l-212 1046l-442 -1046zM1115 1892l-332 -358h-96l225 358h203z" />
    <glyph glyph-name="uni1E3F" unicode="&#x1e3f;" horiz-adv-x="1560" 
d="M1131 1057q192 0 296 -161q43 -72 43 -181v-715l-138 -36v737q0 114 -55.5 169t-145.5 55q-113 0 -192 -55q-97 -74 -97 -274v-596l-138 -36v701q0 260 -206 260q-106 0 -195 -83q-75 -92 -75 -289v-553l-138 -36v1056l138 37v-183q88 183 270 183q207 0 311 -183
q115 183 322 183zM1065 1478l-332 -358h-96l225 358h203z" />
    <glyph glyph-name="uni1E40" unicode="&#x1e40;" horiz-adv-x="1660" 
d="M387 1010l-210 -1046l-141 36l299 1470l495 -1161l495 1161l299 -1470l-140 -36l-212 1046l-442 -1046zM830 1585l-127 128l127 127l128 -127z" />
    <glyph glyph-name="uni1E41" unicode="&#x1e41;" horiz-adv-x="1560" 
d="M1131 1057q192 0 296 -161q43 -72 43 -181v-715l-138 -36v737q0 114 -55.5 169t-145.5 55q-113 0 -192 -55q-97 -74 -97 -274v-596l-138 -36v701q0 260 -206 260q-106 0 -195 -83q-75 -92 -75 -289v-553l-138 -36v1056l138 37v-183q88 183 270 183q207 0 311 -183
q115 183 322 183zM780 1171l-127 128l127 127l128 -127z" />
    <glyph glyph-name="uni1E42" unicode="&#x1e42;" horiz-adv-x="1660" 
d="M387 1010l-210 -1046l-141 36l299 1470l495 -1161l495 1161l299 -1470l-140 -36l-212 1046l-442 -1046zM830 -377l-127 128l127 127l128 -127z" />
    <glyph glyph-name="uni1E43" unicode="&#x1e43;" horiz-adv-x="1560" 
d="M1131 1057q192 0 296 -161q43 -72 43 -181v-715l-138 -36v737q0 114 -55.5 169t-145.5 55q-113 0 -192 -55q-97 -74 -97 -274v-596l-138 -36v701q0 260 -206 260q-106 0 -195 -83q-75 -92 -75 -289v-553l-138 -36v1056l138 37v-183q88 183 270 183q207 0 311 -183
q115 183 322 183zM780 -377l-127 128l127 127l128 -127z" />
    <glyph glyph-name="uni1E44" unicode="&#x1e44;" horiz-adv-x="1358" 
d="M108 1470l994 -1119v1083l148 36v-1506l-994 1109v-1073l-148 -36v1506zM679 1585l-127 128l127 127l128 -127z" />
    <glyph glyph-name="uni1E45" unicode="&#x1e45;" horiz-adv-x="1004" 
d="M542 1057q180 0 276 -114t96 -267v-676l-137 -36v712q0 137 -65 195t-195 58q-110 0 -199.5 -104t-89.5 -261v-564l-138 -36v1056l138 36v-177q142 178 314 178zM502 1171l-127 128l127 127l128 -127z" />
    <glyph glyph-name="uni1E46" unicode="&#x1e46;" horiz-adv-x="1358" 
d="M108 1470l994 -1119v1083l148 36v-1506l-994 1109v-1073l-148 -36v1506zM679 -377l-127 128l127 127l128 -127z" />
    <glyph glyph-name="uni1E47" unicode="&#x1e47;" horiz-adv-x="1004" 
d="M542 1057q180 0 276 -114t96 -267v-676l-137 -36v712q0 137 -65 195t-195 58q-110 0 -199.5 -104t-89.5 -261v-564l-138 -36v1056l138 36v-177q142 178 314 178zM502 -377l-127 128l127 127l128 -127z" />
    <glyph glyph-name="uni1E48" unicode="&#x1e48;" horiz-adv-x="1358" 
d="M108 1470l994 -1119v1083l148 36v-1506l-994 1109v-1073l-148 -36v1506zM399 -314v128h560v-128h-560z" />
    <glyph glyph-name="uni1E49" unicode="&#x1e49;" horiz-adv-x="1004" 
d="M542 1057q180 0 276 -114t96 -267v-676l-137 -36v712q0 137 -65 195t-195 58q-110 0 -199.5 -104t-89.5 -261v-564l-138 -36v1056l138 36v-177q142 178 314 178zM224 -314v128h560v-128h-560z" />
    <glyph glyph-name="uni1E4A" unicode="&#x1e4a;" horiz-adv-x="1358" 
d="M108 1470l994 -1119v1083l148 36v-1506l-994 1109v-1073l-148 -36v1506zM680 -96l303 -223v-85l-304 154l-303 -154v85z" />
    <glyph glyph-name="uni1E4B" unicode="&#x1e4b;" horiz-adv-x="1004" 
d="M542 1057q180 0 276 -114t96 -267v-676l-137 -36v712q0 137 -65 195t-195 58q-110 0 -199.5 -104t-89.5 -261v-564l-138 -36v1056l138 36v-177q142 178 314 178zM503 -96l303 -223v-85l-304 154l-303 -154v85z" />
    <glyph glyph-name="uni1E4C" unicode="&#x1e4c;" horiz-adv-x="1632" 
d="M811 1327q-245 0 -418 -178.5t-173 -431.5t173 -431.5t418 -178.5t417.5 178.5t172.5 431.5t-172.5 431.5t-417.5 178.5zM1560 717q0 -312 -218 -531.5t-526 -219.5t-526 219.5t-218 531.5t218 531.5t526 219.5t526 -219.5t218 -531.5zM700 1732q51 0 127.5 -40
t119.5 -40q95 0 159 80l35 -40q-105 -172 -205 -172q-54 1 -129 38.5t-132 37.5q-81 0 -153 -76l-31 48q104 164 209 164zM1141 1990l-270 -244l-66 29l152 215h184z" />
    <glyph glyph-name="uni1E4D" unicode="&#x1e4d;" horiz-adv-x="1199" 
d="M1145 509q0 -225 -160 -384.5t-385 -159.5q-226 0 -386 159.5t-160 384.5q0 226 160 386t386 160q225 0 385 -160t160 -386zM600 923q-171 0 -291.5 -121t-120.5 -293q0 -171 120.5 -292t291.5 -121q170 0 290.5 121t120.5 292q0 172 -120.5 293t-290.5 121zM484 1405
q51 0 127.5 -40t119.5 -40q95 0 159 80l35 -40q-105 -172 -205 -172q-54 1 -129 38.5t-132 37.5q-81 0 -153 -76l-31 48q104 164 209 164zM886 1853l-332 -358h-96l225 358h203z" />
    <glyph glyph-name="uni1E4E" unicode="&#x1e4e;" horiz-adv-x="1632" 
d="M811 1327q-245 0 -418 -178.5t-173 -431.5t173 -431.5t418 -178.5t417.5 178.5t172.5 431.5t-172.5 431.5t-417.5 178.5zM1560 717q0 -312 -218 -531.5t-526 -219.5t-526 219.5t-218 531.5t218 531.5t526 219.5t526 -219.5t218 -531.5zM700 1710q51 0 127.5 -35.5
t119.5 -35.5q95 0 159 71l35 -35q-105 -155 -205 -155q-54 1 -129 35t-132 34q-81 0 -153 -69l-31 43q104 147 209 147zM1013 1762l-127 114l127 114l128 -114zM618 1762l-127 114l127 114l128 -114z" />
    <glyph glyph-name="uni1E4F" unicode="&#x1e4f;" horiz-adv-x="1199" 
d="M1145 509q0 -225 -160 -384.5t-385 -159.5q-226 0 -386 159.5t-160 384.5q0 226 160 386t386 160q225 0 385 -160t160 -386zM600 923q-171 0 -291.5 -121t-120.5 -293q0 -171 120.5 -292t291.5 -121q170 0 290.5 121t120.5 292q0 172 -120.5 293t-290.5 121zM484 1405
q51 0 127.5 -40t119.5 -40q95 0 159 80l35 -40q-105 -172 -205 -172q-54 1 -129 38.5t-132 37.5q-81 0 -153 -76l-31 48q104 164 209 164zM764 1511l-127 128l127 127l128 -127zM435 1511l-127 128l127 127l128 -127z" />
    <glyph glyph-name="uni1E50" unicode="&#x1e50;" horiz-adv-x="1632" 
d="M811 1327q-245 0 -418 -178.5t-173 -431.5t173 -431.5t418 -178.5t417.5 178.5t172.5 431.5t-172.5 431.5t-417.5 178.5zM1560 717q0 -312 -218 -531.5t-526 -219.5t-526 219.5t-218 531.5t218 531.5t526 219.5t526 -219.5t218 -531.5zM536 1572v128h560v-128h-560z
M729 1990l133 -244h-76l-240 244h183z" />
    <glyph glyph-name="uni1E51" unicode="&#x1e51;" horiz-adv-x="1199" 
d="M1145 509q0 -225 -160 -384.5t-385 -159.5q-226 0 -386 159.5t-160 384.5q0 226 160 386t386 160q225 0 385 -160t160 -386zM600 923q-171 0 -291.5 -121t-120.5 -293q0 -171 120.5 -292t291.5 -121q170 0 290.5 121t120.5 292q0 172 -120.5 293t-290.5 121zM320 1235
v128h560v-128h-560zM516 1811l225 -358h-96l-332 358h203z" />
    <glyph glyph-name="uni1E52" unicode="&#x1e52;" horiz-adv-x="1632" 
d="M811 1327q-245 0 -418 -178.5t-173 -431.5t173 -431.5t418 -178.5t417.5 178.5t172.5 431.5t-172.5 431.5t-417.5 178.5zM1560 717q0 -312 -218 -531.5t-526 -219.5t-526 219.5t-218 531.5t218 531.5t526 219.5t526 -219.5t218 -531.5zM536 1572v128h560v-128h-560z
M1086 1990l-240 -244h-76l133 244h183z" />
    <glyph glyph-name="uni1E53" unicode="&#x1e53;" horiz-adv-x="1199" 
d="M1145 509q0 -225 -160 -384.5t-385 -159.5q-226 0 -386 159.5t-160 384.5q0 226 160 386t386 160q225 0 385 -160t160 -386zM600 923q-171 0 -291.5 -121t-120.5 -293q0 -171 120.5 -292t291.5 -121q170 0 290.5 121t120.5 292q0 172 -120.5 293t-290.5 121zM320 1235
v128h560v-128h-560zM886 1811l-332 -358h-96l225 358h203z" />
    <glyph glyph-name="uni1E54" unicode="&#x1e54;" horiz-adv-x="979" 
d="M444 1434q172 0 317.5 -133t145.5 -353q0 -234 -145.5 -360.5t-317.5 -126.5h-188v-461l-148 -36v1470h336zM256 1289v-684h188q118 0 216 91t98 254q0 128 -102 233.5t-212 105.5h-188zM695 1892l-332 -358h-96l225 358h203z" />
    <glyph glyph-name="uni1E55" unicode="&#x1e55;" horiz-adv-x="1246" 
d="M650 1057q256 0 399 -156t143 -361q0 -275 -172.5 -424.5t-383.5 -149.5q-226 0 -408 202v-538l-138 -36v1426l138 36v-216q193 217 422 217zM654 940q-169 0 -288.5 -123.5t-119.5 -299.5q0 -175 119.5 -298.5t288.5 -123.5q170 0 289 123.5t119 298.5q0 176 -119 299.5
t-289 123.5zM926 1478l-332 -358h-96l225 358h203z" />
    <glyph glyph-name="uni1E56" unicode="&#x1e56;" horiz-adv-x="979" 
d="M444 1434q172 0 317.5 -133t145.5 -353q0 -234 -145.5 -360.5t-317.5 -126.5h-188v-461l-148 -36v1470h336zM256 1289v-684h188q118 0 216 91t98 254q0 128 -102 233.5t-212 105.5h-188zM409 1585l-127 128l127 127l128 -127z" />
    <glyph glyph-name="uni1E57" unicode="&#x1e57;" horiz-adv-x="1246" 
d="M650 1057q256 0 399 -156t143 -361q0 -275 -172.5 -424.5t-383.5 -149.5q-226 0 -408 202v-538l-138 -36v1426l138 36v-216q193 217 422 217zM654 940q-169 0 -288.5 -123.5t-119.5 -299.5q0 -175 119.5 -298.5t288.5 -123.5q170 0 289 123.5t119 298.5q0 176 -119 299.5
t-289 123.5zM641 1171l-127 128l127 127l128 -127z" />
    <glyph glyph-name="uni1E58" unicode="&#x1e58;" horiz-adv-x="1014" 
d="M394 1434q224 0 350 -121t126 -322q0 -193 -127 -295t-237 -102l490 -563l-137 -67l-603 706v-670l-148 -36v1470h286zM256 1289v-583h120q193 0 266 89.5t73 206.5q0 126 -84 206.5t-179 80.5h-196zM454 1585l-127 128l127 127l128 -127z" />
    <glyph glyph-name="uni1E59" unicode="&#x1e59;" horiz-adv-x="679" 
d="M596 1055h65l-65 -147q-34 4 -65 4q-155 0 -229 -115t-74 -297v-500l-138 -36v1056l138 36v-238q37 98 115 167.5t253 69.5zM377 1171l-127 128l127 127l128 -127z" />
    <glyph glyph-name="uni1E5A" unicode="&#x1e5a;" horiz-adv-x="1014" 
d="M394 1434q224 0 350 -121t126 -322q0 -193 -127 -295t-237 -102l490 -563l-137 -67l-603 706v-670l-148 -36v1470h286zM256 1289v-583h120q193 0 266 89.5t73 206.5q0 126 -84 206.5t-179 80.5h-196zM552 -377l-127 128l127 127l128 -127z" />
    <glyph glyph-name="uni1E5B" unicode="&#x1e5b;" horiz-adv-x="679" 
d="M596 1055h65l-65 -147q-34 4 -65 4q-155 0 -229 -115t-74 -297v-500l-138 -36v1056l138 36v-238q37 98 115 167.5t253 69.5zM148 -377l-127 128l127 127l128 -127z" />
    <glyph glyph-name="uni1E5C" unicode="&#x1e5c;" horiz-adv-x="1014" 
d="M394 1434q224 0 350 -121t126 -322q0 -193 -127 -295t-237 -102l490 -563l-137 -67l-603 706v-670l-148 -36v1470h286zM256 1289v-583h120q193 0 266 89.5t73 206.5q0 126 -84 206.5t-179 80.5h-196zM174 1649v128h560v-128h-560zM552 -377l-127 128l127 127l128 -127z
" />
    <glyph glyph-name="uni1E5D" unicode="&#x1e5d;" horiz-adv-x="679" 
d="M596 1055h65l-65 -147q-34 4 -65 4q-155 0 -229 -115t-74 -297v-500l-138 -36v1056l138 36v-238q37 98 115 167.5t253 69.5zM98 1235v128h560v-128h-560zM158 -377l-127 128l127 127l128 -127z" />
    <glyph glyph-name="uni1E5E" unicode="&#x1e5e;" horiz-adv-x="1014" 
d="M394 1434q224 0 350 -121t126 -322q0 -193 -127 -295t-237 -102l490 -563l-137 -67l-603 706v-670l-148 -36v1470h286zM256 1289v-583h120q193 0 266 89.5t73 206.5q0 126 -84 206.5t-179 80.5h-196zM272 -314v128h560v-128h-560z" />
    <glyph glyph-name="uni1E5F" unicode="&#x1e5f;" horiz-adv-x="679" 
d="M596 1055h65l-65 -147q-34 4 -65 4q-155 0 -229 -115t-74 -297v-500l-138 -36v1056l138 36v-238q37 98 115 167.5t253 69.5zM0 -314v128h560v-128h-560z" />
    <glyph glyph-name="uni1E60" unicode="&#x1e60;" horiz-adv-x="1029" 
d="M545 1470q224 0 376 -188l-101 -101q-113 145 -293 145q-110 0 -185 -66.5t-75 -179.5q0 -191 270 -268q420 -142 420 -440q0 -197 -124.5 -302.5t-312.5 -105.5q-269 0 -448 249l116 108q105 -209 336 -209q139 0 208.5 60.5t69.5 181.5q0 215 -275 296
q-422 160 -422 405q0 203 140.5 309t299.5 106zM514 1585l-127 128l127 127l128 -127z" />
    <glyph glyph-name="uni1E61" unicode="&#x1e61;" horiz-adv-x="813" 
d="M423 1057q175 0 317 -109l-79 -99q-102 94 -238 94q-98 0 -156 -47t-58 -123q0 -150 232 -181q318 -77 318 -321q0 -145 -104 -226t-247 -81q-213 0 -354 166l90 90q112 -130 253 -130q103 0 163.5 50t60.5 131q0 155 -226 195q-319 66 -319 293q0 139 108.5 218.5
t238.5 79.5zM408 1171l-127 128l127 127l128 -127z" />
    <glyph glyph-name="uni1E62" unicode="&#x1e62;" horiz-adv-x="1029" 
d="M545 1470q224 0 376 -188l-101 -101q-113 145 -293 145q-110 0 -185 -66.5t-75 -179.5q0 -191 270 -268q420 -142 420 -440q0 -197 -124.5 -302.5t-312.5 -105.5q-269 0 -448 249l116 108q105 -209 336 -209q139 0 208.5 60.5t69.5 181.5q0 215 -275 296
q-422 160 -422 405q0 203 140.5 309t299.5 106zM514 -377l-127 128l127 127l128 -127z" />
    <glyph glyph-name="uni1E63" unicode="&#x1e63;" horiz-adv-x="813" 
d="M423 1057q175 0 317 -109l-79 -99q-102 94 -238 94q-98 0 -156 -47t-58 -123q0 -150 232 -181q318 -77 318 -321q0 -145 -104 -226t-247 -81q-213 0 -354 166l90 90q112 -130 253 -130q103 0 163.5 50t60.5 131q0 155 -226 195q-319 66 -319 293q0 139 108.5 218.5
t238.5 79.5zM406 -377l-127 128l127 127l128 -127z" />
    <glyph glyph-name="uni1E64" unicode="&#x1e64;" horiz-adv-x="1029" 
d="M545 1470q224 0 376 -188l-101 -101q-113 145 -293 145q-110 0 -185 -66.5t-75 -179.5q0 -191 270 -268q420 -142 420 -440q0 -197 -124.5 -302.5t-312.5 -105.5q-269 0 -448 249l116 108q105 -209 336 -209q139 0 208.5 60.5t69.5 181.5q0 215 -275 296
q-422 160 -422 405q0 203 140.5 309t299.5 106zM900 1892l-332 -358h-96l225 358h203zM339 1637l-127 128l127 127l128 -127z" />
    <glyph glyph-name="uni1E65" unicode="&#x1e65;" horiz-adv-x="813" 
d="M423 1057q175 0 317 -109l-79 -99q-102 94 -238 94q-98 0 -156 -47t-58 -123q0 -150 232 -181q318 -77 318 -321q0 -145 -104 -226t-247 -81q-213 0 -354 166l90 90q112 -130 253 -130q103 0 163.5 50t60.5 131q0 155 -226 195q-319 66 -319 293q0 139 108.5 218.5
t238.5 79.5zM792 1478l-332 -358h-96l225 358h203zM281 1223l-127 128l127 127l128 -127z" />
    <glyph glyph-name="uni1E66" unicode="&#x1e66;" horiz-adv-x="1029" 
d="M545 1470q224 0 376 -188l-101 -101q-113 145 -293 145q-110 0 -185 -66.5t-75 -179.5q0 -191 270 -268q420 -142 420 -440q0 -197 -124.5 -302.5t-312.5 -105.5q-269 0 -448 249l116 108q105 -209 336 -209q139 0 208.5 60.5t69.5 181.5q0 215 -275 296
q-422 160 -422 405q0 203 140.5 309t299.5 106zM213 1780v98l303 -179l304 179v-98l-303 -260zM516 1735l-127 128l127 127l128 -127z" />
    <glyph glyph-name="uni1E67" unicode="&#x1e67;" horiz-adv-x="813" 
d="M423 1057q175 0 317 -109l-79 -99q-102 94 -238 94q-98 0 -156 -47t-58 -123q0 -150 232 -181q318 -77 318 -321q0 -145 -104 -226t-247 -81q-213 0 -354 166l90 90q112 -130 253 -130q103 0 163.5 50t60.5 131q0 155 -226 195q-319 66 -319 293q0 139 108.5 218.5
t238.5 79.5zM105 1380v98l303 -179l304 179v-98l-303 -260zM408 1478l-127 128l127 127l128 -127z" />
    <glyph glyph-name="uni1E68" unicode="&#x1e68;" horiz-adv-x="1029" 
d="M545 1470q224 0 376 -188l-101 -101q-113 145 -293 145q-110 0 -185 -66.5t-75 -179.5q0 -191 270 -268q420 -142 420 -440q0 -197 -124.5 -302.5t-312.5 -105.5q-269 0 -448 249l116 108q105 -209 336 -209q139 0 208.5 60.5t69.5 181.5q0 215 -275 296
q-422 160 -422 405q0 203 140.5 309t299.5 106zM514 1585l-127 128l127 127l128 -127zM514 -377l-127 128l127 127l128 -127z" />
    <glyph glyph-name="uni1E69" unicode="&#x1e69;" horiz-adv-x="813" 
d="M423 1057q175 0 317 -109l-79 -99q-102 94 -238 94q-98 0 -156 -47t-58 -123q0 -150 232 -181q318 -77 318 -321q0 -145 -104 -226t-247 -81q-213 0 -354 166l90 90q112 -130 253 -130q103 0 163.5 50t60.5 131q0 155 -226 195q-319 66 -319 293q0 139 108.5 218.5
t238.5 79.5zM408 1171l-127 128l127 127l128 -127zM406 -377l-127 128l127 127l128 -127z" />
    <glyph glyph-name="uni1E6A" unicode="&#x1e6a;" horiz-adv-x="997" 
d="M69 1434h910v-145h-392v-1289l-150 -36v1325h-419zM498 1585l-127 128l127 127l128 -127z" />
    <glyph glyph-name="uni1E6B" unicode="&#x1e6b;" horiz-adv-x="632" 
d="M301 1326v-306h309v-130h-309v-505q0 -179 54.5 -237t139.5 -58q66 0 119 22v-122q-60 -26 -148 -26q-128 0 -215.5 90t-87.5 302v534h-145l40 130h105v270zM258 1443l-127 128l127 127l128 -127z" />
    <glyph glyph-name="uni1E6C" unicode="&#x1e6c;" horiz-adv-x="997" 
d="M69 1434h910v-145h-392v-1289l-150 -36v1325h-419zM498 -377l-127 128l127 127l128 -127z" />
    <glyph glyph-name="uni1E6D" unicode="&#x1e6d;" horiz-adv-x="632" 
d="M301 1326v-306h309v-130h-309v-505q0 -179 54.5 -237t139.5 -58q66 0 119 22v-122q-60 -26 -148 -26q-128 0 -215.5 90t-87.5 302v534h-145l40 130h105v270zM366 -377l-127 128l127 127l128 -127z" />
    <glyph glyph-name="uni1E6E" unicode="&#x1e6e;" horiz-adv-x="997" 
d="M69 1434h910v-145h-392v-1289l-150 -36v1325h-419zM221 -314v128h560v-128h-560z" />
    <glyph glyph-name="uni1E6F" unicode="&#x1e6f;" horiz-adv-x="632" 
d="M301 1326v-306h309v-130h-309v-505q0 -179 54.5 -237t139.5 -58q66 0 119 22v-122q-60 -26 -148 -26q-128 0 -215.5 90t-87.5 302v534h-145l40 130h105v270zM38 -314v128h560v-128h-560z" />
    <glyph glyph-name="uni1E70" unicode="&#x1e70;" horiz-adv-x="997" 
d="M69 1434h910v-145h-392v-1289l-150 -36v1325h-419zM499 -96l303 -223v-85l-304 154l-303 -154v85z" />
    <glyph glyph-name="uni1E71" unicode="&#x1e71;" horiz-adv-x="632" 
d="M301 1326v-306h309v-130h-309v-505q0 -179 54.5 -237t139.5 -58q66 0 119 22v-122q-60 -26 -148 -26q-128 0 -215.5 90t-87.5 302v534h-145l40 130h105v270zM367 -96l303 -223v-85l-304 154l-303 -154v85z" />
    <glyph glyph-name="uni1E72" unicode="&#x1e72;" horiz-adv-x="1278" 
d="M256 1470v-986q0 -216 113.5 -297t269.5 -81q200 0 291.5 109t91.5 244v975l148 36v-957q0 -325 -168 -437t-374 -112q-260 0 -390 127.5t-130 349.5v993zM803 -377l-127 128l127 127l128 -127zM474 -377l-127 128l127 127l128 -127z" />
    <glyph glyph-name="uni1E73" unicode="&#x1e73;" horiz-adv-x="997" 
d="M907 1056v-1056l-138 -36v173q-130 -173 -296 -173q-172 0 -277.5 119t-105.5 260v677l138 36v-698q0 -128 74 -199t182 -71q119 0 202 110t83 268v554zM663 -377l-127 128l127 127l128 -127zM334 -377l-127 128l127 127l128 -127z" />
    <glyph glyph-name="uni1E74" unicode="&#x1e74;" horiz-adv-x="1278" 
d="M256 1470v-986q0 -216 113.5 -297t269.5 -81q200 0 291.5 109t91.5 244v975l148 36v-957q0 -325 -168 -437t-374 -112q-260 0 -390 127.5t-130 349.5v993zM523 -144q51 0 127.5 -40t119.5 -40q95 0 159 80l35 -40q-105 -172 -205 -172q-54 1 -129 38.5t-132 37.5
q-81 0 -153 -76l-31 48q104 164 209 164z" />
    <glyph glyph-name="uni1E75" unicode="&#x1e75;" horiz-adv-x="997" 
d="M907 1056v-1056l-138 -36v173q-130 -173 -296 -173q-172 0 -277.5 119t-105.5 260v677l138 36v-698q0 -128 74 -199t182 -71q119 0 202 110t83 268v554zM383 -144q51 0 127.5 -40t119.5 -40q95 0 159 80l35 -40q-105 -172 -205 -172q-54 1 -129 38.5t-132 37.5
q-81 0 -153 -76l-31 48q104 164 209 164z" />
    <glyph glyph-name="uni1E76" unicode="&#x1e76;" horiz-adv-x="1278" 
d="M256 1470v-986q0 -216 113.5 -297t269.5 -81q200 0 291.5 109t91.5 244v975l148 36v-957q0 -325 -168 -437t-374 -112q-260 0 -390 127.5t-130 349.5v993zM640 -96l303 -223v-85l-304 154l-303 -154v85z" />
    <glyph glyph-name="uni1E77" unicode="&#x1e77;" horiz-adv-x="997" 
d="M907 1056v-1056l-138 -36v173q-130 -173 -296 -173q-172 0 -277.5 119t-105.5 260v677l138 36v-698q0 -128 74 -199t182 -71q119 0 202 110t83 268v554zM499 -96l303 -223v-85l-304 154l-303 -154v85z" />
    <glyph glyph-name="uni1E78" unicode="&#x1e78;" horiz-adv-x="1278" 
d="M256 1470v-986q0 -216 113.5 -297t269.5 -81q200 0 291.5 109t91.5 244v975l148 36v-957q0 -325 -168 -437t-374 -112q-260 0 -390 127.5t-130 349.5v993zM525 1732q51 0 127.5 -40t119.5 -40q95 0 159 80l35 -40q-105 -172 -205 -172q-54 1 -129 38.5t-132 37.5
q-81 0 -153 -76l-31 48q104 164 209 164zM966 1990l-270 -244l-66 29l152 215h184z" />
    <glyph glyph-name="uni1E79" unicode="&#x1e79;" horiz-adv-x="997" 
d="M907 1056v-1056l-138 -36v173q-130 -173 -296 -173q-172 0 -277.5 119t-105.5 260v677l138 36v-698q0 -128 74 -199t182 -71q119 0 202 110t83 268v554zM385 1405q51 0 127.5 -40t119.5 -40q95 0 159 80l35 -40q-105 -172 -205 -172q-54 1 -129 38.5t-132 37.5
q-81 0 -153 -76l-31 48q104 164 209 164zM785 1853l-332 -358h-96l225 358h203z" />
    <glyph glyph-name="uni1E7A" unicode="&#x1e7a;" horiz-adv-x="1278" 
d="M256 1470v-986q0 -216 113.5 -297t269.5 -81q200 0 291.5 109t91.5 244v975l148 36v-957q0 -325 -168 -437t-374 -112q-260 0 -390 127.5t-130 349.5v993zM359 1521v128h560v-128h-560zM805 1735l-127 128l127 127l128 -127zM476 1735l-127 128l127 127l128 -127z" />
    <glyph glyph-name="uni1E7B" unicode="&#x1e7b;" horiz-adv-x="997" 
d="M907 1056v-1056l-138 -36v173q-130 -173 -296 -173q-172 0 -277.5 119t-105.5 260v677l138 36v-698q0 -128 74 -199t182 -71q119 0 202 110t83 268v554zM221 1235v128h560v-128h-560zM665 1491l-127 128l127 127l128 -127zM336 1491l-127 128l127 127l128 -127z" />
    <glyph glyph-name="uni1E7C" unicode="&#x1e7c;" horiz-adv-x="1387" 
d="M694 -36l-676 1470l148 36l528 -1135l527 1135l148 -36zM578 1819q51 0 127.5 -40t119.5 -40q95 0 159 80l35 -40q-105 -172 -205 -172q-54 1 -129 38.5t-132 37.5q-81 0 -153 -76l-31 48q104 164 209 164z" />
    <glyph glyph-name="uni1E7D" unicode="&#x1e7d;" horiz-adv-x="1033" 
d="M152 1060l372 -798l357 798l134 -40l-491 -1065l-506 1065zM401 1405q51 0 127.5 -40t119.5 -40q95 0 159 80l35 -40q-105 -172 -205 -172q-54 1 -129 38.5t-132 37.5q-81 0 -153 -76l-31 48q104 164 209 164z" />
    <glyph glyph-name="uni1E7E" unicode="&#x1e7e;" horiz-adv-x="1387" 
d="M694 -36l-676 1470l148 36l528 -1135l527 1135l148 -36zM693 -377l-127 128l127 127l128 -127z" />
    <glyph glyph-name="uni1E7F" unicode="&#x1e7f;" horiz-adv-x="1033" 
d="M152 1060l372 -798l357 798l134 -40l-491 -1065l-506 1065zM516 -377l-127 128l127 127l128 -127z" />
    <glyph glyph-name="Wgrave" unicode="&#x1e80;" horiz-adv-x="1911" 
d="M956 541l-262 -577l-676 1470l148 36l528 -1135l177 373l-329 726l148 36l266 -576l265 576l148 -36l-329 -725l178 -374l527 1135l148 -36l-675 -1470zM873 1892l225 -358h-96l-332 358h203z" />
    <glyph glyph-name="wgrave" unicode="&#x1e81;" horiz-adv-x="1734" 
d="M860 1078l379 -813l347 795l130 -40l-477 -1065l-379 827l-380 -819l-462 1057l130 40l340 -791zM785 1478l225 -358h-96l-332 358h203z" />
    <glyph glyph-name="Wacute" unicode="&#x1e82;" horiz-adv-x="1911" 
d="M956 541l-262 -577l-676 1470l148 36l528 -1135l177 373l-329 726l148 36l266 -576l265 576l148 -36l-329 -725l178 -374l527 1135l148 -36l-675 -1470zM1241 1892l-332 -358h-96l225 358h203z" />
    <glyph glyph-name="wacute" unicode="&#x1e83;" horiz-adv-x="1734" 
d="M860 1078l379 -813l347 795l130 -40l-477 -1065l-379 827l-380 -819l-462 1057l130 40l340 -791zM1152 1478l-332 -358h-96l225 358h203z" />
    <glyph glyph-name="Wdieresis" unicode="&#x1e84;" horiz-adv-x="1911" 
d="M956 541l-262 -577l-676 1470l148 36l528 -1135l177 373l-329 726l148 36l266 -576l265 576l148 -36l-329 -725l178 -374l527 1135l148 -36l-675 -1470zM1120 1586l-127 128l127 127l128 -127zM791 1586l-127 128l127 127l128 -127z" />
    <glyph glyph-name="wdieresis" unicode="&#x1e85;" horiz-adv-x="1734" 
d="M860 1078l379 -813l347 795l130 -40l-477 -1065l-379 827l-380 -819l-462 1057l130 40l340 -791zM1031 1172l-127 128l127 127l128 -127zM702 1172l-127 128l127 127l128 -127z" />
    <glyph glyph-name="uni1E86" unicode="&#x1e86;" horiz-adv-x="1911" 
d="M956 541l-262 -577l-676 1470l148 36l528 -1135l177 373l-329 726l148 36l266 -576l265 576l148 -36l-329 -725l178 -374l527 1135l148 -36l-675 -1470zM955 1585l-127 128l127 127l128 -127z" />
    <glyph glyph-name="uni1E87" unicode="&#x1e87;" horiz-adv-x="1734" 
d="M860 1078l379 -813l347 795l130 -40l-477 -1065l-379 827l-380 -819l-462 1057l130 40l340 -791zM867 1171l-127 128l127 127l128 -127z" />
    <glyph glyph-name="uni1E88" unicode="&#x1e88;" horiz-adv-x="1911" 
d="M956 541l-262 -577l-676 1470l148 36l528 -1135l177 373l-329 726l148 36l266 -576l265 576l148 -36l-329 -725l178 -374l527 1135l148 -36l-675 -1470zM955 -377l-127 128l127 127l128 -127z" />
    </font>
</defs>
</svg>
